<svg xmlns:rdf="http://www.w3.org/1999/02/22-rdf-syntax-ns#" xmlns="http://www.w3.org/2000/svg" xmlns:cc="http://creativecommons.org/ns#" xmlns:xlink="http://www.w3.org/1999/xlink" xmlns:dc="http://purl.org/dc/elements/1.1/" height="181.53mm" width="181.53mm" version="1.1" viewBox="0 0 643.21648 643.21647">
<defs>
<linearGradient id="g" x1="130" xlink:href="#b" gradientUnits="userSpaceOnUse" x2="130" gradientTransform="matrix(4.0001 0 0 4.0001 -197.16 -1351.4)" y1="542.36" y2="392.36"/>
<linearGradient id="b">
<stop stop-color="#cfcfd2" offset="0"/>
<stop stop-color="#f7f7f7" offset="1"/>
</linearGradient>
<linearGradient id="f" x1="55" xlink:href="#b" gradientUnits="userSpaceOnUse" x2="215" gradientTransform="matrix(4.0001 0 0 4.0001 -197.16 -1351.4)" y1="467.36" y2="467.36"/>
<clipPath id="h" clipPathUnits="userSpaceOnUse">
<rect ry="30" height="160" width="160" stroke="#000" y="387.36" x="55" stroke-width="0.8" fill="none"/>
</clipPath>
<filter id="c" style="color-interpolation-filters:sRGB" height="3.9618" width="1.1916" y="-1.4809" x="-.095824">
<feGaussianBlur stdDeviation="6.7875"/>
</filter>
<filter id="a" style="color-interpolation-filters:sRGB" height="3.9618" width="1.1916" y="-1.4809" x="-.095824">
<feGaussianBlur stdDeviation="6.7875"/>
</filter>
<linearGradient id="d" y2="532.36" gradientUnits="userSpaceOnUse" y1="402.36" gradientTransform="matrix(4.0001 0 0 4.0001 -197.16 -1351.4)" x2="140" x1="140">
<stop stop-color="#e0e0e0" offset="0"/>
<stop stop-color="#eaeaea" offset="1"/>
</linearGradient>
<linearGradient id="e" y2="528.62" gradientUnits="userSpaceOnUse" x2="324.94" y1="123.27" x1="321.17">
<stop stop-color="#161616" offset="0"/>
<stop stop-color="#404040" offset="1"/>
</linearGradient>
</defs>
<g transform="translate(-21.249 -196.47)">
<rect ry="120" height="640.02" width="640.02" stroke="url(#f)" y="198.07" x="22.849" stroke-width="3.2001" fill="url(#g)"/>
<g clip-path="url(#h)" transform="matrix(4.0001 0 0 4.0001 -197.16 -1351.4)">
<path d="m135 542.36a90.002 13 0 0 0 -85 8.77c4.8596 1.4338 10.182 2.2285 15.772 2.2285h138.46c5.5874 0 10.906-0.79421 15.764-2.2266a90.002 13 0 0 0 -84.99 -8.77z" filter="url(#c)" fill="#666"/>
<g fill="#fff">
<path filter="url(#a)" d="m135 393.36a90.002 13 0 0 1 -85 -8.77c4.8596-1.4338 10.182-2.2285 15.772-2.2285h138.46c5.5874 0 10.906 0.79421 15.764 2.2266a90.002 13 0 0 1 -84.99 8.77z"/>
<path filter="url(#a)" d="m135 393.36a90.002 13 0 0 1 -85 -8.77c4.8596-1.4338 10.182-2.2285 15.772-2.2285h138.46c5.5874 0 10.906 0.79421 15.764 2.2266a90.002 13 0 0 1 -84.99 8.77z"/>
<path filter="url(#a)" d="m135 393.36a90.002 13 0 0 1 -85 -8.77c4.8596-1.4338 10.182-2.2285 15.772-2.2285h138.46c5.5874 0 10.906 0.79421 15.764 2.2266a90.002 13 0 0 1 -84.99 8.77z"/>
</g>
<path d="m135 542.36a90.002 13 0 0 0 -85 8.77c4.8596 1.4338 10.182 2.2285 15.772 2.2285h138.46c5.5874 0 10.906-0.79421 15.764-2.2266a90.002 13 0 0 0 -84.99 -8.77z" filter="url(#c)" fill="#666"/>
</g>
<rect ry="120" height="640.02" width="640.02" stroke="#000" y="198.07" x="22.849" stroke-width="2.8001" fill="none"/>
<rect ry="160" height="520.01" width="520.01" y="258.07" x="82.851" fill="url(#d)"/>
<path d="m328.39 226.86c-11.93 45.42-68 60.63-70.27 118.49-1.79 45.36 41.88 52.64 63.15 20.23-0.57 28.07-8.66 69.17-8.66 69.17h29.93s-9.88-38.16-10.45-67.76c18.16 31.5 59.92 21.95 59.6-18.45-0.36-44.95-61.3-84.26-63.3-121.68zm-1.31 22.97c10.76 22 28.38 39.52 41.82 59.75 9.54 14.03 17.23 31.36 13.91 48.63-1.47 13.11-16.47 23.33-28.96 18.18-12.4-5.41-18.61-18.34-23.38-30.2 0.01-2.61-3.95-3.58-5.03-1.18 0.02 1.07-0.3 1.37-1.42 1.4-6.48 9.34-11.3 20.82-21.54 26.91-9.38 6.93-24.21 5.29-30.92-4.5-8.75-15.14-6.2-34.2 0.69-49.64 12.12-27.33 39.05-43.71 54.49-68.8l0.08-0.12 0.26-0.43zm-0.33 146.65c0 0.02 0.01 0.05 0.01 0.07h-0.02l0.01-0.07z" fill-rule="evenodd" transform="translate(21.249 196.47)" clip-rule="evenodd" fill="url(#e)"/>
</g>
</svg>