<svg xmlns:rdf="http://www.w3.org/1999/02/22-rdf-syntax-ns#" xmlns="http://www.w3.org/2000/svg" xmlns:cc="http://creativecommons.org/ns#" xmlns:xlink="http://www.w3.org/1999/xlink" xmlns:dc="http://purl.org/dc/elements/1.1/" height="181.53mm" width="181.53mm" version="1.1" viewBox="0 0 643.21653 643.21653">
<defs>
<linearGradient id="g" x1="130" xlink:href="#b" gradientUnits="userSpaceOnUse" x2="130" gradientTransform="matrix(4.0001 0 0 4.0001 -1814.3 -1854.3)" y1="542.36" y2="392.36"/>
<linearGradient id="b">
<stop stop-color="#cfcfd2" offset="0"/>
<stop stop-color="#f7f7f7" offset="1"/>
</linearGradient>
<linearGradient id="f" x1="55" xlink:href="#b" gradientUnits="userSpaceOnUse" x2="215" gradientTransform="matrix(4.0001 0 0 4.0001 -1814.3 -1854.3)" y1="467.36" y2="467.36"/>
<clipPath id="h" clipPathUnits="userSpaceOnUse">
<rect ry="30" height="160" width="160" stroke="#000" y="387.36" x="55" stroke-width="0.8" fill="none"/>
</clipPath>
<filter id="c" style="color-interpolation-filters:sRGB" height="3.9618" width="1.1916" y="-1.4809" x="-.095824">
<feGaussianBlur stdDeviation="6.7875"/>
</filter>
<filter id="a" style="color-interpolation-filters:sRGB" height="3.9618" width="1.1916" y="-1.4809" x="-.095824">
<feGaussianBlur stdDeviation="6.7875"/>
</filter>
<linearGradient id="d" y2="532.36" gradientUnits="userSpaceOnUse" y1="402.36" gradientTransform="matrix(4.0001 0 0 4.0001 -1814.3 -1854.3)" x2="140" x1="140">
<stop stop-color="#e0e0e0" offset="0"/>
<stop stop-color="#eaeaea" offset="1"/>
</linearGradient>
<linearGradient id="e" y2="566.47" gradientUnits="userSpaceOnUse" x2="162.31" y1="81.021" x1="159.29">
<stop stop-color="#161616" offset="0"/>
<stop stop-color="#404040" offset="1"/>
</linearGradient>
</defs>
<g transform="translate(1595.9 306.39)">
<rect ry="120" height="640.02" width="640.02" stroke="url(#f)" y="-304.79" x="-1594.3" stroke-width="3.2001" fill="url(#g)"/>
<g clip-path="url(#h)" transform="matrix(4.0001 0 0 4.0001 -1814.3 -1854.3)">
<path d="m135 542.36a90.002 13 0 0 0 -85 8.77c4.8596 1.4338 10.182 2.2285 15.772 2.2285h138.46c5.5874 0 10.906-0.79421 15.764-2.2266a90.002 13 0 0 0 -84.99 -8.77z" filter="url(#c)" fill="#666"/>
<g fill="#fff">
<path filter="url(#a)" d="m135 393.36a90.002 13 0 0 1 -85 -8.77c4.8596-1.4338 10.182-2.2285 15.772-2.2285h138.46c5.5874 0 10.906 0.79421 15.764 2.2266a90.002 13 0 0 1 -84.99 8.77z"/>
<path filter="url(#a)" d="m135 393.36a90.002 13 0 0 1 -85 -8.77c4.8596-1.4338 10.182-2.2285 15.772-2.2285h138.46c5.5874 0 10.906 0.79421 15.764 2.2266a90.002 13 0 0 1 -84.99 8.77z"/>
<path filter="url(#a)" d="m135 393.36a90.002 13 0 0 1 -85 -8.77c4.8596-1.4338 10.182-2.2285 15.772-2.2285h138.46c5.5874 0 10.906 0.79421 15.764 2.2266a90.002 13 0 0 1 -84.99 8.77z"/>
</g>
<path d="m135 542.36a90.002 13 0 0 0 -85 8.77c4.8596 1.4338 10.182 2.2285 15.772 2.2285h138.46c5.5874 0 10.906-0.79421 15.764-2.2266a90.002 13 0 0 0 -84.99 -8.77z" filter="url(#c)" fill="#666"/>
</g>
<rect ry="120" height="640.02" width="640.02" stroke="#000" y="-304.79" x="-1594.3" stroke-width="2.8001" fill="none"/>
<rect ry="160" height="520.01" width="520.01" y="-244.79" x="-1534.3" fill="url(#d)"/>
<path d="m183 79.783v4.834c3.84 0 6.47 0.41 7.91 1.231 0.79 0.468 1.19 1.656 1.19 3.56v33.662c0 11.95-4.06 17.93-12.18 17.93-2.16 0-4.16-0.48-5.97-1.45-1.79-1-3.04-2.34-3.74-4.04 1.29-0.53 2.34-1.38 3.17-2.55 0.82-1.17 1.23-2.59 1.23-4.26 0-1.7-0.63-3.21-1.89-4.53s-2.9-1.98-4.93-1.98c-2.02 0-3.72 0.78-5.09 2.33-1.38 1.52-2.07 3.5-2.07 5.93 0 4.54 1.89 8.37 5.67 11.47 3.81 3.11 8.73 4.66 14.77 4.66 3.19 0 6.1-0.5 8.74-1.49 8.12-3.08 12.17-10.4 12.17-21.98l-0.04-33.702c0-0.879 0.12-1.627 0.35-2.242 0.24-0.615 0.78-1.186 1.63-1.713 0.85-0.557 2.66-0.836 5.45-0.836v-4.834h-26.37zm121.97 2.313l0.01 0.002c-15.62 0.022-31.23-0.041-46.84 0.08-0.95 0.107-2.05-0.185-2.86 0.424-0.53 0.501-0.43 1.329 0.08 1.802 7.57 10.317 15.11 20.646 22.65 30.986 0.28 0.45 0.72 0.92 0.9 1.37-3.02 2.28-3.36 7-1.17 9.96 0.67 0.94 1.6 1.7 2.66 2.16-0.11 4.6-0.15 9.22-1.25 13.7-0.43 1.84-1.35 3.54-2.66 4.89-3.83 4.24-8.24 8.08-11.54 12.83-1.14 1.7-2.21 3.82-1.57 5.91 0.61 1.93 2.36 3.2 4.01 4.21 1.68 1.02 3.77 1.16 5.64 0.62 0.39-0.04 0.87-0.35 1.21-0.26 0.89 1.03 0.6 2.48 0.02 3.58-0.92 1.98-2.73 3.68-2.77 5.99-0.03 0.84 0.42 1.65 0.93 2.24-0.85 1.52-1.36 3.46-0.48 5.09 0.93 1.93 3.06 2.83 4.26 4.53 0.79 1.29 0.12 2.81-0.26 4.11-0.2 0.58-0.41 1.15-0.62 1.72-9.37 1.05-18.58 3.24-27.68 5.68-14.11 3.88-28.02 8.59-41.49 14.31-3.55 1.51-7.05 3.11-10.5 4.83v-26.14c3.19-0.05 6.39 0.11 9.56-0.14 2.45-0.31 4.63-2.17 5.2-4.59 0.73-2.64-0.47-5.72-2.92-7.03-1.15-0.68-2.49-0.85-3.8-0.82-2.63-0.06-5.25-0.05-7.87-0.05 4.09-2.6 6.88-7.06 7.57-11.85 1.04-6.67-1.68-13.94-7.23-17.92-4.75-3.44-11.21-4.07-16.7-2.18-4.92 1.69-8.83 5.8-10.56 10.67-2.07 5.6-1.37 12.27 2.25 17.08 1.23 1.66 2.77 3.09 4.51 4.21-2.09 0.03-4.19-0.07-6.27 0.16-2.39 0.43-4.43 2.36-4.9 4.75-0.62 2.64 0.66 5.61 3.1 6.86 1.94 1.08 4.23 0.77 6.36 0.85h2.72v20.79c-1.81-0.22-3.84 0.31-4.94 1.87-2.72 3.25-3.48 8.11-1.55 11.94-1.65 1.24-2.3 3.36-2.62 5.31-0.19 1.26-0.18 2.54 0.04 3.8-5.66 4.7-10.93 9.96-15.07 16.06-0.46 39.24-0.54 78.48-0.52 117.72 0.04 16.06 0.02 32.13 0.29 48.2 0.03 1.69 0.11 3.39 0.2 5.09 4.1 2.36 8.27 4.63 12.54 6.69 13.65 6.64 28.2 11.37 43.09 14.33 0.97 0.19 1.95 0.37 2.93 0.54-3.39 5.37-4.09 12.12-2.79 18.26 1.1 5.12 3.77 10.07 8.1 13.16 3.98 2.99 9.1 4.81 14.1 3.97 3.7-0.59 7.06-2.78 9.19-5.85 6.41 13.42 12.74 26.87 18.88 40.41-2.72 2.79-2.59 7.76 0.25 10.42 0.52 0.5 1.13 0.9 1.8 1.18-5.75 9.16-11.57 18.28-17.35 27.42-0.79 0.6-1.95 0.9-2.38 1.87-0.14 0.45-0.01 0.97 0.35 1.28-0.68 1.06-1.32 2.14-1.98 3.22 44.94-0.01 89.88 0.03 134.82-0.04 3.58-0.04 7.17 0.04 10.75-0.12 0.51-0.07 0.87-0.38 0.97-0.89 0.39-0.52-0.31-0.92-0.53-1.37-7.68-10.72-15.43-21.39-23.09-32.12 2.13-1.57 2.79-4.46 2.46-6.97-0.28-2.18-1.4-4.52-3.55-5.38-0.32-0.17-0.87-0.08-0.75-0.58-0.08-3.9 0.26-7.81 0.8-11.65 0.35-2.2 0.86-4.52 2.36-6.25 3.26-3.89 7.09-7.25 10.32-11.16 1.53-1.92 3.22-3.93 3.7-6.41 0.35-1.74-0.51-3.5-1.83-4.6-1.72-1.55-3.94-2.87-6.34-2.64-0.95 0.06-1.87 0.37-2.76 0.63-0.69-0.95-0.85-2.22-0.3-3.28 0.89-2.06 2.78-3.74 2.99-6.08 0.06-0.92-0.36-1.81-0.99-2.45 0.81-1.47 1.41-3.3 0.63-4.91-0.93-2.04-3.1-3.05-4.41-4.79-0.77-1.24-0.05-2.77 0.28-4 0.68-2.03 1.5-4.01 2.17-6.04 13.19-3.09 26.3-6.51 39.42-9.87 13.08-3.39 26.14-6.82 39.18-10.35 0.08 7.74 0.02 15.6 0.02 23.38 0 1.11 0 2.21-0.01 3.32-3.17 0.05-6.36-0.13-9.53 0.14-2.93 0.33-5.35 3.04-5.38 5.99-0.13 2.5 1.44 4.96 3.77 5.89 1.75 0.75 3.71 0.51 5.56 0.6 1.65 0.02 3.46-0.02 5.02 0.02-4.03 2.56-6.83 6.89-7.58 11.59-1.18 6.92 1.69 14.53 7.53 18.55 4.88 3.42 11.46 3.75 16.92 1.61 4.83-1.88 8.61-6.07 10.17-10.99 1.91-5.71 0.92-12.41-2.93-17.11-1.15-1.43-2.54-2.67-4.08-3.67 2.3-0.05 4.62 0.1 6.91-0.18 2.74-0.51 4.93-3.04 5.02-5.83 0.18-2.65-1.61-5.24-4.06-6.16-2.11-0.62-4.34-0.39-6.5-0.45h-1.93v-21.73c2.38 0.16 4.58-1.36 5.73-3.38 1.85-3.13 1.85-7.19 0.35-10.44 1.91-1.33 2.56-3.79 2.7-5.99 0.12-2.46-0.38-5.01-1.69-7.13 1.99-1.77 2.9-4.44 3.28-7.01 0.22-1.68 0.18-3.46-0.48-5.05 5.37-7.67 10.74-15.34 16.1-23.01 0.32-38.44 0.72-76.88 0.76-115.32-0.02-11.03-0.01-22.06-0.28-33.09-0.03-0.9-0.1-1.81-0.14-2.71-16.07-9.35-33.62-16.15-51.83-19.91-2.58-0.53-5.18-0.99-7.79-1.38 2.58-6.02 2.44-13.02 0.16-19.11-1.45-3.88-3.96-7.43-7.43-9.74-3.77-2.68-8.47-4.44-13.14-3.76-3.89 0.52-7.38 2.85-9.66 6-6.28-13.13-12.49-26.29-18.51-39.54 1.94-1.92 2.63-4.98 1.64-7.54-0.72-1.98-2.36-3.59-4.36-4.26 4.55-7.4 9.37-14.69 14.17-21.932 1.62-2.389 3.19-4.828 4.93-7.141 1.16-0.697 2.32-1.396 3.49-2.093-0.77-0.079-1.53-0.158-2.29-0.237 0.48-0.727 0.97-1.454 1.46-2.181h-96.65zm-36.7 5.785h8.69c7.53 0.007 15.05 0.017 22.57 0.125-4.02 4.013-8.02 8.041-12.06 12.034-6.41-4.038-12.8-8.103-19.2-12.159zm44.05 0.135h0.05c10.67 0.023 21.36 0.057 32.02 0.15-5.38 4.06-10.76 8.125-16.18 12.134-5.32-4.061-10.61-8.169-15.89-12.284zm43.13 0.105c0.07-0.023 0.21-0.018 0.44 0.029 0.56-0.002 1.11 0 1.67 0 10.06 0.018 20.13 0.075 30.2 0.184-6.86 4.079-13.73 8.145-20.61 12.176-3.79-3.862-7.49-7.804-11.23-11.705-0.28-0.281-0.69-0.614-0.47-0.684zm-50.06 0.053c0.02-0.008 0.04-0.004 0.06 0.017 4.95 3.591 9.73 7.426 14.61 11.125 2.55 1.914 5.04 3.924 7.68 5.724 0.59 0.39 1.23 0.06 1.7-0.37 6.95-5.181 13.84-10.46 20.8-15.613 5.26 5.335 10.37 10.821 15.61 16.163 0.49 0.48 1.27 0.4 1.75-0.02 7.46-4.49 14.98-8.889 22.48-13.311-4.95 7.828-9.94 15.631-14.91 23.451h-91.97c-5.8-8.01-11.6-16.019-17.4-24.029 7.26 4.582 14.49 9.199 21.76 13.739 1.12-0.08 1.73-1.15 2.53-1.79 5.11-4.921 10.01-10.045 15.14-14.94 0.05-0.005 0.1-0.124 0.16-0.146zm-22.96 31.066c0.16-0.01 0.33 0 0.5 0.02h47.53 48.49c1.9 0.7 2.33 3.42 0.96 4.81-0.52 0.57-1.27 0.8-2.02 0.69-30.06-0.01-60.11 0.07-90.17-0.01-1.95-0.04-3.91 0.03-5.84-0.11-1.94-0.66-2.2-3.53-0.76-4.82 0.35-0.38 0.82-0.55 1.31-0.58zm96.4 10.13c0.03 0.09 0.07 0.17 0.11 0.26 4.2 9.45 8.67 18.78 13.08 28.13 3.64 7.61 7.24 15.23 11.03 22.77-1.28-1.06-2.74-1.86-4.22-2.57-8.4-16.18-16.85-32.32-25.16-48.54 1.72-0.03 3.44-0.03 5.16-0.05zm-55.5 0.01c0.6 0 1.2 0 1.8 0.03 10.06 18.66 19.98 37.4 29.98 56.1-2.79 2.65-4.3 6.56-4.01 10.41 0.33 5.36 3.61 10.64 8.64 12.76 3.22 1.37 7.1 1.02 10.05-0.87 2.18-1.52 2.94-4.43 2.46-6.94-0.44-2.56-2.05-5.17-4.65-5.95-2.04-0.62-4.32 0.21-5.67 1.82-1.04 1.2-2.03 2.71-1.89 4.36 0.1 1.1 1.26 1.82 2.31 1.59 1.18-0.13 1.6-1.4 2.11-2.28 0.44-0.67 1.16-1.68 2.08-1.32 1.08 0.69 1.64 2.02 1.78 3.25 0.13 1.53-1.42 2.44-2.75 2.64-3.64 0.63-7.56-1.35-9.17-4.69-1.53-2.72-1.93-6.19-0.49-9.03 1.84-3.84 6.44-5.96 10.58-5.14 3.19 0.57 5.85 2.69 7.83 5.16 3.67 4.36 5.71 10.33 4.5 16-0.84 4.22-3.75 7.98-7.72 9.69-3.16 1.4-6.99 1.9-10.27 0.49-3.99-1.69-6.8-5.16-9.16-8.73-2.31-3.69-4.36-7.53-6.54-11.29-12.86-22.61-25.77-45.19-38.58-67.82-0.21-0.43 0.82-0.12 1.14-0.22 2.59-0.01 5.16-0.02 7.73 0.08 9.95 19.21 19.75 38.5 29.72 57.7 0.62 1.13 2.32 1.45 3.24 0.51 0.71-0.67 0.83-1.81 0.26-2.61-8.02-15.98-16.27-31.84-24.41-47.75-1.35-2.63-2.7-5.26-4.04-7.89 1.04-0.05 2.09-0.06 3.14-0.06zm25.37 0.01c2.2 0 4.37 0 6.57 0.09 9.15 17.46 18.28 34.96 27.37 52.46-1.79 2.05-3.04 4.59-3.53 7.28-11.17-19.92-22.32-39.85-33.44-59.8 1.01-0.02 2.01-0.03 3.03-0.03zm-12.74 0c1.61 0.01 3.19 0 4.79 0.05 10.05 17.81 20.04 35.65 30.02 53.49-3.68-1.85-8.21-1.91-11.9-0.03-0.52 0.41-0.57-0.67-0.88-0.95-9.33-17.5-18.69-34.97-27.96-52.5 1.97-0.04 3.95-0.05 5.93-0.06zm26.79 0.01c2.02 0.01 4.08 0.01 6.07 0.05 8.31 15.85 16.57 31.74 24.81 47.63-2.15-0.05-4.33 0.33-6.24 1.35-0.48 0.23-0.96 0.48-1.42 0.75-8.66-16.56-17.31-33.17-25.93-49.77 0.9-0.01 1.81-0.01 2.71-0.01zm-64.81 0.02c1.2 0 2.41-0.01 3.61 0.04 10.37 18.07 20.64 36.21 30.95 54.31 1.89 3.33 3.78 6.65 5.64 9.99-7.67 5.62-16.4 9.68-25.54 12.2-5.08 1.38-10.33 2.3-15.52 2.37-6.3 0.07-12.59-0.78-18.54-2.93-0.31-0.17-0.85-0.21-1.01-0.49 0.43-1.75 1.46-3.32 1.8-5.09-0.02-0.87 0.52-1.64 0.73-2.47 0.73-2.11 1.22-4.55 0.1-6.62-0.93-1.83-2.61-3.08-4.05-4.47-0.39-0.48-0.45-1.18-0.13-1.7 3.5 1.11 7.17 1.49 10.79 2 1.17 0.07 2.38 0.48 3.55 0.17 1.09-0.45 1.88-1.94 1.09-2.99-0.95-1.18-2.64-1.13-4-1.33-3.55-0.47-7.15-0.88-10.56-2.04-0.32-0.16-0.83-0.28-1.01-0.54 1.4-2.11 3.02-4.31 3.16-6.93 0.05-0.91-0.1-1.83-0.41-2.68 1.72 0.41 3.44 1.14 5.26 0.94 1.96-0.1 3.75-1.42 4.43-3.26 0.69-1.61 0.79-3.56-0.2-5.07-1.28-2.17-4.27-3.34-6.57-2.12-1.05 0.45-1.71 1.82-1.05 2.85 0.6 1.01 1.91 1.2 2.97 0.99 0.57-0.1 1.38 0.26 1.19 0.96-0.17 0.58-0.48 1.3-1.06 1.55-1.4-0.01-2.68-0.74-4.07-0.89-1.8-0.26-3.72-0.5-5.49 0.1-1.23 0.78-2.79 1.08-4.19 0.6-0.9-0.36-1.87-0.95-2.26-1.88-0.15-1.12 0.68-2.08 1.26-2.97 3.64-4.84 8.52-8.61 12.07-13.52 1.48-2.07 2.47-4.47 2.93-6.97 0.36 1.06 1.36 1.71 2.13 2.46 4.62-0.61 9.52-0.33 13.74 1.8 1.15 0.55 2.1 1.41 3.09 2.18 0.82 0.56 2.02-0.24 1.78-1.21-0.7-2.12-2.34-3.82-4.17-5.04-4.14-2.66-9.34-3.25-14.14-2.56-0.78 0.11-1.68 0.23-2.2 0.91 0.47-3.52 0.49-7.07 0.57-10.61 4.45-0.02 8.89-0.04 13.33-0.04zm-7.99 15.29c-1.23 0.07-2.53 0.08-3.68 0.58-0.92 0.46-0.9 1.74-0.22 2.4 0.42 0.45 0.83 1.04 1.33 1.34 0.43-0.09 0.81-0.15 0.67 0.4 0.1 1.52 0.63 3.32 2.13 3.99 1.4 0.59 2.87-0.45 3.46-1.69 0.43-0.77 0.61-1.71 0.64-2.53 1.99 0.51 3.85 1.46 5.43 2.78 1.04 0.68 2.09 1.36 3.13 2.04-1.06-2.21-1.7-4.8-3.68-6.41-2.53-2.13-5.96-2.94-9.21-2.9zm-103.92 10.55c4.25 0.04 8.33 2.29 10.82 5.67 2.98 3.93 3.43 9.48 1.37 13.92-1.81 4.11-5.75 7.19-10.19 7.86-4.83 0.87-10-1.1-13.06-4.92-3.55-4.25-4.07-10.69-1.35-15.49 2.44-4.4 7.4-7.15 12.41-7.04zm226.72 9.86c3.46 0.02 6.72 1.54 9.4 3.62 5.09 3.98 7.27 10.82 6.66 17.12-0.41 4.43-2.23 9-5.89 11.72-1.81 1.35-4.05 2.1-6.3 2.12-1.9 0.14-3.81 0.12-5.71-0.07-0.49-0.12-0.11-1.09-0.25-1.55-0.07-3.66-0.78-7.35-2.33-10.69 1.82 1.33 4.3 1.59 6.38 0.73 2.32-0.77 4.09-2.76 4.79-5.08 1.2-3.86 0.36-8.29-2.06-11.51-1.7-2.25-4.6-3.89-7.48-3.31-2.56 0.49-4.44 2.91-4.64 5.47-0.07 0.77-0.03 1.56 0.13 2.33-0.74-1.55-1.53-3.11-2.13-4.71 0.89-1.51 1.84-3.04 3.27-4.11 1.73-1.39 3.95-2.09 6.16-2.08zm-1.61 7.07c1.59 0.17 2.69 1.59 3.46 2.87 1.16 2.15 1.81 4.87 0.78 7.19-0.65 1.54-2.51 2.45-4.1 1.8-1.57-0.55-2.73-2.06-3.43-3.42 1.87 2.09 5.46 1.48 6.75-0.93 0.65-1.01 0.31-2.6-0.9-2.99-1.03-0.38-2.06 0.22-2.82 0.87-0.42 0-0.65-0.55-0.85-0.85-0.63-1.32-0.82-3.2 0.34-4.28 0.21-0.18 0.49-0.27 0.77-0.26zm-17.48 9.01c4.13 0.09 7.76 2.82 9.86 6.23 2.09 3.35 3.02 7.39 3.05 11.27 0.04 4.63-1.73 9.49-5.32 12.59-3.44 3.02-8.3 4.45-12.81 3.49-2.34-0.46-4.58-1.42-6.5-2.84 1.18-2.91 1.55-6.1 1.28-9.22 1.88 1.85 4.71 2.84 7.3 2.1 2.45-0.74 4.68-2.45 5.8-4.78 1.2-2.41 0.66-5.43-1.09-7.44-1.31-1.65-3.65-2.49-5.66-1.74-2.33 0.82-3.81 3.26-3.94 5.65-0.07 1.17 1.02 2.3 2.22 2.02 1.23-0.23 1.88-1.46 2.18-2.57 0.21-0.51 0.66-1.42 1.35-1.11 1.31 0.69 1.89 2.49 1.02 3.75-1.14 1.94-4.07 2.93-5.91 1.36-4.32-3.88-4.44-11.31-0.46-15.44 1.98-2.06 4.74-3.42 7.63-3.32zm-206.18 7.57c5.85 0.03 11.76-0.02 17.56 0.18 1.6 0.33 1.84 2.81 0.42 3.55-0.87 0.29-1.84 0.13-2.75 0.21-10.07 0.17-20.19 0.19-30.23 0.07-0.89-0.08-1.81 0.06-2.68-0.17-1.46-0.48-1.72-2.76-0.34-3.49 0.72-0.36 1.55-0.14 2.31-0.24 5.23-0.1 10.48-0.1 15.71-0.11zm-6.73 7.95h5.05 5.15c-0.07 0.52 0.13 1.3-0.1 1.66h-10.2c0.07-0.52-0.13-1.3 0.1-1.66zm159.52 0.69c0.56 0.99 1.12 1.98 1.69 2.97 0.64 1.13 1.28 2.26 1.91 3.41-3.78 2.43-7.82 4.51-11.92 6.36-8.46 3.78-17.42 6.36-26.48 8.02-3.51 0.65-7.03 1.15-10.55 1.53-3.13-2.59-6.18-5.33-9.16-8.05 4.34 0.81 8.77 1.1 13.17 0.8 9.84-0.65 19.5-3.37 28.45-7.48 4.52-2.1 8.87-4.6 12.89-7.56zm88.69 0.13c0.22 0.04 0.44 0.08 0.66 0.11h0.01c10.34 1.58 20.46 4.1 30.33 7.57 9.14 3.21 18.07 7.24 26.48 12.1 0.55 0.19 0.26 0.89 0.36 1.34 0.24 10.45 0.17 20.92 0.18 31.38-0.06 38.22-0.38 76.44-0.75 114.66-3.36 4.8-6.75 9.72-10.11 14.44-0.49-2.84-2.69-5-4.91-6.63-2.11-1.55-4.43-2.77-6.75-3.95 0-16.59 0-33.19-0.01-49.78 3.19-2.57 5.12-6.62 5.04-10.73-0.01-5.78-3.69-11.43-9.11-13.55-4.95-1.99-10.99-1.02-14.93 2.62-4.38 3.9-6.17 10.56-3.98 16.05 0.85 2.19 2.31 4.12 4.11 5.61v45.88c-1.85 1.04-2.88 3.04-3.67 4.93-0.77 2.04-1.4 4.32-0.8 6.49-2.06 2.46-3.83 5.48-3.75 8.79 0.02 0.67 0.15 1.35 0.37 1.98-2.17 2.23-3.1 5.58-2.32 8.6 0.15 0.77 0.56 1.53 0.76 2.22-2.11 2.25-3.67 5.27-3.33 8.43 0.36 3.53 2.69 6.48 5.22 8.8 1.77 1.62 3.72 3.02 5.74 4.3-23.58 6.27-47.15 12.57-70.85 18.34-1.93 0.47-3.87 0.93-5.8 1.4-0.53-1.42-1.93-2.24-3.32-2.63-1.67-0.58-3.36-1.13-5.07-1.57 3.6-5.78 7.41-11.42 11.11-17.13 15.76-24 31.58-47.95 47.85-71.6 5.21-7.5 10.41-15.04 16.02-22.24-3.39-3.52-6.55-7.25-9.46-11.18-7.74-10.43-14.47-21.58-20.91-32.82-10.74-18.84-20.51-38.22-29.88-57.75-0.18-0.39-0.35-0.77-0.52-1.16 2.27-1.1 4.3-2.68 6.1-4.45 0.25-0.27 0.5-0.54 0.73-0.83 4.64 3.46 10.88 4.45 16.44 2.93 5.86-1.52 11.11-5.8 13.17-11.57 0.36-1.01 0.63-2.05 0.8-3.11 4.46 0.24 9.16 0.3 13.32-1.59 2.21-1.01 4.09-2.68 5.43-4.7zm-155.18 4.92l-0.08 0.2c-2.86 7.29-6.14 14.39-9.39 21.52-9.61 20.9-20.46 41.22-32.11 61.08-7.14 12.12-14.59 24.06-22.73 35.55 8.01 8.87 14.91 18.66 21.49 28.59 10.93 16.66 20.8 33.98 29.9 51.72 3.77 7.39 7.38 14.85 10.82 22.41-4.12 0.98-8.12 3.09-10.76 6.47-4.39-3.16-10.1-4.45-15.4-3.3-6.01 1.21-11.32 5.47-13.73 11.11-0.56 1.27-0.98 2.6-1.27 3.95-4.38-0.31-8.97-0.31-13.09 1.44-1.27 0.56-2.46 1.32-3.41 2.34-19.31-3.37-38.19-9.66-55.31-19.22-0.7-0.41-1.46-0.79-2.11-1.23-0.24-5.45-0.19-10.91-0.26-16.37-0.19-35.72-0.12-71.44 0.03-107.17 0.06-14.57 0.17-29.15 0.34-43.73 3.01-4.1 6.53-7.9 10.25-11.26 0.57-0.52 1.23-1.1 1.78-1.56-1.65 1.93-2.73 4.37-3 6.89-0.23 2.12 0.33 4.26 1.35 6.11-1.3 2.63-2.8 5.47-2.41 8.51 0.33 2.71 2.34 4.82 4.45 6.36 2.35 1.72 4.95 3.04 7.54 4.34 0 16.41-0.01 32.82-0.01 49.24-3.39 2.41-5.39 6.51-5.39 10.65-0.1 5.7 3.26 11.42 8.51 13.78 4.27 1.98 9.56 1.73 13.51-0.91 5.29-3.39 8.1-10.35 6.29-16.43-0.69-2.4-2.1-4.57-3.93-6.27 0-15.55 0-31.11 0.01-46.66 1.78-1.23 2.69-3.31 3.4-5.28 0.59-1.86 1.04-3.9 0.54-5.83 2.02-2.44 3.71-5.4 3.77-8.64 0-0.73-0.11-1.46-0.39-2.14 2.48-2.49 3.24-6.43 1.99-9.69-0.14-0.36-0.29-0.72-0.47-1.07 2.39-2.65 3.54-6.35 3.19-9.89-0.16-1.87-1.09-3.57-2.37-4.91-2.29-2.52-5.05-4.55-7.89-6.41 8.24-4.02 16.68-7.6 25.32-10.7 11.98-4.31 24.2-8 36.65-10.88 4.75-1.07 9.58-2.08 14.38-2.71zm-93.13 0.62h5.15 5.15v2.38h-10.3v-2.38zm95.55 5.94c0.05 0 0.11 0.01 0.17 0.04l0.07 0.03c0.61 0.22 1.24 0.46 1.6 1.05 0.81 0.99 1.82 1.8 2.74 2.69 0.7 0.72 0.2 1.78-0.48 2.32-1.5 1.33-3.51 1.77-5.32 2.51 1.53 1.72 3.15 3.49 3.77 5.77 0.98 3.1 0 6.63-2.3 8.9-1.61 1.69-3.77 2.7-5.97 3.38-0.93 0.24-1.39 1.48-0.68 2.19 0.85 0.77 1.91 1.34 2.48 2.38 1.62 2.63 0.9 6.09-0.87 8.45-1.51 2.1-3.99 3.43-6.57 3.53-0.83 0.09-1.65 0.17-2.48 0.26 1.7 2.62 3.65 5.22 4.25 8.36 0.7 3.07-0.18 6.47-2.43 8.7-2.94 2.99-7.18 4.16-11.24 4.57-0.61 0.1-1.37 0.1-1.82 0.53-0.27 0.59-0.2 1.28 0.29 1.73 1.07 1.15 2.2 2.33 2.57 3.91 0.89 3.45-0.52 7.06-2.64 9.77-2.44 3.11-6.27 5.32-10.31 5.13-0.83-0.07-1.94 0.22-2 1.22-0.05 1.09 1.13 1.6 1.74 2.34 2.47 2.46 4.74 5.5 5.08 9.08 0.27 2.39-0.99 4.8-3.06 6.01-2.88 1.8-6.41 1.86-9.7 1.8-0.59 0-1.17 0.01-1.75 0.01-0.23 1.23-0.44 2.47-0.64 3.71 2.96 1.08 6.19 1.94 8.53 4.18 1.02 0.94 1.45 2.49 0.82 3.77-1.08 2.34-3.2 3.97-5.22 5.48-1.1 0.78-2.23 1.52-3.34 2.29 0.65 1.04 1.29 2.09 1.94 3.13 1.22-0.26 2.46-0.1 3.63 0.27 2.52 0.74 5.07 1.9 6.81 3.92 1.13 1.29 1.33 3.18 0.69 4.75-0.81 2.12-2.41 3.79-3.68 5.63 3.59 0.17 7.35 0.03 10.69 1.57 2.85 1.21 5.08 3.68 6.07 6.6 1 2.83 1.39 6.19-0.21 8.88-0.44 0.92-1.55 1.46-1.66 2.53-0.07 0.9 0.91 1.44 1.72 1.3 2.22-0.16 4.54-0.35 6.62 0.64 1.49 0.66 2.17 2.36 1.99 3.9-0.21 2.54-1.49 4.84-2.68 6.98-0.52 0.88 0.37 2.07 1.36 1.76 3.33-1 7.26-1.09 10.18 1.04 2.5 1.75 3.5 5.05 2.9 7.97-0.46 2.7-2.02 5.04-3.66 7.17-0.54 0.58-0.72 1.62 0.04 2.11 0.91 0.53 1.85-0.27 2.73-0.47 2.42-0.99 5.39-1.43 7.76-0.03 2.46 1.42 4.53 4.05 4.34 7-0.13 2.55-1.7 4.7-3.4 6.47-0.68 0.76-0.12 2.03 0.87 2.11 1.72 0.15 3.54 0.36 4.93 1.47 1.84 1.37 2.31 3.92 1.8 6.05-0.34 1.59-1.1 3.19-2.02 4.44-1.99-2.92-4.85-5.13-7.86-6.92-1.8-1.03-3.74-1.91-5.81-2.21-2.12-3.34-4.52-6.53-6.15-10.17-10.04-21.07-21.31-41.58-33.93-61.22-6.98-10.81-14.39-21.37-22.65-31.25 3.52-5.21 7.03-10.42 10.39-15.73 13.65-21.53 25.95-43.9 37.16-66.79 4.51-9.25 8.77-18.61 13.17-27.91 0.24-0.28 0.28-1.07 0.63-1.08zm70.75 0.09c2.11 3.45 4.49 6.83 7.63 9.43-10.21 6.61-21.39 11.48-33.11 14.69-2.87 0.79-5.81 1.5-8.74 2.12-3.92-3.4-7.88-6.77-11.77-10.21 12.07-1.66 23.9-5.05 34.99-10.1 3.79-1.73 7.47-3.73 11-5.93zm-166.3 0.21h5.15 5.15v2.49h-10.3v-2.49zm104.05 7.05c0.2 0.17 0.4 0.35 0.59 0.53 15.35 13.79 31.02 27.24 47.06 40.22 1.95 1.57 3.92 3.14 5.89 4.69-0.63 0.65-1.25 1.31-1.89 1.95-9.93-7.82-19.64-15.92-29.29-24.07-8.16-6.91-16.24-13.92-24.28-20.98 0.84-0.58 1.57-1.37 1.92-2.34zm-104.05 0.15h5.15 5.15c0 2.14 0.01 4.28-0.01 6.42-3.32-1.73-6.72-3.35-10.29-4.51v-1.91zm-4.83 5.16c2.64 0.21 5.11 1.29 7.53 2.29 5.31 2.36 10.44 5.25 15.15 8.73 1.59 1.25 3.28 2.51 4.43 4.22 1.05 2.09 0.62 4.66-0.42 6.67-0.22 0.41-0.48 0.79-0.77 1.14-6.15-4.24-12.66-7.97-19.43-11.12-2.43-1.11-4.96-2.13-7.55-2.75-1.63-2.23-1.95-5.42-0.47-7.81 0.32-0.46 0.6-1.04 1.07-1.35 0.16-0.02 0.31-0.02 0.46-0.02zm184.76 0.16l0.09 0.03 0.04 0.01c2.65 0.7 5.48 0.81 8.17 0.24 10.89 22.76 22.3 45.31 35.12 67.06 5.93 9.95 12.09 19.81 19.23 28.96 1.59 2.02 3.25 4 4.99 5.89-8.08 10.85-15.66 22.05-23.27 33.22-11.87 17.52-23.55 35.17-35.17 52.85-2.14-3.05-4.75-5.86-5.95-9.44-0.67-2.23-0.75-4.7-0.01-6.92 0.67-2.06 2.53-3.57 4.62-4.01 2.12-0.54 4.33-0.21 6.44 0.13 0.99 0.15 1.81-0.97 1.34-1.87-0.93-1.74-1.93-3.48-2.46-5.41-0.65-2.25-0.89-4.97 0.64-6.94 1.44-1.8 3.93-2.13 6.08-1.98 1.41 0.04 2.81 0.08 4.22 0.13-1.13-1.39-2.5-2.6-3.45-4.13-1.44-2.55-1.06-5.67-0.21-8.35 0.92-3.01 3.14-5.59 6.02-6.87 2.55-1.2 5.37-1.44 8.16-1.52 0.66 0.04 1.24-0.26 1.62-0.79 0.23-0.31-0.17-0.81-0.33-1.16-1.24-1.8-2.83-3.71-2.68-6.04 0.26-2.07 1.99-3.57 3.68-4.61 1.97-1.15 4.16-2.11 6.48-2.23 0.79 0.15 1.64-0.2 2.02-0.93 0.42-0.7 0.82-1.41 1.23-2.12-2.89-1.94-5.99-3.78-7.96-6.73-0.85-1.22-1.17-2.97-0.19-4.21 1.47-1.91 3.81-2.86 6-3.68 0.94-0.32 1.98-0.65 2.98-0.99-0.17-1.23-0.37-2.47-0.65-3.69-3.29-0.08-6.7 0.17-9.82-1.13-2.35-0.89-4.43-2.92-4.67-5.52-0.32-3.3 1.49-6.35 3.58-8.75 0.88-1.1 2.02-1.95 2.96-2.99 0.62-0.75 0.07-1.96-0.88-2.06-1.54-0.17-3.11-0.07-4.59-0.58-4.74-1.46-8.47-5.75-9.31-10.63-0.46-2.54 0.28-5.31 2.18-7.12 0.74-0.82 1.48-1.65 2.23-2.47-3.2-0.34-6.43-0.5-9.46-1.71-3.28-1.23-6.36-3.67-7.33-7.16-1.04-3.63 0.33-7.46 2.38-10.46 0.41-0.68 1.17-1.48 0.67-2.3-0.22-0.58-1.02-0.53-1.55-0.62-2.57-0.09-5.03-1.49-6.49-3.61-1.71-2.38-2.4-5.82-0.78-8.42 0.61-1.13 1.86-1.62 2.66-2.58 0.53-0.71 0.03-1.79-0.84-1.9-2.97-0.88-5.82-2.61-7.44-5.32-1.31-2.12-1.69-4.95-0.84-7.37 0.14-0.41 0.31-0.81 0.5-1.2zm-77.3 2.93c0.45 0.39 0.9 0.79 1.35 1.18 14.97 13.06 30.12 25.9 45.6 38.34 1.04 0.83 2.08 1.66 3.12 2.5-4.96 5.09-10 10.11-14.99 15.17-5.76-4.7-11.44-9.45-16.96-14.45-6.53-5.91-13.06-11.84-19.3-18.06-0.34-0.37-0.83-0.68-0.71-1.26-0.08-0.93-0.21-2.12-0.24-2.9 0.75 2.03 3.19 3.19 5.24 2.49 2.19-0.61 3.62-3.11 2.94-5.29-0.51-2.03-2.63-3.45-4.7-3.14-1.83 0.15-3.41 1.65-3.71 3.46-0.24-2.77-0.49-5.55-0.73-8.32 2.19-2.71 3.35-6.24 3.09-9.72zm72.16 0.46l-0.01 0.07h0.01c-0.16 4.9 2.58 9.72 6.7 12.27-5.89 6.14-11.93 12.13-17.89 18.2-1.01 1.02-2.01 2.03-3.02 3.05-1.53-1.24-3.14-2.44-4.61-3.7 3.97-6.71 8-13.4 11.86-20.18 1.63-2.79 3.15-5.64 4.85-8.39 0.69-0.46 1.4-0.88 2.11-1.32zm-9.14 5.07c-0.16 0.29-0.32 0.57-0.49 0.86-4.11 7.11-8.27 14.24-12.54 21.26-0.93-0.72-1.85-1.44-2.76-2.19 3.04-5.25 6.19-10.43 9.23-15.68 0.39-0.55 0.6-1.3 1.13-1.71 1.83-0.8 3.64-1.65 5.43-2.54zm-173.41 4.46c2.15 0.3 4.14 1.26 6.13 2.06 5.93 2.61 11.75 5.62 17.25 9.11 1.65 1.16 3.59 2.2 4.57 4.06 0.93 1.76 0.59 4.02-0.65 5.54-3.06-1.83-6.59-2.63-9.8-4.14-4.87-2.26-9.87-4.25-14.6-6.75-1.49-0.81-3.06-1.82-3.62-3.52-0.68-1.87-0.8-4.08 0.13-5.89 0.14-0.19 0.32-0.5 0.59-0.47zm161.44 0.72c-0.11 0.18-0.21 0.36-0.31 0.54-2.26 3.82-4.52 7.65-6.82 11.46-2.9-2.38-5.78-4.79-8.65-7.21 5.34-1.32 10.62-2.9 15.78-4.79zm-58.11 2.37c0.02 0.27 0.05 0.54 0.08 0.82-0.09-0.31-0.61-0.69-0.08-0.82zm22.23 2.41c-2.58 0.01-4.76 2.71-4.14 5.23 0.47 2.24 2.91 3.98 5.18 3.34 1.88-0.42 3.4-2.14 3.42-4.09 0.15-2.43-2.05-4.57-4.46-4.48zm63.12 3.93l0.01 0.04h-0.01c0.36 3.62 2.12 7.06 4.71 9.59 0.92 0.87 2 1.62 3.22 1.98-0.71 1.62-1.22 3.32-1.49 5.07-9.43 9.66-18.83 19.33-28.27 28.99 1.68 1.73 3.44 3.5 4.29 5.81 1.27 3.11 0.8 6.79-1.05 9.57-0.86 1.38-2.06 2.48-3.16 3.65 4.06 6.2 8.13 12.4 12.2 18.59-15.83 16.08-31.7 32.13-47.53 48.2-7.61 7.69-15.15 15.43-22.82 23.04 1.34-3.8 0.89-8.3-1.6-11.55-1.43-1.92-3.49-3.35-5.76-4.11 8.88-9.11 17.76-18.22 26.63-27.33-1.63-1.7-3.33-3.45-4.19-5.7-1.31-3.11-0.91-6.83 0.95-9.64 0.72-1.25 1.89-2.17 2.68-3.36 0.49-0.92-0.47-1.69-0.86-2.44-3.6-5.51-7.21-11-10.82-16.5 17-17.31 34.09-34.54 51.12-51.83 7.25-7.36 14.5-14.71 21.75-22.07zm-84.58 2.05c0.11 1.14 0.21 2.29 0.31 3.43 1.3 14.96 2.67 29.9 3.75 44.88 0.72 10.64 1.4 21.3 1.03 31.97-0.28 6.12-0.81 12.36-3.11 18.09-1.51 3.78-4.09 7.11-7.38 9.47-2.34 1.71-4.81 2.98-7.47 4.16-0.43 0.31-0.28-0.65-0.47-0.86-0.24-0.95-0.54-1.93-0.7-2.87 3.65-2 7.6-3.79 10.36-7.02 3.16-3.75 4.4-8.67 5.1-13.41 1.08-7.94 0.91-15.99 0.61-23.98-0.72-16.07-2.41-32.08-4.17-48.06-0.34-3.2-0.78-6.42-1.06-9.6 1.54-1.77 2.66-3.91 3.2-6.2zm-104.93 1.38c1.32 0.34 2.44 1.19 3.68 1.73 4.71 2.27 9.53 4.33 14.3 6.47 2.78 1.21 5.76 1.92 8.31 3.59 0.89 0.46 0.87 1.56 0.72 2.41-0.33 1.66-1.22 3.24-2.31 4.47-2.45-1.04-5.15-1.24-7.68-2.01-2.95-0.85-5.87-1.86-8.72-2.98-0.68-0.75-1.73-1.04-2.69-1.12-2.25-0.97-4.41-2.16-6.41-3.58-1.38-1.46-1.68-3.71-1.05-5.58 0.41-1.19 0.91-2.42 1.75-3.38 0.02-0.02 0.06-0.03 0.1-0.02zm129.46 7.04c-2.01-0.07-3.94 1.41-4.32 3.4-0.48 1.96 0.65 4.1 2.5 4.88 2.12 1.04 4.9-0.13 5.76-2.3 1-2.26-0.37-5.21-2.78-5.83-0.38-0.1-0.77-0.15-1.16-0.15zm-19.51 0.59l0.07 0.07 0.06 0.06c10.67 10.33 21.74 20.25 33.28 29.6-0.5 0.52-1.01 1.02-1.52 1.53-9.77-8.38-19.47-16.84-28.94-25.57-0.9-0.86-1.84-1.7-2.69-2.63-0.08-1.02-0.17-2.04-0.26-3.06zm-12.16 0.15c0.04 0.01 0.06 0.06 0.04 0.17 0.1 0.87 0.23 1.88 0.31 2.67-0.26-0.88-0.6-1.75-0.99-2.58 0.14 0.01 0.5-0.29 0.64-0.26zm44.86 0.21c-2.26-0.01-4.28 2.05-4.2 4.32-0.03 2.19 1.79 4.24 4 4.34 2.48 0.21 4.87-2.02 4.7-4.52-0.11-2.32-2.17-4.23-4.5-4.14zm-144.52 5.43l0.08 0.04 0.04 0.03c4.61 2.71 9.63 4.66 14.69 6.34 2.67 0.89 5.41 1.51 8.16 2.11 0.83 0.26 1.85 0.38 2.42 1.1 0.21 1.1-0.28 2.2-0.54 3.26-0.43 1.22-0.84 2.72-2.08 3.36-1.37 0.3-2.79-0.11-4.14-0.35-4.35-1.02-8.57-2.56-12.52-4.63-2.44-1.38-4.97-2.78-6.8-4.95-0.63-0.78-1.11-1.85-0.65-2.83 0.36-1.19 0.81-2.36 1.34-3.48zm100.65 3.06c0.06 0.52 0.12 1.04 0.17 1.56 1.63 15.19 3.21 30.38 3.89 45.64 0.27 7.15 0.43 14.32-0.53 21.43-0.65 4.43-1.78 9.07-4.86 12.48-2.05 2.32-4.92 3.63-7.62 5.03-0.32-1.33-0.64-2.66-0.97-3.99 3.12-1.37 5.7-3.83 7.27-6.84 2.43-4.63 3.14-9.91 3.53-15.05 0.6-9.36-0.05-18.74-0.83-28.07-0.72-8.28-1.66-16.53-2.67-24.78 1.54-2.16 2.45-4.76 2.62-7.41zm12.01 0.61l0.04 0.03c9.2 8.38 18.48 16.67 27.97 24.72-0.05 0.34-0.65 0.71-0.91 1.06-7.85 7.96-15.71 15.94-23.59 23.88-0.24-9.36-1-18.69-1.7-28.02-0.57-7.23-1.2-14.46-1.81-21.67zm85.43 1.91l0.02 0.09 0.02 0.08c0.82 3.52 3.29 6.49 6.36 8.33 0.91 0.58 1.89 1.04 2.86 1.5 0.63 1.86 1.13 3.8 1.54 5.7-5.05 2.08-10.29 3.87-14.83 6.97-2.56 1.73-4.58 4.24-5.66 7.15-2.24 5.68-2.43 11.88-2.36 17.91 0.06 4.28 0.28 8.55 0.54 12.83-3.78-5.99-7.72-11.86-11.58-17.79 3-3.59 4.44-8.53 3.42-13.14-0.5-2.31-1.58-4.48-3.07-6.3 7.58-7.78 15.16-15.56 22.74-23.33zm-48.7 3.34c-2.46-0.01-4.62 2.38-4.27 4.83 0.24 2.55 3.05 4.52 5.52 3.71 2.09-0.6 3.54-2.89 3.06-5.03-0.35-2.03-2.26-3.56-4.31-3.51zm-55.18 5.02c0.03 0.22 0.06 0.44 0.08 0.65 1.47 12.33 2.87 24.7 3.26 37.09 0.14 6.24 0.14 12.58-1.15 18.72-0.8 3.63-2.18 7.43-5.25 9.75-0.44 0.32-0.95 0.68-1.43 0.88-0.37-1.45-0.79-2.95-1.06-4.39 2.22-1.92 3.15-4.85 3.84-7.61 1.33-5.98 1.42-12.14 1.34-18.23-0.25-11.75-1.65-23.45-3.25-35.06 1.26-0.5 2.48-1.08 3.62-1.8zm-83.75 3.88l0.07 0.02c3.33 1.18 6.74 2.17 10.23 2.7-0.01 14.22 0.03 28.45-0.06 42.67-3.24-1.26-6.95-1.23-10.22-0.06-0.03-15.11-0.01-30.22-0.02-45.33zm199.44 7.6c0.06 0.22 0.11 0.43 0.16 0.65 0.24 1.08 0.6 2.23 0.74 3.28-3.69 1.66-7.86 2.28-11.19 4.72-2.38 1.7-3.67 4.46-4.41 7.21-1.21 4.53-1.3 9.26-1.36 13.92 0.02 11.12 1.01 22.22 2.03 33.3 0.85 9.05 1.92 18.08 2.9 27.11 0.25 2.06 0.09 4.14 0.59 6.19 0.15 0.8 0.45 1.66 0.63 2.39-1.49 0.06-2.98 0.35-4.37 0.89-1.55-18.34-3.32-36.67-4.59-55.02-0.48-7.77-0.98-15.52-0.54-23.3 0.26-3.62 0.67-7.21 2.22-10.51 1.3-2.86 3.81-4.96 6.57-6.35 3.42-1.77 7.06-3.05 10.62-4.48zm-122.24 0.46l0.12 0.96c1.13 9.7 1.95 19.48 1.86 29.25-0.1 4.54-0.25 9.2-1.48 13.62-0.2 0.66-0.44 1.31-0.75 1.92-0.72-2.97-1.45-5.94-2.17-8.9 1.09-4.91 0.86-9.97 0.57-14.95-0.36-5.27-1.04-10.5-1.83-15.72 1.59-1.81 2.9-3.89 3.68-6.18zm74.39 6.54c-3.63-0.02-7.1 2.75-7.72 6.36-0.6 3.17 0.99 6.57 3.77 8.17 2.72 1.65 6.47 1.38 8.86-0.75 2.62-2.19 3.64-6.18 2.11-9.29-1.26-2.65-4.04-4.55-7.02-4.49zm49.81 1.04l0.42 1.7c0.19 0.79 0.39 1.57 0.57 2.36-3.38 1.42-6.15 4.13-7.75 7.42-2.37 4.8-2.98 10.22-3.3 15.49-0.44 9.52 0.33 19.05 1.2 28.53 0.63 6.64 1.46 13.29 2.22 19.88-1 0.36-1.99 0.82-2.79 1.53-1.68-15.28-3.39-30.6-4.17-45.93-0.25-5.89-0.44-11.77 0.22-17.66 0.39-2.84 0.87-6 2.71-8.38 1.7-2.05 4.45-2.65 6.83-3.52 1.29-0.45 2.58-0.9 3.84-1.42zm4.45 0.46c0.05 0.04 0.1 0.08 0.15 0.13 1.73 1.45 3.64 2.73 5.77 3.52-1.58 2.03-2.81 4.38-3.34 6.91l-2.58-10.56zm-136.08 1.49l0.06 0.46c0.52 3.96 1.01 7.92 1.29 11.89-0.95-3.8-1.88-7.62-2.79-11.43 0.49-0.28 0.97-0.6 1.44-0.92zm204.56 1.18c4.83-0.11 9.38 3.71 10.12 8.49 0.78 4.35-1.59 9.07-5.62 10.94-3.34 1.66-7.55 1.26-10.51-0.99-3.14-2.27-4.83-6.4-3.98-10.21 0.68-3.77 3.7-6.96 7.41-7.88 0.84-0.22 1.71-0.34 2.58-0.35zm-122.76 0.02c1.9 0 3.57 1.68 3.54 3.58 0.12 2.19-2.16 4.04-4.28 3.52-2.06-0.38-3.49-2.8-2.61-4.76 0.53-1.34 1.88-2.38 3.35-2.34zm51.84 5.16c0.09 0.03 0.14 0.14 0.13 0.4l0.06 0.25c0.28 1.24 0.65 2.51 0.85 3.72-2.48 1.62-3.65 4.52-4.43 7.26-1.46 5.52-1.6 11.28-1.5 16.95 0.17 7.36 0.98 14.68 2.05 21.96-1.18 1.19-2.21 2.52-3.02 3.98-1.11-10.43-2.14-20.94-2.09-31.41 0.06-4.77 0.3-9.67 1.59-14.36 0.91-3.33 2.65-6.67 5.74-8.46 0.21-0.13 0.47-0.33 0.62-0.29zm-63.51 7.13c-0.21 0-0.41 0.07-0.56 0.26-2.01 1.85-3.86 3.9-5.78 5.86-1.62 1.72-3.31 3.38-4.85 5.17-0.34 0.48-0.24 1.05 0.14 1.48 3.17 4.2 6.38 8.38 9.7 12.48 0.38 0.46 0.85 0.62 1.36 0.25 1.18-0.93 2.15-2.12 3.23-3.16 2.53-2.61 5.11-5.17 7.54-7.87 0.5-0.57 0.12-1.3-0.3-1.79-3.12-4.12-6.26-8.22-9.52-12.23-0.24-0.24-0.62-0.45-0.96-0.45zm65.74 1.85l0.42 1.73c0.61 2.53 1.23 5.05 1.84 7.58-1.01 3.91-0.94 7.99-0.85 11.99 0.18 5.43 0.81 10.82 1.53 16.2-1.43 0.32-2.83 0.78-4.16 1.42-1.1-8.62-1.91-17.22-1.59-25.89 0.21-3.89 0.5-7.88 1.96-11.53 0.23-0.52 0.48-1.05 0.85-1.5zm-137.66 1.88l6.48 26.55c1.16 4.75 2.34 9.54 3.49 14.27-1.1-1.31-2.41-2.46-3.93-3.26-2.87-11.49-5.74-22.97-8.61-34.45 0.96-0.94 1.92-1.92 2.57-3.11zm142.89 1.83c1.71 1.94 4.08 3.21 6.57 3.85-2.08 1.49-3.86 3.75-3.92 6.4-0.03 0.17 0.05 0.86-0.04 0.45-0.87-3.56-1.75-7.16-2.61-10.7zm-71.11 0.24c0.12 0.16 0.25 0.31 0.37 0.47 1.9 2.42 3.79 4.85 5.63 7.31-1.99 2.13-4.05 4.22-6.09 6.29-2.05-2.57-4.04-5.14-6.01-7.77 2.02-2.12 4.05-4.22 6.1-6.3zm-78.16 3.16l0.02 0.09 0.02 0.03h-0.01c0.2 0.79 0.4 1.57 0.6 2.36-0.57-0.78-1.47-1.49-2.09-2.04 0.49-0.13 0.98-0.27 1.46-0.44zm218.31 2.3v0.2c0.03 15.17-0.02 30.34-0.03 45.5-3.32-1.19-6.71-2.25-10.2-2.84-0.24-0.36-0.03-1.13-0.1-1.64 0-13.51-0.08-27.05 0-40.54-0.17-0.59 0.25-0.32 0.58-0.21 2.08 0.64 4.31 0.64 6.45 0.42 1.13-0.15 2.25-0.45 3.3-0.89zm-174.09 1.17c0.83 1.26 1.66 2.53 2.49 3.79 2.19 3.34 4.38 6.68 6.57 10.01-2.88 3.38-4.34 8.02-3.54 12.43 0.44 2.56 1.59 4.98 3.19 7.02-8.5 8.7-16.96 17.44-25.49 26.09 0.89-2.91 0.94-6.36-0.96-8.9-0.44-0.64-1.07-1.14-1.64-1.64-0.85-2.86-1.47-5.77-2.2-8.67 5.34-2.15 10.63-5.02 14.25-9.62 3.77-4.74 5.39-10.76 6.26-16.65 0.67-4.59 0.93-9.23 1.07-13.86zm-42.06 5.12l0.12 0.48c1.06 4.22 2.12 8.45 3.17 12.68-1.11-1.79-2.8-3.12-4.56-4.2-0.24-1.53-0.71-3.02-0.98-4.54 1.05-1.29 1.92-2.77 2.25-4.42zm-58.7 0.04c3.78-0.04 7.48 2.2 9.13 5.61 2.05 3.96 1.03 9.16-2.24 12.15-3.41 3.26-9.18 3.58-12.91 0.68-3.53-2.56-5.21-7.5-3.66-11.63 1.21-3.47 4.38-6.17 8.03-6.69 0.55-0.08 1.1-0.12 1.65-0.12zm171.12 1.12c0.07 0.02 0.08 0.16 0.06 0.47 0.01 0.19 0.03 0.38 0.04 0.57 1.23 18.17 2.93 36.3 4.49 54.44-9.82-9.09-19.81-18-29.98-26.69-0.53-0.46-1.06-0.92-1.59-1.39 8.78-9.14 17.8-18.04 26.66-27.09 0.16-0.21 0.26-0.32 0.32-0.31zm37.97 0.29l0.04 0.08 0.01 0.01h-0.01c1.02 2.29 2.8 4.13 4.7 5.72-1.03 0.35-2.04 0.75-3.01 1.24-0.58-2.35-1.15-4.7-1.73-7.05zm-2.79 6.25c0.06 0.27 0.13 0.54 0.2 0.81 0.2 0.86 0.45 1.74 0.57 2.63-0.18 0.09-0.46 0.54-0.52 0.4-0.11-1.28-0.19-2.56-0.25-3.84zm-82.97 2.37c-2.8-0.03-5.5 1.67-6.74 4.18-1.66 3.1-0.84 7.24 1.83 9.5 2.38 2.13 6.12 2.51 8.87 0.87 2.8-1.55 4.42-4.92 3.88-8.07-0.4-3-2.82-5.51-5.73-6.22-0.69-0.18-1.4-0.27-2.11-0.26zm0.27 4.19c1.93 0.02 3.62 1.83 3.42 3.77-0.06 1.9-1.82 3.56-3.74 3.41-2.22-0.1-4-2.58-3.19-4.71 0.48-1.48 1.96-2.53 3.51-2.47zm-60.23 4.55l0.06 0.24c0.23 0.93 0.45 1.87 0.67 2.8-0.46-0.11-1-0.18-1.42-0.3 0.36-0.87 0.6-1.8 0.69-2.74zm77.74 12.77l0.07 0.06 0.06 0.04c11.68 9.89 23.07 20.11 34.28 30.52-0.43 0.62-0.79 1.28-1.11 1.96-9.81-9.41-19.83-18.62-30.25-27.36-1.51-1.25-3.02-2.5-4.56-3.71 0.5-0.51 1-1.02 1.51-1.51zm-4.44 4.56c0.02 0 0.04 0.01 0.08 0.07 12.74 10.29 24.88 21.37 36.6 32.84 0.04 1.08 0.08 2.16 0.26 3.24-0.96-1.8-3.26-2.64-5.16-1.95-2.32 0.72-3.56 3.57-2.61 5.78 0.38 0.98 1.18 1.78 2.11 2.23-2.57 1.74-4.06 4.89-3.78 7.98 0.14 0.58-0.13 0.33-0.43 0.04-13.82-11.95-27.82-23.7-42.1-35.09 5-5.01 9.91-10.11 14.95-15.07 0.03-0.03 0.05-0.06 0.08-0.07zm-1.34 3.31c-2.31-0.04-4.38 2.06-4.29 4.37-0.02 2.11 1.67 4.08 3.78 4.29 2.3 0.34 4.58-1.5 4.83-3.79 0.33-2.01-1-4.09-2.95-4.66-0.44-0.14-0.9-0.22-1.37-0.21zm127.94 1.24c2.56 0.2 4.97 1.03 7.42 1.75 5.12 1.63 10.12 3.99 14.19 7.58 0.96 0.86 1.79 2.13 1.38 3.47-0.34 1.23-0.98 2.36-1.53 3.51-5.11-2.97-10.64-5.14-16.28-6.85-2.4-0.76-4.88-1.18-7.3-1.82-0.63-0.25-1.61-0.37-1.78-1.14 0.01-1.46 0.56-2.85 1.02-4.22 0.36-0.99 0.98-2.21 2.2-2.26 0.22-0.02 0.45-0.03 0.68-0.02zm-186.73 1.19c0.01 0.01 0.01 0.03 0 0.09-0.09 0.04-0.03-0.11 0-0.09zm181.68 9.91c2.43 1.04 5.11 1.23 7.61 2.02 3.1 0.91 6.22 1.82 9.2 3.13 0.72 0.72 1.76 1.02 2.73 1.17 2.1 0.97 4.11 2.02 6.02 3.32 1.37 1.74 1.72 4.22 0.81 6.25-0.42 1-0.85 2.1-1.68 2.84-1.53-0.51-2.86-1.5-4.35-2.13-5.22-2.45-10.47-4.85-15.82-7.01-2.09-0.82-4.35-1.44-6.21-2.76-1.02-0.78-0.66-2.23-0.34-3.28 0.44-1.3 1.15-2.51 2.03-3.55zm-118.08 2.01c-2.15 0.01-4.15 1.76-4.3 3.93-0.26 2.1 1.26 4.19 3.31 4.66 2.21 0.61 4.68-0.93 5.18-3.15 0.58-2.13-0.69-4.59-2.83-5.23-0.44-0.15-0.9-0.22-1.36-0.21zm-21.49 0.47l2.83 2.27c14.29 11.46 28.3 23.29 42.15 35.31-0.93 0.42-1.82 0.95-2.6 1.61-12.71-11.27-25.68-22.24-38.88-32.92-1.8-1.43-3.59-2.89-5.42-4.28 0.65-0.66 1.28-1.32 1.92-1.99zm34.9 0.53c-1.92-0.06-3.74 1.34-4.16 3.22-0.57 1.99 0.48 4.32 2.43 5.1 2.18 0.98 5.09-0.24 5.83-2.53 0.83-2.13-0.36-4.77-2.52-5.52-0.5-0.19-1.04-0.28-1.58-0.27zm-39.79 4.48l0.08 0.05 0.07 0.06c1.51 1.16 3.01 2.33 4.5 3.52-3.11 5.33-6.34 10.58-9.41 15.94-0.54 0.94-1.09 1.89-1.64 2.84-0.8-3.82-3.78-6.82-7.21-8.47 4.45-4.71 8.98-9.38 13.61-13.94zm141.06 3.26l0.05 0.04c3.25 1.9 6.98 2.72 10.34 4.38 4.04 1.85 8.14 3.57 12.13 5.53 1.26 0.69 2.57 1.31 3.78 2.07 1.57 1.45 2.14 3.69 2.25 5.76-0.02 1 0 2.28-0.88 2.95-0.64 0.26-1.35-0.11-1.99-0.23-4.21-1.38-8.16-3.39-12.11-5.4-4.34-2.3-8.71-4.66-12.66-7.62-2.31-1.67-2.74-5.3-0.91-7.48zm-133.09 3.07c0.94 0.74 1.87 1.5 2.8 2.26-4.92 8.19-9.79 16.48-14.48 24.76-0.74-0.97-1.67-1.79-2.71-2.42 4.7-8.25 9.5-16.47 14.39-24.6zm34.71 3.52c-2.01-0.02-3.93 1.51-4.23 3.52-0.48 2.27 1.14 4.75 3.45 5.11 2.26 0.4 4.66-1.22 5.05-3.49 0.5-2.41-1.43-4.99-3.9-5.13-0.12-0.01-0.25-0.01-0.37-0.01zm-28.63 1.45l0.08 0.06 0.07 0.06c2.82 2.3 5.69 4.72 8.5 7.09-5.35 1.3-10.62 2.93-15.79 4.83 2.36-4.02 4.74-8.04 7.14-12.04zm125.48 2.77l0.05 0.04c5.2 3.74 10.83 6.83 16.54 9.7 3.14 1.51 6.29 3.08 9.66 3.99 0.33 0.14 0.84 0 0.91 0.48 1.15 1.81 1.65 4.11 0.9 6.17-0.34 0.94-0.85 1.89-1.59 2.57-1.48 0.32-2.88-0.35-4.28-0.74-5.24-1.8-10.12-4.38-14.81-7.31-2.85-1.85-5.66-3.72-7.96-6.21-0.85-0.85-1.35-2.01-1.26-3.22 0.06-1.94 0.65-3.91 1.84-5.47zm-79.1 1.27l0.03 0.09 0.02 0.06c0.19 0.55 0.4 1.09 0.64 1.62-0.38-0.02-0.83 0.02-1.16 0.01 0.29-0.55 0.45-1.16 0.47-1.78zm0.16 5.89c3.28 0.14 6.29 1.64 9.34 2.68-4.64 7.12-9.38 14.19-13.91 21.38-0.36 0.56-0.71 1.2-1.02 1.75-0.5-0.09-1.07-0.04-1.34-0.57-1.74-1.93-3.93-3.82-4.42-6.52-0.33-1.5 0.68-2.93 2.01-3.54 1.95-1 4.19-1.07 6.33-1.14 1.01-0.12 1.36-1.46 0.66-2.15-1.74-1.85-3.52-4.01-3.63-6.67-0.09-2.45 2.01-4.46 4.25-5.05 0.57-0.14 1.15-0.18 1.73-0.17zm-32.16 2.25l0.08 0.05 0.07 0.06c4 3.24 7.87 6.72 11.78 10.09-15.34 2.19-30.49 6.79-43.9 14.67-0.31-0.22-0.65-0.45-0.99-0.63 1.77-2.7 2.77-5.93 2.71-9.16 1.28-2.23 2.48-4.47 3.83-6.64 3-1.44 6.17-2.5 9.3-3.63 5.59-2 11.32-3.58 17.12-4.81zm122.29 12.61c0.09 0.04 0.17 0.08 0.26 0.12 3.26 1.63 6.61 3.23 10.12 4.33 0.03 1.17 0.02 2.34 0.02 3.5h-10.42c0-2.65-0.01-5.3 0.02-7.95zm-105.97 3.19v0.08c0.02 1.88 0.75 3.69 1.75 5.25-1.1 0.43-2.08 1.14-3.08 1.7-9.61 0.32-19.04 2.95-27.82 6.78-5.14 2.26-10.08 4.99-14.63 8.3-0.55-1.04-1.22-2.04-1.69-3.1l-0.08-4.42c8.81-5.33 18.53-8.99 28.45-11.48 5.66-1.42 11.34-2.43 17.1-3.11zm-69.01 1.29c3.18-0.02 6.3 1.22 8.71 3.28 2.54 1.97 4.09 4.86 5.79 7.52 5.44 9.06 10.59 18.33 15.85 27.51 9.73 17.11 19.49 34.2 29.2 51.31-3.02 0.02-6.04 0.01-9.05 0.01-9.87-19.15-19.63-38.34-29.62-57.43-0.47-0.79-0.77-1.95-1.83-2.14-1.4-0.4-2.96 1.02-2.53 2.46 1.2 2.57 2.57 5.08 3.85 7.62 8.45 16.51 16.91 33.01 25.4 49.49h-5.02c-10.12-18.96-20.24-37.92-30.36-56.89 2.93-2.78 4.44-6.93 4.02-10.94-0.46-5.3-3.9-10.45-8.99-12.28-2.73-0.97-5.87-0.91-8.52 0.29-2.71 1.3-4.18 4.46-3.81 7.39 0.26 2.69 2.14 5.2 4.76 6 1.95 0.71 4.03-0.32 5.51-1.55 1.22-1.05 2.46-2.53 2.25-4.24-0.14-1.31-1.67-2.41-2.91-1.69-1.5 0.76-1.5 2.95-3.13 3.55-0.95 0.07-1.48-0.98-1.88-1.69-0.6-1.06-0.89-2.65 0.23-3.49 1.7-1.21 3.98-1.06 5.9-0.52 2.45 0.71 4.55 2.53 5.52 4.9 1.48 3.13 1.29 7.06-0.78 9.9-2.14 2.98-6.05 4.86-9.72 3.99-3.72-0.88-6.64-3.74-8.69-6.85-2.66-4.15-4.18-9.15-3.59-14.09 0.3-2.42 1.23-4.82 2.88-6.69 2.65-2.95 6.57-4.75 10.56-4.73zm-25.49 3.16c3.26 0.04 6.45 1.21 9.06 3.14-1.21 2.93-1.53 6.17-1.27 9.31-2.01-1.97-5.07-2.98-7.81-2.11-2.44 0.76-4.42 2.71-5.48 5.01-1.42 3.39 0.47 7.83 4.02 8.95 1.87 0.6 4.05-0.09 5.22-1.68 0.97-1.26 1.81-2.87 1.55-4.51-0.26-1.58-2.61-2.19-3.53-0.84-0.72 0.91-0.61 2.44-1.82 2.94-0.95 0.25-1.5-0.91-1.61-1.68-0.37-1.56 0.53-3.24 2.02-3.8 1.92-0.84 4.33-0.04 5.39 1.76 2.58 3.55 2.84 8.62 0.53 12.37-2.2 3.8-7.01 5.83-11.26 4.69-4.06-1.06-7.09-4.47-8.75-8.2-2.14-4.79-2.41-10.41-0.73-15.38 1.67-4.81 5.96-8.56 10.93-9.61 1.16-0.26 2.35-0.38 3.54-0.36zm210.87 4.18v1.25c-0.12 0.46 0.34 1.49-0.48 1.25-3.3-0.02-6.65 0.02-9.92-0.04-0.01-0.81 0.02-1.6 0.03-2.41 3.45-0.01 6.91-0.03 10.37-0.05zm-115.97 2.56c6.14-0.02 12.37 0.98 18.17 3.19 0.59 0.08 0.3 0.72 0.24 1.1-0.87 3.36-2.71 6.53-3.07 10.05-0.23 2.01 0.66 4 2.08 5.39 0.9 1.01 2.11 1.7 2.95 2.76 0.17 0.42-0.22 0.85-0.35 1.23-3.65-1.12-7.48-1.48-11.25-2.01-1.18-0.08-2.54-0.49-3.6 0.22-0.87 0.7-0.92 2.2-0.18 3.02 1.02 0.9 2.51 0.75 3.76 0.99 3.5 0.48 7.02 0.88 10.35 1.95 0.41 0.15 0.81 0.3 1.17 0.53-1.34 2.18-3.06 4.41-3.19 7.1-0.04 0.88 0.12 1.76 0.42 2.58-1.98-0.39-3.98-1.4-6.04-0.97-1.44 0.41-2.56 1.59-3.28 2.86-1.49 2.73-0.46 6.67 2.42 8.01 1.66 0.78 3.79 0.22 4.93-1.19 0.73-0.98 0.17-2.47-0.95-2.88-0.77-0.4-1.63-0.11-2.44-0.17-0.79-0.08-0.8-1.07-0.44-1.59 0.25-0.51 0.7-1.15 1.37-0.88 1.79 0.43 3.55 1.11 5.42 1.14 1.96 0.12 3.86-0.46 5.69-1.06 1.09-0.36 2.31-0.13 3.17 0.64 0.59 0.48 1.53 1.09 1.21 1.99-0.66 1.89-2.11 3.36-3.38 4.86-3.13 3.56-6.69 6.7-9.7 10.38-1.76 2.18-2.58 4.94-3.11 7.65-0.57-1.12-1.57-2.15-2.82-2.45-1.12-0.04-2.25 0.23-3.38 0.19-4.53 0.09-9.35-1.01-12.73-4.21-1.1-0.9-2.23-1.76-3.34-2.65 0.92 2.31 1.41 4.92 3.16 6.8 2.84 3.12 7.1 4.6 11.22 4.81 2.33 0.03 4.69-0.02 6.98-0.45 0.22-0.04 0.51-0.21 0.64-0.28-0.44 3.68-0.52 7.39-0.64 11.08h-16.44c-12.39-21.71-24.76-43.44-37.12-65.18 3.32-2.39 6.88-4.45 10.52-6.34 7.7-3.88 16.09-6.73 24.64-7.77 2.31-0.29 4.63-0.43 6.94-0.44zm105.55 3.8h5.21 5.21v2.38h-10.42v-2.38zm-223.99 4.76c1.27 0 2.55 0.06 3.82 0.13-0.26 4.17 0.6 8.4 2.42 12.17-1.99-1.25-4.57-1.34-6.75-0.57-2.6 0.93-4.35 3.47-4.81 6.13-0.57 3.15 0.14 6.48 1.75 9.23 1.47 2.45 4.05 4.5 7.01 4.53 2.2 0.05 4.23-1.39 5.16-3.34 0.65-1.24 0.85-2.7 0.66-4.08 0.67 1.38 1.45 2.78 2.05 4.16-0.82 1.2-1.49 2.51-2.57 3.51-2.19 2.25-5.52 3.21-8.6 2.68-3.23-0.52-6.18-2.14-8.68-4.25-4-3.63-5.79-9.21-5.76-14.47 0.04-3.18 0.62-6.39 2.18-9.22 0.57-0.99 1.07-2.08 1.94-2.84 0.79-0.57 1.8-0.89 2.4-1.67 0.16-0.26 0.12-0.61 0.48-0.69 2.24-1.24 4.79-1.41 7.3-1.41zm234.41 2.32v0.83c0.22 0.81-0.24 0.95-0.96 0.83h-9.44c0.07-0.5-0.11-1.27 0.12-1.61 3.43-0.01 6.85-0.03 10.28-0.05zm-23.56 5.56c0.18-0.02 0.37-0.01 0.56 0.02h22.59c3.59 0.03 7.2-0.07 10.73 0.13 0.43-0.03 0.78 0.15 1.04 0.48 1.26 1.12 0.88 3.65-0.84 4.06-9.24 0.19-18.5 0.16-27.75 0.17-2.32-0.04-4.65 0.04-6.95-0.11-1.64-0.47-1.92-2.88-0.86-4.04 0.39-0.43 0.92-0.67 1.48-0.71zm-175.41 2.72c0.57 1.01 1.14 2.02 1.71 3.04 10.74 19.16 21.49 38.34 32.2 57.52-3.23 0.02-6.45 0.01-9.67 0.01l-27.79-53.33c1.78-2.05 3.01-4.58 3.55-7.24zm-33.41 4.47c1.45 0.19 2.42 1.46 3.3 2.51 0.35 0.45 0.7 0.95 1 1.41-1.34-1.11-3.4-1.53-4.92-0.5-1.05 0.73-2.11 1.98-1.75 3.35 0.34 1.27 1.97 1.68 3.02 1.05 0.4-0.14 0.65-0.58 1.04-0.7 0.9 0.59 1.15 1.79 1.26 2.79 0.13 1.14-0.34 2.65-1.63 2.85-1.34-0.08-2.24-1.28-2.94-2.3-1.33-2.14-2.14-4.78-1.53-7.28 0.38-1.26 1.28-2.39 2.43-3.03 0.22-0.1 0.47-0.16 0.72-0.15zm53.92 1.66c0.28 0.5 0.55 1.01 0.82 1.52 9.42 17.63 18.82 35.27 28.21 52.91-3.6 0.02-7.2 0.01-10.8 0.01-10.14-18.12-20.29-36.24-30.43-54.36 3.13 1.61 6.92 1.98 10.25 0.76 0.67-0.24 1.32-0.52 1.95-0.84zm172.97 1.12c4.52-0.03 8.94 2.34 11.41 6.13 2.71 3.93 3.06 9.3 0.98 13.6-1.92 4.15-6.03 7.15-10.55 7.78-4.57 0.76-9.39-1.17-12.34-4.7-3.17-3.63-4.3-8.96-2.64-13.51 1.41-4.18 4.92-7.57 9.17-8.75 1.29-0.37 2.63-0.56 3.97-0.55zm-217.47 1.35c0-0.02 0.02-0.01 0.07 0.05 1.25 1.06 2.67 1.89 4.17 2.52 8.56 16.47 17.12 32.93 25.66 49.4-1.74 0.06-3.48 0.06-5.21 0.15-3.8-8.59-7.85-17.05-11.84-25.55-4.16-8.73-8.26-17.5-12.62-26.13 0.01-0.02-0.21-0.37-0.23-0.44zm17.13 1.41c4.41 8.45 8.81 16.9 13.22 25.34 4.38 8.41 8.76 16.81 13.12 25.21-2.94 0.02-5.88 0.01-8.81 0.01-8.39-16.14-16.79-32.29-25.17-48.44 2.67-0.03 5.36-0.7 7.64-2.12zm94.76 25.55c-1.65 0.09-2.67 1.72-2.91 3.21-0.07 0.41-0.11 0.81-0.1 1.22-1.89-0.48-3.72-1.3-5.18-2.6-0.76-0.6-2.01 0.01-1.92 0.99 0.21 1.02 0.88 1.88 1.55 2.65 2.49 2.62 6.28 3.54 9.79 3.43 1.3-0.1 2.78-0.08 3.83-0.96 0.67-0.6 0.49-1.64-0.09-2.24-0.41-0.58-1.08-1.01-1.81-1.03 0.09-1.71-0.5-3.74-2.18-4.49-0.31-0.13-0.64-0.19-0.98-0.18zm108.91 8.95c-3.2 0-6.11 0.5-8.75 1.49-8.12 3.08-12.17 10.4-12.17 21.98l0.04 33.7c0 0.88-0.12 1.63-0.35 2.24-0.24 0.62-0.78 1.19-1.63 1.72-0.85 0.55-2.66 0.83-5.45 0.83v4.84h26.37v-4.84c-3.84 0-6.47-0.41-7.91-1.23-0.79-0.47-1.19-1.65-1.19-3.56v-33.66c0-11.95 4.06-17.93 12.18-17.93 2.17 0 4.16 0.48 5.97 1.45 1.79 1 3.04 2.34 3.74 4.04-1.29 0.53-2.34 1.38-3.16 2.55-0.83 1.17-1.24 2.59-1.24 4.26 0 1.7 0.64 3.21 1.9 4.53s2.9 1.98 4.92 1.98 3.72-0.78 5.09-2.33c1.38-1.52 2.07-3.5 2.07-5.93 0-4.54-1.89-8.37-5.67-11.47-3.81-3.11-8.73-4.66-14.76-4.66zm-99.49 19.99c1.13 0.38 2.02 1.42 2.03 2.64 0.12 1.32-0.82 2.8-2.19 2.91-30.15-0.01-60.29 0.03-90.43-0.04-2.15-0.05-4.3 0.05-6.43-0.14-2.06-0.94-1.95-4.49 0.21-5.22 4.26-0.19 8.54-0.09 12.82-0.14 27.99-0.02 55.99-0.01 83.99-0.01zm-93.91 10.26c15.51 0.01 31.02 0.01 46.53 0.01h46.57c5.54 7.66 11.09 15.32 16.63 22.99-7.36-4.66-14.72-9.33-22.07-13.99-5.61 5.57-11.14 11.22-16.81 16.73-0.27 0.2-0.53 0.71-0.85 0.31-5.38-3.96-10.61-8.11-15.92-12.17-2.2-1.69-4.4-3.4-6.61-5.08-7.35 5.53-14.71 11.06-22.06 16.6-5.39-5.61-10.73-11.27-16.14-16.86-7.85 4.64-15.69 9.29-23.54 13.92 4.74-7.5 9.51-14.97 14.27-22.46zm8.54 13.88c1.75 1.82 3.5 3.65 5.25 5.47l6.6 6.9c-10.84-0.03-21.69-0.07-32.54-0.15 6.9-4.07 13.79-8.16 20.69-12.22zm38.9 0.21c0.95 0.73 1.91 1.47 2.87 2.21 4.33 3.33 8.66 6.65 12.98 10-10.65 0.13-21.33 0.05-32-0.07 5.38-4.04 10.77-8.09 16.15-12.14zm40.78 0.26l10.8 6.84c2.83 1.8 5.66 3.59 8.49 5.39-10.46-0.06-20.92-0.03-31.37-0.12 4-4.06 8.05-8.08 12.08-12.11z" transform="translate(-1595.9 -306.39)" fill="url(#e)"/>
</g>
</svg>