<svg xmlns:rdf="http://www.w3.org/1999/02/22-rdf-syntax-ns#" xmlns="http://www.w3.org/2000/svg" xmlns:cc="http://creativecommons.org/ns#" xmlns:xlink="http://www.w3.org/1999/xlink" xmlns:dc="http://purl.org/dc/elements/1.1/" height="181.53mm" width="181.53mm" version="1.1" viewBox="0 0 643.19999 643.19998">
<defs>
<linearGradient id="g" x1="130" xlink:href="#b" gradientUnits="userSpaceOnUse" x2="130" gradientTransform="matrix(4 0 0 4 -218.4 -1547.8)" y1="542.36" y2="392.36"/>
<linearGradient id="b">
<stop stop-color="#cfcfd2" offset="0"/>
<stop stop-color="#f7f7f7" offset="1"/>
</linearGradient>
<linearGradient id="f" x1="55" xlink:href="#b" gradientUnits="userSpaceOnUse" x2="215" gradientTransform="matrix(4 0 0 4 -218.4 -1547.8)" y1="467.36" y2="467.36"/>
<clipPath id="h" clipPathUnits="userSpaceOnUse">
<rect ry="30" height="160" width="160" stroke="#000" y="387.36" x="55" stroke-width=".8" fill="none"/>
</clipPath>
<filter id="c" style="color-interpolation-filters:sRGB" height="3.9618" width="1.1916" y="-1.4809" x="-.095824">
<feGaussianBlur stdDeviation="6.7875"/>
</filter>
<filter id="a" style="color-interpolation-filters:sRGB" height="3.9618" width="1.1916" y="-1.4809" x="-.095824">
<feGaussianBlur stdDeviation="6.7875"/>
</filter>
<linearGradient id="d" y2="532.36" gradientUnits="userSpaceOnUse" y1="402.36" gradientTransform="matrix(4 0 0 4 -218.4 -1547.8)" x2="140" x1="140">
<stop stop-color="#e0e0e0" offset="0"/>
<stop stop-color="#eaeaea" offset="1"/>
</linearGradient>
<linearGradient id="e" y2="563.44" gradientUnits="userSpaceOnUse" x2="234.39" y1="84.058" x1="236.02">
<stop stop-color="#dc0000" offset="0"/>
<stop stop-color="#ff4747" offset="1"/>
</linearGradient>
</defs>
<rect ry="120" height="640" width="640" stroke="url(#f)" y="1.5899" x="1.6" stroke-width="3.2" fill="url(#g)"/>
<g clip-path="url(#h)" transform="matrix(4 0 0 4 -218.4 -1547.8)">
<path d="m135 542.36a90.002 13 0 0 0 -85 8.77c4.8596 1.4338 10.182 2.2285 15.772 2.2285h138.46c5.5874 0 10.906-0.79421 15.764-2.2266a90.002 13 0 0 0 -84.99 -8.77z" filter="url(#c)" fill="#666"/>
<g fill="#fff">
<path filter="url(#a)" d="m135 393.36a90.002 13 0 0 1 -85 -8.77c4.8596-1.4338 10.182-2.2285 15.772-2.2285h138.46c5.5874 0 10.906 0.79421 15.764 2.2266a90.002 13 0 0 1 -84.99 8.77z"/>
<path filter="url(#a)" d="m135 393.36a90.002 13 0 0 1 -85 -8.77c4.8596-1.4338 10.182-2.2285 15.772-2.2285h138.46c5.5874 0 10.906 0.79421 15.764 2.2266a90.002 13 0 0 1 -84.99 8.77z"/>
<path filter="url(#a)" d="m135 393.36a90.002 13 0 0 1 -85 -8.77c4.8596-1.4338 10.182-2.2285 15.772-2.2285h138.46c5.5874 0 10.906 0.79421 15.764 2.2266a90.002 13 0 0 1 -84.99 8.77z"/>
</g>
<path d="m135 542.36a90.002 13 0 0 0 -85 8.77c4.8596 1.4338 10.182 2.2285 15.772 2.2285h138.46c5.5874 0 10.906-0.79421 15.764-2.2266a90.002 13 0 0 0 -84.99 -8.77z" filter="url(#c)" fill="#666"/>
</g>
<rect ry="120" height="640" width="640" stroke="#000" y="1.5899" x="1.6" stroke-width="2.8" fill="none"/>
<rect ry="160" height="520" width="520" y="61.59" x="61.6" fill="url(#d)"/>
<path d="m252.28 83.201c0.65 0.656 1.31 1.31 1.96 1.965v0.002c0.99 1.055 2.14 2.018 3.03 3.139 0.16 1.182 1.25 1.925 1.99 2.763 5.84 5.678 11.85 11.19 17.77 16.79-2.35 1.28-3.3 4.36-2.38 6.81 0.6 1.8 2.26 3.19 4.15 3.41v5.08c-2.16 0.35-4.04 2.08-4.43 4.25-0.54 2.45 0.78 5.2 3.12 6.17 0.73 0.32 1.53 0.48 2.32 0.5-0.46 4.54-0.89 9.17-2.67 13.47-2.11 5.1-6.2 8.97-10.02 12.81-1.02 1.13-2.34 2.2-2.64 3.77-0.19 1.49 0.82 2.83 2.02 3.61 2 1.35 4.34 2.12 6.69 2.6 0.31 0.88 0.64 1.85 0.52 2.77-1.34 1.85-2.81 3.93-2.69 6.33 0.06 1.22 0.69 2.36 1.58 3.18-0.49 1.46-0.93 3.26 0.1 4.6 0.93 1.29 2.93 1.55 3.37 3.23 0.26 1.74-0.56 3.42-1.14 5.02-0.37 0.9-0.76 1.78-1.14 2.68-8.07 0.49-16.05 1.9-23.97 3.42-7.6 1.49-15.14 3.25-22.61 5.26-3.47-6.66-7.63-12.94-12.23-18.87-1.63-2.38-4.4-4.1-7.35-4.01-2.35 0.03-4.62 1.25-6.05 3.1-3.57-6.25-7.03-12.57-10.71-18.76-1.17-2.23-3.7-3.6-6.2-3.45-2.39 0.09-4.68 1.53-5.78 3.66-1.82-1.96-4.85-2.53-7.31-1.53-2.64 0.97-4.63 3.66-4.48 6.53-0.01 0.38 0.1 0.82 0.12 1.17-3.37 0.15-6.29 3.13-6.44 6.49-0.14 1.64 0.52 3.2 1.36 4.56 0.75 1.37 1.54 2.74 2.29 4.09-2.66 0.21-5.07 2.18-5.75 4.78-0.41 1.55-0.46 3.3 0.32 4.75 1.99 3.97 4.3 7.77 6.46 11.65 1.71 3.07 3.5 6.1 5.16 9.19 0.98 2.9 2.12 5.78 3.16 8.63-6.3 3.92-12.24 8.45-17.68 13.5-1.56 1.48-3.07 3.02-4.32 4.78-0.03 5.86-0.05 11.72-0.08 17.58-0.63 0.55-1.27 1.1-1.9 1.65 0.62 0.75 1.41 1.44 1.92 2.23 0.03 20.05-0.35 40.1-0.48 60.15-0.08 5.25 0 10.5-0.21 15.74 0.09 0.43-0.19 0.55-0.56 0.64l-1.83 0.69c0.69 1.98 1.56 3.9 2.29 5.85 0.03 22.78-0.05 45.56 0.1 68.33 0.01 1.29 0.11 2.58 0.17 3.86 1.96 0.65 3.66 1.83 5.51 2.74 2.16 1.14 4.34 2.23 6.54 3.3l-0.03 108.63h-4.78v9.5l6.31 0.01c-2.61 2.7-3.09 7.01-1.52 10.36 1.32 3.03 4.35 5.26 7.68 5.48 3.16 0.32 6.47-1.04 8.34-3.64 2.5-3.3 2.61-8.25 0.03-11.53-0.09-0.23-0.75-0.68-0.38-0.67 1.63 0 3.26 0 4.88-0.01v-9.5h-3.96c0.02-11.67-0.04-23.37 0.05-35.02-0.16-0.76 0.8-0.12 1.23-0.15 5.92 1.23 11.84 2.48 17.76 3.72-0.42 3.78-1.05 7.57-2.28 11.18-1.17 3.52-3.19 6.87-6.29 9.01-2.32 1.69-5.03 2.69-7.66 3.78 2.52 1.39 5.1 2.75 7.92 3.39 6.97 1.73 14.38 0.24 20.75-2.83 8.79-4.26 16.13-11.3 21.09-19.69 4.46-7.56 6.87-16.51 5.9-25.31-1.05-9.7-5.7-18.79-12.2-25.98-5.7-6.26-12.94-11.3-21.15-13.56-5.9-1.63-12.39-1.56-18.04 0.94-0.82 0.4-1.83 0.59-2.43 1.33-0.31 0.46-0.19 0.99 0.15 1.39 1.23 0.81 2.7 1.17 3.96 1.95 3.15 1.71 5.6 4.61 7.04 7.81 1.71 3.74 2.55 7.86 3.02 11.9-6.25 1.35-12.54 2.63-18.82 3.95 0.02-13.19-0.04-26.41 0.07-39.59 17.04 6.09 35.03 9.38 53.07 10.45 9.52 0.55 19.06 0.39 28.57-0.29 0.23 8.85 2.25 17.52 3.59 26.24 1.43 9.15 2.67 18.33 4.22 27.47 0.82 4.92 1.7 9.84 2.55 14.76-2.49 0.01-5.13 1.32-6.1 3.71-0.83 1.86-0.24 4.21 1.44 5.39 0.82 0.61 1.81 0.96 2.81 1.12v5.09c-2.55 0.34-4.48 2.79-4.46 5.32-0.07 2.25 1.43 4.44 3.51 5.26 0.95 0.32 1.96 0.34 2.95 0.38-6.49 7.37-13.03 14.68-19.47 22.09-0.42 0.56-0.85 1.13-1.28 1.7 6 0.15 12 0.06 17.99 0.1 44.18 0.03 88.37 0.01 132.55 0.02-1.67-1.72-3.43-3.36-5.05-5.11 0.1-1.22-1.01-1.95-1.78-2.7-5.97-5.62-11.98-11.24-17.93-16.87 2.08-1.09 3.23-3.63 2.68-5.91-0.46-2.32-2.56-4.12-4.89-4.32-0.45 0.06-0.56-0.18-0.47-0.61 0.01-1.45-0.07-2.96-0.01-4.36 2.19-0.08 4.48-1.28 5.26-3.43 0.84-2.12-0.12-4.68-2.05-5.84-1-0.63-2.17-0.94-3.35-1 0.41-4.76 0.84-9.48 2.62-13.95 1.57-3.92 4.2-7.31 7.2-10.24 1.64-1.78 3.72-3.23 4.85-5.42 0.74-1.35 0.64-3.16-0.45-4.29-1.59-1.69-3.95-2.3-6.12-2.86-0.6-0.19-1.3-0.16-1.84-0.48-0.34-0.27-0.09-0.51 0.16-0.73 1.6-1.56 3.43-3.3 3.65-5.67 0.18-1.99-1.26-3.68-2.85-4.67-0.47-0.14 0-0.55 0.04-0.85 0.66-1.56 0.67-3.55-0.58-4.82-0.94-1.11-2.44-1.35-3.62-2.09-0.94-0.51-1.25-1.66-0.95-2.64 0.3-1.19 0.83-2.36 1.47-3.39 8.88-1.38 17.69-3.16 26.4-5.37 3.54-0.87 7.05-1.86 10.55-2.82 3.37 6.01 7.21 11.76 11.47 17.18 1.39 2.27 4.08 3.51 6.7 3.42 2.4-0.04 4.81-1.1 6.31-3 3.5 6.11 6.89 12.28 10.47 18.34 0.72 1.24 1.6 2.46 2.94 3.08 3 1.62 7.11 0.56 8.94-2.33 0.18-0.13 0.26-0.8 0.49-0.41 1.96 1.96 5.15 2.31 7.61 1.13 2.46-1.06 4.31-3.65 4.06-6.39 0-0.34-0.11-0.73-0.13-1.03 3.51-0.2 6.53-3.44 6.41-6.97 0.01-2.16-1.36-3.98-2.31-5.82-0.45-0.79-0.89-1.59-1.34-2.38 3.18-0.31 5.88-3.1 6.06-6.29 0.14-1.5-0.33-2.99-1.13-4.24-3.56-6.57-7.37-13-10.94-19.56-0.78-1.6-1.2-3.35-1.88-5-0.34-0.92-0.71-1.83-1.02-2.76 6.37-4.21 12.36-9.02 17.6-14.58 0.84-0.89 1.63-1.84 2.42-2.77 0-6.31 0.08-12.62-0.02-18.93 0.93-0.89 2.11-1.54 2.87-2.58 0.46-0.83-0.34-1.5-0.82-2.09-0.85-0.93-1.61-1.96-2.5-2.84-0.89-0.63-1.84 0.15-2.52 0.71-9.6 7.71-19.95 14.43-30.68 20.43-17.49 9.74-36.25 17.4-55.83 21.77-1.46 0.29-2.98 0.7-4.47 0.88-0.41-0.17-1.42-0.39-0.4-0.44 14.05-2.71 27.62-7.54 40.66-13.36 17.71-7.98 34.55-17.9 50.04-29.62 1.29-1.04 2.69-1.94 3.87-3.09 0.62-0.64 0.45-1.7-0.18-2.26-0.44-0.65-1.12-1.34-1.98-1.09-1.14 0.42-1.96 1.4-2.95 2.07-13.39 10.34-27.9 19.17-43.06 26.64-10.19 4.99-20.74 9.38-31.6 12.68-6.87 2.05-13.95 3.71-21.07 4.83-1.55 0.2-3.06 0.49-4.61 0.36-2.97-0.64-6.01-0.92-9.03-1.19-0.26-0.08-0.87 0.14-0.7-0.29-0.18-0.61 0.34-1.02 0.61-1.52 4.94-7.48 9.81-14.99 14.81-22.41 1.51-2.25 3.18-4.42 5.26-6.19 5.88-5.57 12.23-10.66 19.08-14.97 11.47-7.28 24.25-12.46 37.45-15.43 7.13-1.61 14.4-2.67 21.71-3.06 4.6-0.15 9.21-0.17 13.82 0.27 0.75 0.11 1.69 0.43 2.23-0.32 0.27-0.61 0.56-1.21 0.83-1.83 0.34-0.88-0.44-1.76-1.31-1.81-4.67-0.8-9.44-0.69-14.15-0.53-10.36 0.43-20.69 1.98-30.66 4.86-15.56 4.46-30.41 11.78-42.98 22.04 1.05-1.05 2.28-1.93 3.43-2.88 11.72-9.13 25.29-15.69 39.49-19.94 12.88-3.79 26.38-5.73 39.85-4.75 1.91 0.15 3.83 0.32 5.75 0.47-0.1-1.97 0.22-3.91 0.47-5.85 0.09-0.58-0.51-0.94-0.37-1.5 0.03-0.76-0.06-1.49-0.36-2.18 0.34-1.81 0.54-3.64 0.81-5.46 0.07-0.46-0.3-0.8-0.44-1.15 0.08-0.86-0.12-1.67-0.45-2.45-0.21-0.35-0.36-1.58-0.61-1.34-0.5 1.15-1.36 2.19-1.41 3.49-0.15 0.27 0.11 1.08-0.42 0.86-13.49-1.27-27.14 0.34-40.2 3.8-8.98 2.4-17.71 5.72-25.96 10 1.53-2.22 3.07-4.43 4.62-6.64 10.95-5.53 22.79-9.29 34.92-11.1 7.77-1.19 15.69-1.55 23.58-1.24 1.22 0.02 2.44 0.21 3.66 0.31 0.43 0.05 0.69-0.4 1.04-0.44-0.05-0.11 0.01-0.29 0.08-0.46-0.22 0.3-0.7-0.73-0.16-0.59 0.5 0.11 1.63-0.15 0.97 0.6-0.75 0.61 0.77 0.85 0.44 0.07 0.07-5.45-0.04-10.93 1.08-16.29 0.11-0.66-0.39-1.33-1.04-1.44-0.21-0.35 0-1.64-0.52-1.29-0.59 0.32-1.15 0.76-1.76 1.02-2.74-0.19-5.5-0.31-8.25-0.37 0.19-3.21-1.96-6.55-5.13-7.4-3.03-0.92-6.53 0.45-8.18 3.14-0.91 1.44-1.25 3.21-0.95 4.89-2.84 0.26-5.68 0.66-8.51 1.06-7.5-10.72-16.79-20.08-26.81-28.44-11.15-9.27-23.28-17.33-35.92-24.42-5.2-10.02-10.3-20.09-15.23-30.24 6.05 0.38 12.02 1.21 17.97 2.33 12.79 2.55 25.23 6.9 36.68 13.22 12.84 7.06 24.37 16.68 33.54 28.13 8.05 10.02 14.35 21.44 18.82 33.51 0.26 0.89 0.97 1.91 2.03 1.65 0.48-0.26 0.86 0.42 1.38 0.15 0.93-0.17 0.97-1.25 0.97-2.01 0.04-1.31 0.16-2.62 0.05-3.92-0.22-0.65 0.11-1.37 0.03-2.05 0.08-0.47 0.87-0.42 1.26-0.67 0.7-0.26 1.42-0.51 2.1-0.83 0.37-1.01-0.26-1.93-0.58-2.85-0.85-2.21-1.84-4.38-2.7-6.57 0.11-20.38 0.2-40.77-0.09-61.15-0.01-1.37-0.09-2.74-0.19-4.11-3.53-2.1-7.15-4.05-10.82-5.91 0.02-35.11 0.04-70.21 0.06-105.32 1.58-0.02 3.16-0.04 4.74-0.07v-10.2h-5.84c2.54-2.726 3.02-6.99 1.43-10.31-1.36-3.031-4.43-5.203-7.76-5.381-3.23-0.288-6.58 1.18-8.42 3.879-2.32 3.227-2.4 7.942 0.04 11.132 0.09 0.22 0.6 0.6 0.46 0.68h-5.25v10.23h3.96c-0.02 11.46 0.05 22.95-0.05 34.4 0.01 0.61-0.99-0.06-1.4 0-5.66-1.17-11.32-2.37-16.98-3.53 0.43-4.19 1.12-8.4 2.68-12.37 1.49-3.86 4.11-7.47 7.91-9.29 1.85-0.86 3.74-1.65 5.6-2.49-3.11-1.3-6.18-2.79-9.54-3.34-7.19-1.32-14.65 0.43-21.04 3.81-8.94 4.73-16.25 12.39-20.83 21.39-3.86 7.59-5.64 16.39-4.18 24.85 1.83 10.84 7.89 20.74 16.08 27.98 4.65 4.08 10.06 7.37 16 9.19-13.79-2.98-27.91-4.4-42.01-4.23-0.74 0.21-0.4-0.77-0.55-1.21-0.76-7.66-2.38-15.22-3.54-22.82-1.31-8.69-2.55-17.41-4.01-26.09-0.76-4.65-1.57-9.3-2.4-13.93 1.93 0.06 4.07-0.56 5.17-2.27 1.38-1.95 1.41-4.81-0.16-6.66-1.03-1.28-2.62-2.02-4.24-2.12 0.01-1.64 0.03-3.28 0.04-4.92 2.55-0.07 4.93-2.02 5.34-4.57 0.48-2.41-0.99-4.97-3.19-5.97-1.03-0.41-2.16-0.44-3.25-0.49 6.49-7.365 13.03-14.682 19.48-22.087l1.3-1.711c-5.97-0.152-11.94-0.054-17.91-0.091-44.22-0.033-88.43-0.015-132.64-0.02zm234.42 244.73c0.02-0.03 0.04-0.07 0.05-0.13-0.01 0.04-0.03 0.09-0.05 0.13zm0.05-0.13c0.03-0.08 0.06-0.15 0.04-0.19 0 0.09-0.02 0.14-0.04 0.19zm-326.78-241.99v4.834c3.1 0 5.24 0.41 6.41 1.23 0.65 0.469 0.97 1.654 0.97 3.559l0.04 46.668c0 0.88-0.11 1.63-0.35 2.24-0.23 0.62-0.77 1.2-1.62 1.76-0.85 0.53-2.67 0.79-5.45 0.79v4.84h24.61v-4.84c-3.11 0-5.22-0.41-6.33-1.23-0.64-0.47-0.97-1.65-0.97-3.56l-0.04-12.92 10.81-10.5 13.49 21.58c2.78 4.27 1 6.49-5.36 6.63v4.84h27.55v-4.84h-0.57c-2.2 0-4.13-0.5-5.8-1.49-1.64-1.03-3.19-2.71-4.66-5.06l-18.19-27.9 18.06-17.536c1.47-1.465 2.83-2.504 4.09-3.119 1.29-0.644 2.91-1.025 4.88-1.142v-4.834h-23.51v4.834c2.78 0 4.77 0.423 5.97 1.273s1 2.051-0.61 3.604l-26.15 26.19v-26.278c0-0.879 0.12-1.625 0.35-2.241 0.23-0.615 0.76-1.187 1.58-1.714 0.82-0.557 2.62-0.834 5.41-0.834v-4.834h-24.61zm102.54 1.257h61.79c-6.17 5.084-12.99 9.451-20.51 12.26-4.35 1.584-9.03 2.654-13.68 1.924-5.31-0.8-10.4-2.807-15.12-5.234-4.54-2.39-8.87-5.279-12.48-8.95zm65.88 0c4.85 0 9.69 0.002 14.54 0.002 16.9 0.013 33.79 0.003 50.68 0.075-3.9 3.559-8.32 6.547-13 8.998-5.31 2.736-10.96 4.719-16.92 5.429-2.55 0.14-5.12 0.3-7.65 0.12-7.65-0.79-14.98-4.083-21.08-8.733-2.36-1.769-4.51-3.785-6.57-5.891zm140.75 2.965c2.89-0.029 5.44 2.733 5.12 5.617-0.15 2.495-2.28 4.662-4.78 4.842-2.91 0.32-5.7-2.276-5.61-5.203-0.08-2.405 1.73-4.657 4.09-5.131 0.38-0.087 0.78-0.129 1.18-0.125zm-142.85 0.985l0.07 0.064 0.04 0.039c4.11 4.102 8.76 7.732 13.98 10.311 7.56 3.82 16.27 5.29 24.66 4.16 6.03-0.78 11.86-2.79 17.25-5.57-2.09 2.35-4.18 4.71-6.27 7.06h-93.31c-1.87-1.75-3.75-3.49-5.62-5.23 4.6 1.96 9.41 3.57 14.41 4.05 5.24 0.37 10.43-1.08 15.26-2.99 7.1-2.88 13.63-7.035 19.53-11.894zm151.83 14.414v0.82c0.22 0.82-0.24 0.95-0.96 0.83h-15.92c0.07-0.49-0.11-1.26 0.12-1.6 5.59-0.02 11.17-0.03 16.76-0.05zm-12.44 6.31c0.13-0.02 0.29 0 0.49 0.05h3.14 4.01c0.14 0.74-0.07 1.13-0.86 0.93h-7.16c-0.1-0.55-0.01-0.91 0.38-0.98zm-102.12 0.05c6.4 0.04 12.83-0.06 19.2 0.17 0.49 0.05 1.12-0.08 1.37 0.47 0.56 0.72-0.12 1.95-1.05 1.71-13.01 0.18-26.05 0.14-39.07 0.17-20.77-0.01-41.55 0.02-62.32-0.17-0.91-0.06-1.87 0.06-2.75-0.12-0.76-0.52-0.54-1.78 0.3-2.1 0.92-0.18 1.94-0.02 2.9-0.08 27.14-0.01 54.28-0.04 81.42-0.05zm101.84 5.64h3.91 4.01c-0.07 0.51 0.13 1.3-0.1 1.65h-7.92c0.07-0.51-0.13-1.3 0.1-1.65zm-181.9 0.72h47.87 47.87v4.89h-95.74v-4.89zm161.5 0.6c1.01-0.01 2.01 0.05 3 0.24-0.53 0.39-1.05 0.8-1.54 1.24-4.95-0.71-9.96 0.65-14.44 2.68-8.9 4.12-16.51 11.29-20.54 20.29-3.88 8.53-4.36 18.49-1.51 27.4 3.71 11.91 13.23 21.8 24.92 26.11 3.71 1.32 7.73 2.19 11.67 1.54 0.39 0.35 0.82 0.65 1.24 0.96-5.92 1.17-12.11-0.37-17.41-3.11-7.99-4.17-14.57-10.87-18.93-18.72-3.13-5.68-5.11-12.18-4.91-18.74 0.28-10.33 5.03-20.26 12.15-27.64 4.22-4.33 9.29-7.92 14.97-10.07 3.63-1.3 7.47-2.12 11.33-2.18zm20.3 4.2h4.01 4.01v1.77h-8.02v-1.77zm-22.25 1.31l-0.05 0.08c-3.3 5.15-4.51 11.3-5.19 17.29-0.07 1.26-0.38 2.53-0.18 3.79 0.28 1.02 1.52 0.91 2.34 1.16 6.86 1.44 13.72 2.86 20.58 4.31 0.01 2.16 0.03 4.31 0.04 6.47h-48.19c0.34-10.31 5.96-20.01 14.01-26.28 4.15-3.21 9.01-5.63 14.21-6.53 0.82-0.13 1.6-0.22 2.43-0.29zm-135.93 2.63h5.75c22.77 0.03 45.55 0.02 68.32 0.23 0.85 0.03 1.75-0.02 2.6 0.07 0.78 0.53 0.67 1.88-0.27 2.17-1.8 0.1-3.65 0.01-5.47 0.04-30.9-0.01-61.79 0.04-92.69-0.04-2.1-0.03-4.21 0.03-6.3-0.11-0.91-0.52-0.67-2.09 0.4-2.23 9.2-0.15 18.44-0.1 27.66-0.13zm158.18 1.7h4.01 4.01v6.58c-1.96-2.34-6.03-2.16-7.85 0.26-0.33 0.55-0.09-0.67-0.16-0.92 0-1.97 0-3.95-0.01-5.92zm-181.26 5.52h13.21c4.45 0.01 8.9-0.03 13.34 0.06 3.59 21.23 7.16 42.47 10.7 63.71-3.3 1.18-6.49 2.99-8.71 5.75-1.72 1.12-3.7 1.68-5.63 2.3-5.71 1.71-11.91 2.73-17.71 0.96-3.9-1.15-7.32-3.83-9.31-7.39-0.46-0.77-1.05-1.66-0.64-2.6 0.82-2.6 1.67-5.49 0.7-8.18-0.6-1.67-1.93-2.97-3.4-3.91 0.26-0.39 0.45-0.92 0.8-1.2 2.37 0.07 4.7 0.62 7.04 0.95 0.88 0.09 2.09 0.62 2.71-0.31 0.55-0.78-0.11-1.72-0.88-2.03-2.51-1.19-5.28-1.7-8.02-2.08-0.63-0.12-1.31-0.05-1.9-0.31 3.41-0.54 6.78 0.74 9.8 2.2 3.57 1.73 6.78 4.08 9.98 6.41 1.75 1.21 3.89 2.35 6.09 1.84 3.18-0.73 5.57-3.56 6.21-6.69 0.67-2.92-0.09-6.34-2.53-8.25-0.74-0.5-1.58-1.23-2.54-0.98-0.61 0.26-0.88 1-0.59 1.59 0.46 0.77 1.31 1.2 1.64 2.08 1.02 1.98 0.4 4.88-1.78 5.78-0.44 0.29-1.03 0.3-1.4-0.13-1.76-1.57-3.11-3.55-4.82-5.18-3.28-3.33-7.25-6.08-11.75-7.44 2.03-0.25 3.4-2.17 3.82-4.05 0.32-1.48 0.26-3.36-1.05-4.37-1.13-0.85-3.07-0.18-3.22 1.29-0.19 0.71 0.27 1.39 0.2 2.09-0.16 0.34-0.27 1.08-0.81 0.73-2.17-0.72-4.41-1.86-6.76-1.39-0.95 0.11-1.74 0.83-2.73 0.68-1.78-0.13-3.58-0.6-5.1-1.55 1.22-1.37 2.58-2.59 3.9-3.86 3.36-3.44 6.47-7.27 8.24-11.79 1.88-4.68 2.45-9.75 2.9-14.73zm32.81 0c0.77 0 1.53 0 2.3 0.02 3.75 23.18 7.56 46.41 11.35 69.54 0.3 2.27 0.73 4.61 0.27 6.91-0.21 1.28-1.34 2.15-2.55 2.42-1.74 0.44-3.79 0.8-5.35-0.34-0.89-0.56-1.56-1.89-0.77-2.8 0.46-0.57 1.41-1.21 2.04-0.49 0.66 0.78 1.43 1.73 2.57 1.69 1.26 0.03 2.07-1.37 1.75-2.51-0.59-2.28-3.01-3.86-5.33-3.62-2.99 0.21-5.78 2.83-5.7 5.92 0.11 2.74 2.2 5.1 4.67 6.1 4.02 1.64 9.18 0.43 11.77-3.15 1.48-2.03 1.68-4.68 1.34-7.09-0.68-5.06-1.63-10.08-2.42-15.13-3.13-19.15-6.26-38.3-9.37-57.46 1.78-0.02 3.56-0.01 5.35-0.01 3.8 23.54 7.61 47.1 11.37 70.66 0.26 2.21 0.4 4.63-0.72 6.64-0.49 1.03-1.82 1.1-2.38 2.07-0.75 0.99-0.38 2.62 0.84 3.03 1.68 0.55 3.48-0.47 4.47-1.82 1.86-2.52 2.29-5.81 2.15-8.86-0.22-2.79-0.83-5.52-1.22-8.29-3.4-21.14-6.84-42.29-10.19-63.43 1.83 0 3.7-0.01 5.51 0.01 3.74 23.31 7.5 46.61 11.28 69.91-0.05 2.19 0.27 4.56-0.77 6.58-0.44 0.93-1.66 0.81-2.25 1.58-0.95 0.93-0.68 2.74 0.58 3.26 1.38 0.59 2.91-0.22 3.95-1.13 2.18-2.05 2.81-5.18 2.83-8.05-0.01-2.94-0.74-5.8-1.13-8.7-3.39-21.16-6.79-42.31-10.22-63.46 1.85 0 3.73-0.02 5.56 0.03 3.67 22.98 7.41 45.94 11.07 68.92 0.24 2.18 0.35 4.59-0.83 6.53-0.54 0.93-1.8 1.04-2.32 2-0.71 0.96-0.42 2.57 0.77 2.99 1.21 0.4 2.52-0.16 3.51-0.85 2.23-1.68 3.02-4.59 3.2-7.26 0.24-3.52-0.69-6.97-1.16-10.43-3.32-20.65-6.65-41.29-9.98-61.93 1.84 0 3.68-0.02 5.52 0.02 3.62 22.3 7.2 44.62 10.79 66.93 0.26 2.06 0.43 4.03-0.01 6.09-0.22 1.1-0.84 2.28-2.03 2.54-1.36 0.49-1.78 2.45-0.75 3.46 0.83 0.92 2.21 0.64 3.2 0.16 2.31-1.07 3.44-3.62 3.83-6 0.27-1.9 0.39-3.84 0.07-5.74-1.49-10.08-3.2-20.12-4.8-30.18-2-12.42-4-24.84-5.99-37.26 1.85-0.02 3.69 0.02 5.53 0.03 3.58 22.31 7.21 44.61 10.76 66.93 0.25 2.18 0.38 4.59-0.81 6.53-0.59 1.01-1.98 1.17-2.47 2.27-0.61 1.03-0.04 2.53 1.15 2.8 1.5 0.34 2.99-0.56 4-1.6 2.11-2.31 2.63-5.61 2.52-8.63-0.15-2.75-0.8-5.43-1.18-8.15-3.23-20.06-6.46-40.12-9.67-60.19 1.9 0 3.8 0.03 5.7 0.04 2.36 12.95 4.39 25.95 6.26 38.97 1.42 9.48 3.56 18.83 4.01 28.43 0.08 2.65 0.08 5.35-0.77 7.92-0.63 1.99-2.3 3.77-4.44 4.04-4.83 0.8-9.71 1.18-14.58 1.73-12.97 1.36-25.95 2.7-38.91 4.15-4 0.44-8.4 0.26-11.87-2.06-2.36-1.51-3.98-4.35-3.52-7.19 0.45-3.09 2.86-5.5 5.51-6.95 1.51-0.91 3.23-1.35 4.85-2.01 0.95-0.39 1.35-1.5 1.08-2.45-3.51-21.55-7.2-43.07-10.78-64.61 0.66-0.02 1.31-0.02 1.96-0.02zm-24.71 2.27c-2.56 0.07-5.11 0.38-7.61 0.93-0.86 0.22-0.8 1.24-0.95 1.95-0.14 1.11-0.41 2.21-0.42 3.33 0.04 0.59 0.46 0.89 1.01 0.95 0.34 0.02 0.67-0.07 1.01-0.13-0.85 0.36-0.94 1.47-0.45 2.16 0.43 0.88 1.08 1.85 2.16 1.93-0.07 1.9 0.57 3.96 2.06 5.21 0.09 0.12 0.8 0.45 0.34 0.26-1.65-0.62-3.3-1.26-4.95-1.88 1.09 1.47 1.97 3.11 3.21 4.46 0.9 0.97 2.23 1.45 3.54 1.33 1.03-0.07 2.2-0.16 2.98-0.92 0.46-0.69 0.03-1.64-0.76-1.83-1.1-0.3-2.33-0.53-3.33-0.92 1.57 0.37 2.92-0.95 3.47-2.3 0.36-0.84 0.54-1.75 0.53-2.66 1.02 0.46 2.21 0.88 2.83 1.86-0.49 0.5-0.81 1.36-0.26 1.94 0.74 0.78 1.89 0.22 2.8 0.2 1.55-0.26 3.15-0.35 4.68-0.76 0.93-0.23 1.3-1.58 0.46-2.15-0.55-0.35-1.26-0.27-1.84-0.58-1.86-0.63-3.6-1.6-5.07-2.91-3.06-2.46-7.2-3.32-11.04-2.73 4.15-0.88 8.52-1.5 12.72-0.55 1.83 0.44 3.79 1.39 4.49 3.27 0.3 0.86 1.55 1.22 2.14 0.44 0.58-0.83 0.14-1.89-0.05-2.78-0.78-2.8-3.14-4.88-5.79-5.89-2.5-0.98-5.24-1.27-7.91-1.23zm177.41 1.34c0.83-0.03 1.07 1.19 0.39 1.57-0.61 0.43-1.43-0.21-1.27-0.91 0.04-0.43 0.48-0.68 0.88-0.66zm-4.24 3.7l0.05 0.07c1.34 1.92 4.12 2.8 6.25 1.68 0.65-0.32 1.23-0.78 1.71-1.32-0.02 3.3 0.03 6.77-0.03 9.97-1.74-1.98-5.07-2.22-7.06-0.47-0.35 0.29-0.65 0.63-0.91 1 0-3.64 0-7.28-0.01-10.93zm4.22 12.96c0.86-0.03 1.13 1.34 0.32 1.63-0.71 0.38-1.47-0.52-1.11-1.2 0.15-0.28 0.47-0.45 0.79-0.43zm-4.21 3.73l0.06 0.08c1.38 2.06 4.37 2.79 6.51 1.51 0.54-0.3 1.03-0.7 1.43-1.17 0 3.33 0.01 6.68 0 10-1.76-2.07-5.22-2.26-7.2-0.41-0.3 0.26-0.56 0.56-0.79 0.88 0-3.63 0-7.26-0.01-10.89zm-52.77 3.96h23.99 24.05c-0.01 2.36-0.03 4.71-0.04 7.07-7.67 1.6-15.32 3.24-22.99 4.82 0.53 6.32 1.47 12.79 4.54 18.44 0.28 0.59 0.79 1.28 0.99 1.78-3.41-0.16-6.73-1.23-9.73-2.68-6.37-3.12-11.87-8.05-15.62-14.02-2.87-4.65-4.77-9.95-5.19-15.41zm-227.47 7.02c1.04-0.02 1.88 0.74 2.31 1.63 3.71 6.13 7.21 12.44 10.64 18.76 0.64 1.3 1.45 2.54 1.92 3.91 0.05 0.31 0.13 0.61 0.21 0.91-1.45 0.65-2.91 1.3-4.35 1.97-4.52-7.93-9-15.87-13.41-23.86-0.62-1.71 1-3.36 2.68-3.32zm92.82 0.37c0.02-0.02 0.08-0.02 0.19 0 0.84 0.06 1.63 0.38 2.41 0.67-0.8-0.12-1.62-0.2-2.43-0.26-0.03-0.15-0.25-0.36-0.17-0.41zm-103.66 1.26c0.94-0.01 1.73 0.64 2.08 1.48 5.2 8.64 10.35 17.34 15.43 26.06-1.72 0.89-3.44 1.8-5.13 2.75-5.07-8.94-10.15-17.89-15.15-26.87-0.75-1.76 1.08-3.47 2.77-3.42zm295.3 0.35c0.88-0.03 1.13 1.48 0.23 1.65-0.75 0.24-1.43-0.69-0.97-1.32 0.16-0.24 0.45-0.35 0.74-0.33zm-9 2.5c0.11 9.69 0.04 19.43 0.05 29.14 0 2.4 0 4.79-0.04 7.18-6.88-2.57-13.92-4.71-21.05-6.44 4.74 0.75 9.7 0.28 14.13-1.6 0.91-0.42 1.99-0.63 2.72-1.36 0.32-0.4 0.35-0.94 0.04-1.36-0.6-0.63-1.56-0.81-2.32-1.22-3.48-1.47-6.43-4.13-8.14-7.5-2.13-4.03-2.99-8.6-3.6-13.07 6.07-1.25 12.16-2.56 18.21-3.77zm4.8 1.24c1.38 2.17 4.52 2.83 6.7 1.49 0.48-0.28 0.91-0.64 1.28-1.07 0 3.33 0 6.65-0.01 9.98-1.94-2.29-5.96-2.22-7.77 0.2-0.34 0.62-0.15-0.33-0.2-0.6 0-3.33-0.01-6.69 0-10zm-297.45 4.03c1.35-0.01 2.03 1.32 2.65 2.3 3.65 6.01 6.97 12.21 10.19 18.46 0.65 1.27 1.28 2.53 1.85 3.84-1.35 0.88-2.69 1.78-3.99 2.73-4.51-7.86-9-15.73-13.38-23.67-0.9-1.76 0.9-3.7 2.68-3.66zm301.61 8.89c0.74-0.02 1.17 1 0.55 1.48-0.7 0.76-1.97-0.6-1.13-1.23 0.15-0.15 0.36-0.25 0.58-0.25zm-261.35 0.47c1.29-0.03 2.39 0.82 3.09 1.84 3.35 4.23 6.38 8.69 9.18 13.28 0.9 1.54 1.78 3.1 2.63 4.68-4.74 1.4-9.49 2.91-14.16 4.54 1.34-1.23 2.79-2.35 4.26-3.43-2.83-5.06-5.78-10.06-8.52-15.17-0.37-0.69-0.72-1.44-0.54-2.24 0.08-2.06 2.09-3.55 4.06-3.5zm257.2 3.37l0.04 0.05c1.08 1.49 3 2.25 4.81 1.96 1.2-0.11 2.31-0.75 3.11-1.64 0 3.31-0.01 6.61-0.01 9.92-1.92-2.12-5.67-2.23-7.58-0.04-0.17 0.13-0.46 0.76-0.36 0.17-0.01-3.47-0.01-6.95-0.01-10.42zm-299.82 2.41c0.96-0.03 1.68 0.72 2.05 1.55 2.58 4.42 5.15 8.9 7.65 13.39-1.34 1.31-2.67 2.67-3.66 4.26-2.99-5.26-6.03-10.51-8.92-15.81-0.71-1.76 1.22-3.43 2.88-3.39zm36.48 4.11l0.01 0.02c1.99 3.23 3.77 6.57 5.64 9.86-2.83 2.31-5.36 4.96-7.62 7.82-2.11 0.98-4.31 1.79-6.43 2.76-5.5 2.42-10.9 5.08-16.12 8.06-1.08-2.85-2.2-5.73-3.08-8.64-0.2-1.66 1.02-3.1 2-4.26 3.13-3.38 7.12-5.89 11.01-8.23 4.69-2.74 9.59-5.17 14.58-7.39h0.01zm74.64 4.05l0.02 0.03c2.57 4.24 6.78 7.43 11.54 8.81 6.16 1.83 12.79 1.08 18.87-0.69 0.99-0.26 2.09-0.69 2.98-0.92-0.09 0.53-0.1 1.15-0.15 1.63-1.06-0.72-2.82-0.15-2.97 1.21-0.85 3.95-1.49 7.95-2.02 11.96-0.42 0.12-0.83 0.24-1.25 0.36 0.48-3.07 1.17-6.12 1.55-9.21 0.04-1.36-1.47-2.38-2.73-1.94-0.96 0.27-1.47 1.27-1.53 2.22-0.61 3.34-1.2 6.68-1.81 10.02-0.72 0.15-1.5 0.28-2.25 0.41 1.06-2.98 2.26-5.92 3.22-8.94 0.28-0.77 0.06-1.67-0.62-2.15-0.63-0.77-1.9-0.94-2.56-0.13-0.98 1.23-1.37 2.82-1.97 4.25-0.95 2.53-1.87 5.15-2.84 7.63-0.74 0.07-1.52 0.14-2.24 0.19 1.76-3.38 3.69-6.67 5.29-10.12 0.48-1.52-1.3-2.98-2.73-2.41-1.01 0.35-1.27 1.52-1.83 2.32-1.89 3.39-3.71 6.83-5.56 10.24-0.53 0.01-1.07 0.02-1.59 0.02 2.18-3.55 4.57-7.01 6.7-10.61 0.53-1.45-1.06-3.24-2.57-2.65-1.14 0.56-1.69 1.81-2.42 2.78-2.22 3.37-4.38 6.77-6.57 10.16-0.44-0.04-0.88-0.08-1.32-0.13 2.41-3.5 5.01-6.87 7.31-10.44 0.79-1.05 0.09-2.62-1.1-2.99-0.93-0.38-2 0.1-2.46 0.96-2.87 3.86-5.6 7.87-8.5 11.66-0.69-0.13-1.37-0.28-2.05-0.44 3.37-3.75 6.9-7.35 10.19-11.17 0.83-1.23-0.26-2.98-1.68-3.03-1.14-0.17-1.8 0.94-2.54 1.6-3.6 3.72-7.06 7.58-10.64 11.31-0.41-0.13-0.82-0.27-1.22-0.41 3.98-4.39 8.19-8.59 12.16-13.01 0.64-0.73 1.47-1.73 0.97-2.75-0.5-1.31-2.5-1.76-3.38-0.59-4.8 4.8-9.39 9.81-14.13 14.67-0.28-0.23-1.26-0.32-1.05-0.66 5.82-6.36 11.57-12.77 17.48-19.05zm115.94 0.23l4.7 0.05c6.68 0.01 13.35 0.51 20 1.3 20.53 2.51 40.66 8.43 59.11 17.78 2.54 1.28 5.02 2.66 7.49 4.05 0.19 7.56 0.2 15.13 0.24 22.7 0.05 10.61 0.01 21.22-0.05 31.83-8.6-15.67-20.94-29.24-35.64-39.41-17.25-11.99-37.56-19.26-58.35-21.95-2.54-0.33-5.09-0.6-7.65-0.8 2.25-0.2 4.55-0.9 6.22-2.5 2.55-2.41 3.43-6.02 3.75-9.4 0.12-1.22 0.14-2.43 0.18-3.65zm-122.25 0.31l-0.43 0.47c-4.39 4.82-8.77 9.66-13.2 14.45-3.98 0.48-7.97 0.98-11.92 1.73-19.02 3.52-37.34 10.35-54.44 19.32-12.14 6.38-23.68 13.89-34.37 22.47-0.09-4.19-0.1-8.47 0.1-12.65 3.22-3.29 6.55-6.47 10.19-9.27 10.87-8.48 23.29-14.73 36.04-19.79 16.92-6.63 34.6-11.16 52.42-14.41 5.19-0.9 10.38-1.67 15.61-2.32zm199.2 1.74c0.8-0.02 1.11 1.2 0.37 1.56-0.69 0.51-1.62-0.53-1.12-1.21 0.16-0.24 0.46-0.36 0.75-0.35zm-4.16 3.8c1.54 2.32 5.1 2.8 7.24 1.04 0.24-0.19 0.46-0.4 0.66-0.63 0 2.21-0.01 4.41-0.03 6.62-2.6-1.22-5.25-2.33-7.89-3.47 0.02-1.17-0.02-2.43 0.02-3.56zm-154.81 6.57l0.03 0.07c0.31 0.87 0.76 1.68 1.25 2.45-0.19 1.54-0.35 3.09-0.59 4.62-0.57 0.22-1.27 0.56-1.77 0.66 0.39-2.6 0.75-5.2 1.08-7.8zm57.26 4.79l0.04 0.09 0.05 0.08c2.57 5.11 4.98 10.33 7.53 15.46 9.71 19.71 19.82 39.24 31.11 58.1 5.8 9.58 11.83 19.06 18.87 27.79 1.23 1.52 2.51 3.01 3.84 4.45-7.13 9.51-13.81 19.34-20.53 29.14-11.16 16.39-22.08 32.95-33.04 49.47-2.91 4.41-5.83 8.8-8.68 13.24-4.93 0.2-9.87 0.7-14.67 1.85-1.82-2.04-2.75-5-1.87-7.67 1.03-3.44 4.62-5.79 8.18-5.51 2.27 0.11 4.3 1.24 6.44 1.88l2.69 0.94c-1.99-2.76-4.29-5.33-5.84-8.37-1-2.1-1.11-4.58-0.45-6.79 0.76-2.49 3.04-4.23 5.51-4.82 2.51-0.68 5.13-0.33 7.64 0.06 0.98 0.2 1.72-0.96 1.25-1.8-1.17-2.21-2.46-4.49-2.64-7.05-0.17-1.54 0.52-3.23 2-3.89 2.19-1.06 4.69-0.77 7.03-0.6 0.97 0.1 1.75-1.02 1.23-1.87-0.6-0.93-1.49-1.67-1.89-2.73-1.43-3.42-0.61-7.42 1.27-10.5 1.47-2.54 4-4.35 6.81-5.09 2.94-0.85 5.96-0.76 8.99-0.94-1.56-2.19-3.68-4.22-4.1-7-0.29-2.14 1.3-3.94 2.95-5.08 2.07-1.39 4.46-2.46 6.98-2.63 0.85 0.08 1.84-0.11 2.28-0.94 0.44-0.73 0.84-1.48 1.26-2.21-2.89-1.95-5.99-3.76-7.97-6.71-0.85-1.22-1.21-2.96-0.25-4.23 1.45-1.98 3.82-2.94 6.03-3.79 0.88-0.34 1.83-0.52 2.64-1.01 0.54-1-0.02-2.13-0.09-3.18 0.13-0.81-0.64-0.55-1.17-0.58-3.27 0.04-6.72 0.1-9.71-1.43-2.25-1.07-3.96-3.36-3.92-5.91 0.02-3.48 2.09-6.55 4.4-8.98 1.46-1.49 3.07-2.82 4.6-4.24-2.71-0.05-5.52 0.23-8.11-0.77-4.54-1.6-8.34-5.58-9.25-10.36-0.53-2.61 0.28-5.46 2.22-7.3 0.51-0.57 1.31-1.25 0.91-2.09-0.03-0.64-0.82-0.61-1.3-0.72-1.58-0.2-3.01-0.36-4.59-0.77-3.59-0.91-7.23-2.84-9-6.25-1.65-3.1-1.11-6.9 0.44-9.94 0.51-1.18 1.37-2.17 1.93-3.33 0.39-0.91-0.42-1.9-1.36-1.89-1.87-0.03-3.76-0.62-5.17-1.89-2.53-2.21-3.91-5.95-2.78-9.2 0.45-1.37 1.56-2.36 2.72-3.15 0.82-0.55 0.72-1.9-0.19-2.3-1.35-0.55-2.78-0.92-4-1.74-3.2-1.93-5.43-5.66-4.96-9.46 0.21-2 1.22-3.84 2.57-5.3 1.71-0.18 3.44-0.39 5.12-0.54zm-10.78 1.41c-1.27 2.9-1.49 6.26-0.59 9.3-23.12 15.75-46.27 31.46-69.4 47.2-0.31-2.78-0.6-5.62-0.82-8.34 23.59-16.07 47.2-32.12 70.81-48.16zm-11.67 0.94c0.14 0 0.12 0.07-0.22 0.25-0.38 0.26-0.76 0.52-1.13 0.78-19.52 13.32-39.08 26.58-58.62 39.87-0.1-0.45-0.11-0.87 0.42-1.03 19.48-13.26 38.97-26.51 58.46-39.76 0.23 0.01 0.87-0.13 1.09-0.11zm-26.01 0.9l0.36 0.1c3.76 1.03 7.74 1.17 11.58 0.54 0.86-0.18 0.89-0.04 0.13 0.39-15.58 10.7-31.24 21.3-46.87 31.93-0.91-7.46-1.95-14.9-2.83-22.36-0.11-0.48-0.04-1 0.23-1.45 0.19-0.32 0.15-0.97 0.68-0.8 5.3-0.03 10.64-0.05 15.85-1.12 3.32-0.64 6.61-1.46 9.81-2.54 3.79-1.3 7.5-2.85 11.06-4.69zm-62.9 1.99l1.35 0.6c-14.78 1.29-29.19 5.36-42.95 10.8-19.35 7.73-37.53 18.3-54.03 31.01-2.05 1.56-4.08 3.25-6.07 4.83-0.36-0.29 0.26-0.54 0.28-0.88 13.24-11.52 28.08-21.05 43.83-28.77 12.54-6.12 25.79-11.15 39.33-14.43 6.02-1.45 12.13-2.55 18.26-3.16zm10.4 3.88c3.59 0.96 7.26 1.68 10.96 2.11-1.41 2.82-4.24 4.65-7.19 5.54-0.76 0.23-1.79 0.71-1.59 1.68 0.18 0.86 1.21 1.12 1.77 1.7 2.11 1.75 2.39 4.86 1.58 7.33-0.92 3.04-3.53 5.78-6.82 6.01-1.2 0.12-2.39 0.28-3.59 0.42 1.67 2.43 3.48 4.85 4.18 7.78 0.85 3.06 0.22 6.55-1.94 8.94-2.78 3.14-7.01 4.49-11.06 4.98l-4.02 0.47c1.3 1.5 2.93 2.75 3.89 4.52 1.59 3.06 0.75 6.79-1 9.59-2.35 3.8-6.52 6.54-11.02 6.75-1.46 0.07-3 0.14-4.49 0.22 2.74 2.41 5.67 4.77 7.42 8.04 1.37 2.44 2.07 5.61 0.58 8.15-1.59 2.69-4.8 3.8-7.75 4.13-1.72 0.26-3.45 0-5.17 0.17-0.83 0.11-1.16 0.98-1.21 1.72-0.12 0.67-0.33 1.5 0.13 2.06 2.5 0.91 5.09 1.6 7.25 3.24 1.27 0.91 2.37 2.46 1.88 4.1-0.67 2.23-2.53 3.84-4.29 5.25-1.21 1-2.63 1.76-3.85 2.71-0.6 0.82 0.17 1.69 0.59 2.39 0.37 0.4 0.48 1.28 1.17 1.09 2.91-0.18 5.72 0.98 8.1 2.57 1.61 1.13 3.25 2.83 3.09 4.95-0.19 2.11-1.6 3.79-2.76 5.44-0.53 0.85 0.24 1.98 1.21 1.91 3.87-0.08 7.98 0.71 11.01 3.27 2.81 2.3 4.17 6 4.12 9.57 0.04 1.66-0.16 3.45-1.33 4.74-1.05 1.29-2.19 2.5-3.28 3.76 2.93-0.25 5.82-0.92 8.75-0.28 1.61 0.31 3.27 1.37 3.53 3.11 0.38 2.42-0.7 4.77-1.8 6.86-0.43 0.8-1.26 1.8-0.59 2.71 0.72 0.91 1.98 0.39 2.93 0.31 3.22-0.46 6.87-0.18 9.42 2.06 2.17 1.87 2.69 5.03 1.97 7.69-0.64 2.72-2.3 5.01-3.94 7.21-0.26 0.4-0.59 0.87-0.21 1.3 0.23 0.79 1.25 0.78 1.88 0.48 2.71-1.04 5.82-1.97 8.65-0.83 2.23 0.99 4.01 3.03 4.7 5.37 0.78 2.82-0.64 5.7-2.5 7.76-0.57 0.59-1.34 1.44-0.81 2.29 0.61 0.94 1.87 0.58 2.8 0.82 2 0.25 4.11 1.35 4.75 3.39 0.21 0.65 0.39 1.45 0.31 2.08-4.38 0.47-8.76 0.92-13.13 1.38-3.41-5-6.65-10.11-10-15.15-15.38-23.39-30.8-46.76-46.69-69.82-4.47-6.46-8.98-12.9-13.69-19.19 6.65-7.29 12.19-15.51 17.51-23.81 10.09-15.98 19.08-32.64 27.73-49.44 3.94-7.66 7.74-15.39 11.54-23.12 0.1-0.16 0.18-0.36 0.32-0.48zm-5.24 0.71c-0.02 0.06-0.05 0.13-0.08 0.19-2.57 5.76-5.52 11.34-8.35 16.98-1.58 2.99-2.99 6.08-4.72 8.99-1.16 1.61-2.62 3.05-3.94 4.52-12.79 13.68-29.04 24.05-46.87 29.85-8.2 2.67-16.66 4.41-25.27 5.15-4.96 0.38-9.92 0.53-14.9 0.21-0.94-0.06-1.88-0.18-2.82-0.33 0.15-6 0.25-12.01 0.39-18.02 0.89-0.11 1.42-0.97 2.14-1.42 15.11-12.37 31.79-22.94 49.52-31.2 9.63-4.48 19.73-8.31 29.96-11.02 8.11-2.14 16.5-3.63 24.94-3.9zm131.86 5.83c-3.59-0.01-6.87 3.08-7.06 6.67-0.24 2.98 1.64 5.93 4.39 7.07 2.71 1.26 6.13 0.42 8.09-1.82 2.15-2.27 2.42-5.99 0.72-8.6-1.3-2.07-3.7-3.36-6.14-3.32zm-34.34 0.11l0.06 0.07 0.05 0.06c0.55 0.37-0.23 0.57-0.53 0.84-23.64 16.06-47.26 32.16-70.92 48.21-0.23-0.59 0.23-0.87 0.69-1.14 23.52-16.04 47.09-32.04 70.65-48.04zm67.19 0.96c0.06 0.03 0.13 0.06 0.19 0.08 12.09 5.43 23.2 12.88 32.6 22.24 6.99 6.94 12.97 14.85 17.84 23.41-9.78-15.97-23.28-29.67-39.23-39.5-3.69-2.28-7.49-4.36-11.4-6.23zm-149.46 1.75l0.01 0.09c1.6 14 3.25 27.98 4.76 41.99 0.75 7.46 1.5 14.95 2.01 22.43 0.27 0.74-0.26 0.8-0.89 0.71-0.79 0.25-0.73-0.42-0.74-1-0.88-12.44-2.23-24.84-3.62-37.23-0.62-5.45-1.31-10.89-2.05-16.33 0.12-0.82 0.48-1.6 0.58-2.44 0.43-2.54 0.08-5.26-1.25-7.49 0.41-0.22 0.81-0.46 1.19-0.73zm116.78 1.42c1.88-0.04 3.39 2.06 2.7 3.83-0.48 1.69-2.63 2.62-4.15 1.67-1.72-0.87-2.07-3.5-0.59-4.76 0.55-0.49 1.3-0.75 2.04-0.74zm-168.98 0.74c-2.21-0.02-4.34 1.39-5.12 3.46-1.01 2.41-0.2 5.49 2.03 6.93 1.19 0.83 2.69 1.13 4.11 0.87 2.71-0.32 4.91-2.87 4.84-5.59 0.04-2.52-1.77-4.95-4.25-5.5-0.53-0.12-1.07-0.18-1.61-0.17zm137.79 0.49v0.01h-0.01c-0.99 3.15-0.48 6.61 0.94 9.55 2.35 9.28 4.76 18.56 7.11 27.85-6.14 3.11-11.68 7.6-15.43 13.42-2.35 3.59-4.01 7.6-5.12 11.74-19.53-0.02-39.06 0.05-58.59-0.05-0.66-0.01-1.36-0.02-2.01-0.03-0.24-4.08-0.62-8.17-0.89-12.21 20.43-13.96 40.92-27.84 61.38-41.77 4.2-2.84 8.39-5.7 12.62-8.51zm52.53 3.17c-2.95-0.01-5.72 2.05-6.62 4.85-1.17 3.32 0.48 7.36 3.7 8.81 2.59 1.24 5.88 0.71 7.94-1.29 2.09-1.91 2.88-5.12 1.8-7.76-1.03-2.78-3.84-4.7-6.82-4.61zm-190.14 0.51c1.14-0.01 1.87 1.44 1.17 2.34-0.61 0.98-2.23 0.75-2.58-0.33-0.39-0.97 0.35-2.07 1.41-2.01zm190.34 3.71c1.94 0.01 3.51 2.23 2.67 4.04-0.6 1.59-2.67 2.38-4.13 1.44-1.53-0.75-1.95-2.87-0.98-4.22 0.53-0.8 1.48-1.28 2.44-1.26zm-210.04 1.28c-4.57 0-9.01 2.3-11.74 5.94-3.03 3.87-3.86 9.27-2.23 13.9 1.52 4.62 5.44 8.38 10.16 9.62 4.21 1.21 8.94 0.44 12.5-2.11 4.44-3.07 7.06-8.61 6.43-13.99-0.47-4.7-3.3-9.09-7.44-11.37-2.33-1.33-5-2.02-7.68-1.99zm232.75 5.44c-5.15-0.02-10.08 2.95-12.7 7.34-2.79 4.54-2.75 10.56-0.1 15.15 2.24 4.04 6.46 6.85 11.03 7.41 5.05 0.72 10.32-1.43 13.54-5.36 2.87-3.39 4.07-8.11 3.14-12.46-0.9-4.77-4.3-8.94-8.77-10.83-1.93-0.83-4.04-1.27-6.14-1.25zm-166.42 0.35l0.15 1.2c1.74 13.92 3.25 27.9 4.43 41.88 0.14 2 0.36 4.02 0.41 6.01-2.85 1.69-3.92 5.47-2.91 8.54 0.54 1.73 1.77 3.27 3.43 4.04 0 3.24-0.04 6.5-0.27 9.73-2.7 0.52-4.75 2.92-5.24 5.57-0.59 2.66 0.36 5.74 2.72 7.26 0.48 0.13 0.02 0.61-0.02 0.93-1.64 4.72-4.79 8.92-8.94 11.71-0.74-2.56-1.48-5.12-2.21-7.68 3.1-2.99 4.52-7.25 5.38-11.37 1.44-7.29 1.38-14.77 1.06-22.17-0.6-11.66-1.7-23.29-2.97-34.9 0-0.55-0.22-1.17-0.09-1.68 3.39-3.24 4.76-8.23 4.01-12.8-0.25-1.67-0.81-3.32-1.5-4.82 0.9-0.4 1.75-0.9 2.56-1.45zm-66.01 0.36c3.37 0 6.63 2.12 7.94 5.23 1.53 3.27 0.74 7.42-1.85 9.92-2.84 2.88-7.75 3.42-11.08 1.06-3.27-2.16-4.9-6.62-3.47-10.33 1.13-3.21 4.2-5.63 7.61-5.85 0.28-0.02 0.57-0.03 0.85-0.03zm25.95 0.1c-2.76-0.02-5.26 2.28-5.51 5.02-0.35 2.69 1.45 5.48 4.09 6.16 2.5 0.78 5.38-0.47 6.59-2.77 1.33-2.28 0.69-5.42-1.36-7.07-1.05-0.89-2.43-1.37-3.81-1.34zm112.97 0.99c-2.24-0.01-4.37 1.49-5.11 3.61-1.06 2.72 0.26 6.14 2.97 7.3 2.28 1.06 5.19 0.36 6.73-1.62 1.61-1.87 1.79-4.79 0.36-6.81-1.09-1.6-3.03-2.52-4.95-2.48zm-112.72 3.26c1.35-0.05 1.87 1.94 0.79 2.66-0.92 0.77-2.44-0.1-2.37-1.27-0.04-0.85 0.78-1.47 1.58-1.39zm112.91 0.91c1.15-0.01 2.03 1.54 1.15 2.41-0.6 0.93-2.08 0.65-2.47-0.32-0.52-0.95 0.32-2.08 1.32-2.09zm93.57 0.24c2.93-0.05 5.9 1.39 7.39 3.96 2.26 3.62 1.64 8.86-1.71 11.6-1.51 1.25-3.42 2.06-5.4 2.04-3.38 0.31-6.88-1.68-8.23-4.83-1.8-3.94-0.56-9.24 3.24-11.55 1.41-0.86 3.07-1.24 4.71-1.22zm-260.77 3.32c-2.21-0.02-4.39 1.37-5.18 3.46-1.02 2.42-0.15 5.47 2.05 6.91 1.03 0.74 2.3 1.13 3.57 0.95 1.72-0.06 3.39-0.95 4.36-2.39 1.81-2.54 1.02-6.48-1.65-8.1-0.94-0.59-2.05-0.86-3.15-0.83zm0.09 4.17c1.14-0.01 1.91 1.41 1.24 2.35-0.58 0.92-2.13 0.83-2.55-0.21-0.52-0.92 0.28-2.14 1.31-2.14zm59.54 4.23l-0.07 0.06c-11.52 10.43-25.35 18.19-40.26 22.67-9.03 2.73-18.49 4.33-27.9 4.78-4.56 0.16-9.1 0.13-13.63-0.27-0.06-0.59 0.18-0.79 0.72-0.6 5.5 0.51 11.04 0.3 16.54-0.1 10.97-0.93 21.8-3.38 32.09-7.28 11.84-4.49 22.9-11.02 32.51-19.26zm107.52 0.23c-2.66 0.01-5.19 2.09-5.55 4.76-0.47 2.62 1.1 5.42 3.61 6.32 2.92 1.2 6.62-0.61 7.46-3.66 0.83-2.51-0.41-5.44-2.72-6.69-0.85-0.48-1.82-0.74-2.8-0.73zm-19.31 0.01c-2.67 0-5.2 2.08-5.56 4.75-0.47 2.62 1.1 5.42 3.61 6.32 2.39 1 5.34-0.02 6.73-2.18 1.32-1.9 1.32-4.62-0.08-6.48-1.07-1.49-2.86-2.44-4.7-2.41zm51.42 4.03l0.09 0.05 0.08 0.04c0.4 0.21 0.96 0.29 0.94 0.85 5.63 20.43 11.27 40.85 16.9 61.28-0.58 0.49-1.13 1.02-1.66 1.57-5.48-21.25-10.93-42.52-16.35-63.79zm-32.06 0.21c1.18-0.05 2.06 1.63 1.1 2.45-0.64 0.88-2.09 0.59-2.45-0.41-0.45-0.92 0.34-2.06 1.35-2.04zm-19.23 0.02c1.25-0.01 1.84 1.7 0.97 2.53-0.77 0.86-2.41 0.36-2.49-0.82-0.18-0.93 0.58-1.77 1.52-1.71zm57.9 0.1c0.64 0.01 1.19 0.77 0.67 1.3-0.36 0.65-1.29 0.42-1.49-0.23-0.34-0.64 0.19-1.13 0.82-1.07zm19.04 0.19c13.95 9.69 26.68 21.18 37.54 34.27 0.62 0.75 1.22 1.49 1.82 2.25-4.46 1.15-8.86 2.55-13.18 4.15-7.78-9.73-14.39-20.38-20.73-31.13-1.84-3.16-3.7-6.38-5.45-9.54zm-141.32 0.12l0.03 0.27h0.01c1.16 10.86 2.2 21.71 2.74 32.6 0.12 5.32 0.18 10.66-0.03 15.95-0.38 3.72-0.83 7.61-2.55 11.01-0.2 0.33-0.25-0.7-0.38-0.91-0.16-0.6-0.48-1.21-0.13-1.8 1.36-4.43 1.54-9.1 1.67-13.69 0.14-10.77-0.77-21.52-1.77-32.24-0.34-3.55-0.73-7.1-1.09-10.65 0.51-0.16 1.01-0.35 1.5-0.54zm-77.74 2.1c-2.59-0.04-4.95 1.95-5.53 4.44-0.7 2.82 1.13 5.93 3.89 6.77 3.08 1.03 6.61-1.21 7.28-4.32 0.66-2.83-1.22-5.96-4.04-6.68-0.52-0.14-1.06-0.22-1.6-0.21zm234.09 0.14l0.08 0.06 0.05 0.04c10.99 8.31 21.22 17.62 29.79 28.39 0.98 1.23 1.92 2.51 2.83 3.76-0.36 0.05-0.83 0.34-0.99-0.17-9.15-12-20-22.64-31.76-32.08zm-183.29 2.37l-0.34 0.57c-0.57 0.88-0.99 1.9-1.91 2.48-7.63 6.3-16.38 11.08-25.49 14.78-11.51 4.63-23.67 7.57-36.02 8.4-4.98 0.32-9.93 0.25-14.91-0.27 0.14-0.48 0.05-1.25 0.33-1.56 4.29 0.39 8.61 0.33 12.91 0.19 23.67-0.95 47.17-9.38 65.43-24.59zm224.24 0.23c-3.06 0-6 2.17-6.78 5.15-0.89 3.01 0.4 6.54 3.14 8.13 2.59 1.62 6.18 1.3 8.45-0.73 2.53-2.1 3.18-6.03 1.52-8.85-1.25-2.25-3.74-3.74-6.33-3.7zm-86.3 1.27l0.03 0.09 0.02 0.06c0.13 0.48 0.25 0.94 0.36 1.39-4.55 2.51-8.68 5.96-11.43 10.41-1.48 2.34-2.57 4.9-3.44 7.51-0.56 0.01-1.11 0.02-1.66 0.03 0.97-2.96 2.17-5.95 3.9-8.54 2.97-4.64 7.38-8.32 12.22-10.95zm-188.67 0.22c1.39-0.08 1.98 2.03 0.8 2.73-1.08 0.81-2.75-0.49-2.23-1.74 0.23-0.57 0.81-1 1.43-0.99zm275.18 2.75c1.87-0.05 3.27 2.06 2.65 3.79-0.45 1.82-2.84 2.68-4.36 1.6-1.76-1.05-1.75-3.96 0.06-4.94 0.49-0.3 1.07-0.45 1.65-0.45zm-133.31 2.68c-2.64-0.02-5.05 2.07-5.49 4.66-0.57 2.88 1.4 6.04 4.31 6.64 2.62 0.65 5.51-0.87 6.54-3.36 1.12-2.41 0.16-5.45-2.01-6.92-0.98-0.68-2.17-1.04-3.35-1.02zm-19.28 0.01c-4.8-0.2-7.49 6.34-4.06 9.66 1.92 2.16 5.54 2.38 7.71 0.48 2.12-1.71 2.8-4.99 1.35-7.33-1.02-1.75-2.97-2.85-5-2.81zm38.64 0c-2.53-0.03-4.9 1.85-5.44 4.33-0.72 2.79 0.95 6.01 3.76 6.84 2.22 0.74 4.85-0.07 6.24-1.97 1.57-1.98 1.64-5.02 0.02-6.99-1.07-1.41-2.81-2.24-4.58-2.21zm29.3 1.6l0.03 0.1c0.65 2.5 1.3 5 1.91 7.51-2.71 2.07-4.56 5.08-5.63 8.28-1.35-2.31-4.01-3.66-6.65-3.63 1.38-3.53 3.53-6.8 6.33-9.32 1.27-1.07 2.63-2.02 4.01-2.94zm-118.61 1.36c0.02 0.3 0.05 0.6 0.08 0.9 0.48 6.17 1.01 12.35 1.26 18.51 0.09 3.41 0.1 6.86 0.05 10.27-2.3-8.05-4.64-16.11-6.91-24.17 2.19-1.44 4.01-3.38 5.52-5.51zm50.78 1.25c1.15 0 1.92 1.5 1.14 2.4-0.61 0.88-2.13 0.76-2.51-0.28-0.48-0.93 0.34-2.17 1.37-2.12zm19.32 0c1.16 0 1.92 1.5 1.14 2.4-0.61 0.88-2.13 0.76-2.51-0.28-0.48-0.93 0.34-2.17 1.37-2.12zm19.29 0c1.15-0.04 1.86 1.37 1.25 2.3-0.61 1.06-2.41 0.81-2.67-0.39-0.28-0.93 0.43-1.95 1.42-1.91zm-119.83 4.17l-0.04 0.06c-1.32 2.02-2.51 4.13-3.96 6.07-1.17 1.13-2.7 1.78-4.05 2.65-9.49 5.49-19.96 9.27-30.57 11.66-7.52 1.67-15.2 2.64-22.89 2.54-2.55-0.02-5.03-0.24-7.57-0.51-0.3 0-0.6 0.07-0.86 0.23 0.24-1.71 0.49-3.43 0.74-5.15 5.59 0.46 11.21 0.37 16.8-0.02 18.54-1.41 36.84-7.27 52.4-17.53zm164.92 0.34c0.05 0.04 0.11 0.07 0.16 0.11 1.05 0.64 2.17 1.19 3.32 1.62-0.81 1.04-1.51 2.18-2.08 3.37-0.47-1.7-0.94-3.4-1.4-5.1zm98.03 5.96c0.06 0.01 0.13 0.12 0.18 0.41l0.05 0.09 0.03 0.07c-0.59 0.34-0.45-0.58-0.26-0.57zm-110.28 0.9c0.02 0.03 0.03 0.08 0.04 0.2 0.1 0.57 0.4 1.17 0.38 1.73-1.58 2.82-1.98 6.11-2.33 9.28-0.69 7.86-0.3 15.77 0.16 23.64 0.47 7.32 1.15 14.63 1.9 21.92-0.63 2.11-0.95 4.32-0.85 6.53-1.38-12.74-2.7-25.49-3.11-38.3-0.13-5.45-0.14-10.88 0.63-16.22 0.49-2.96 1.11-6.07 2.95-8.52 0.11-0.07 0.18-0.32 0.23-0.26zm92.81 1.18c1.73-0.03 3.36 1.76 2.88 3.45-1.9 0.11-3.79 0.15-5.69 0.28-0.47-1.57 0.57-3.44 2.24-3.68 0.18-0.04 0.38-0.06 0.57-0.05zm-127.96 2.53c7.16 0.03 14.36-0.06 21.48 0.13 0.69 0.04 1.63-0.06 1.93 0.75 0.37 0.8 0.07 2.12-0.88 2.32-7.64 0.12-15.43 0.09-23.12 0.12-20.17 0.01-40.33 0.04-60.49-0.11-0.7-0.07-1.49 0.09-2.17-0.13-1.21-0.7-0.81-2.88 0.59-3.03 20.89-0.02 41.77-0.04 62.66-0.05zm-94.12 6.32l0.57 1.98c5.29 18.33 10.57 36.66 15.8 55-0.84-0.33-1.77-0.54-2.62-0.69 0.29-1.9 0.52-3.82 0.28-5.74-0.37-3.83-2.16-7.44-4.78-10.23-0.52-0.7-0.55-1.66-0.87-2.48-3.41-11.8-6.81-23.62-10.16-35.41 0.72-0.71 1.31-1.54 1.78-2.43zm120.13 1.08v0.05c-0.43 4.32-0.43 8.82-0.39 13.05-1.4-2.05-4.01-2.78-6.38-2.78-0.51-0.02-1.26 0.21-1.01-0.57 0-2.8 0.07-5.62 0.26-8.4 1.76-0.05 3.53 0.01 5.27-0.11 0.76-0.39 1.56-0.73 2.25-1.24zm-84.57 1.29c0.56-0.04 0.5 0.54 0.45 1.11-0.04 2.64-0.07 5.28-0.17 7.92-0.52-0.01-1.07 0.02-1.57-0.01 0.14-2.99 0.16-5.98 0.22-8.97h0.79c0.1-0.03 0.2-0.04 0.28-0.05zm71 0.07c0.12 0.01 0.23 0.03 0.32 0.08-0.12 2.96-0.15 5.92-0.21 8.88-0.45-0.13-1.4 0.26-1.54-0.19-0.02-2.9 0.05-5.82 0.2-8.74 0.36 0.03 0.86-0.06 1.23-0.03zm-24.25 0.01c5.78 0.01 11.56 0 17.34 0.05-0.16 2.94-0.21 5.89-0.25 8.84-19.29 0.02-38.58 0.04-57.88 0.06 0.13-2.97 0.14-5.94 0.2-8.92 13.53-0.01 27.06-0.03 40.59-0.03zm50.52 1.46l0.02 0.08c2.76 10.7 5.52 21.43 8.24 32.11-2.4 0.7-4.77 1.74-6.69 3.39-1.02-11.07-1.99-22.2-1.69-33.34 0.03-0.75 0.07-1.5 0.12-2.24zm14.61 0.68l0.07 0.04c1 0.5 2.15 0.87 3.18 1.17-0.85 0.64-1.65 1.38-2.3 2.23-0.32-1.15-0.64-2.29-0.95-3.44zm-154.62 1c0.06 0.03 0.09 0.1 0.09 0.23 0.09 0.29 0.17 0.59 0.26 0.88-0.35-0.34-0.73-0.65-1.13-0.94 0.23 0.02 0.6-0.25 0.78-0.17zm2.64 9.08c0.69 2.4 1.38 4.8 2.07 7.2 0.58 2.03 1.17 4.05 1.75 6.07-1.72-3.33-5.02-5.65-8.58-6.68 2.14-1.69 4.02-3.91 4.76-6.59zm-34.94 1.49l0.06 0.08 0.03 0.04c4.82 6.53 9.37 13.24 13.98 19.91 3.07 4.46 6.13 8.95 9.16 13.44-11.06-8.89-21.21-18.91-29.95-30.11-0.29-0.41-1.01-0.95-0.09-0.98 2.29-0.72 4.55-1.54 6.81-2.38zm127.72 0.68c8.82 0.02 17.65-0.03 26.47 0.06 1.46 0.31 1.45 2.89-0.02 3.15-10.78 0.15-21.58 0.1-32.37 0.12-17.3-0.01-34.62 0.01-51.9-0.16-0.64-0.02-1.46 0.16-1.84-0.53-0.73-0.97-0.03-2.74 1.27-2.6 19.47-0.01 38.93-0.03 58.39-0.04zm-142.6 3.98c0.16-0.01 0.3 0.03 0.38 0.24 9.47 12.74 20.77 24.07 33.15 33.99-10.98-8.29-21.29-17.62-29.84-28.43-1.46-1.85-2.86-3.75-4.2-5.7 0.17-0.01 0.35-0.08 0.51-0.1zm292.34 0.23c0.5 0.03 1 0.06 1.51 0.09l-0.86 1.74-0.65-1.83zm-85.96 0.15c0.01 0 0.04 0.02 0.1 0.08 0.01 0.16-0.13-0.06-0.1-0.08zm-211.34 0.71l0.03 0.04c5.11 7.59 11.14 14.53 17.71 20.91 12.2 11.85 26.08 21.9 40.72 30.54 0.59 0.34 1.16 0.77 1.46 1.41 7.09 10.69 14.18 21.38 21.17 32.14-5.16-0.35-10.3-0.93-15.37-1.77-17.28-3.01-34.11-9.19-48.81-18.9-10.64-7-20.07-15.79-27.8-25.83-7.76-10.05-13.87-21.4-18.31-33.3-0.34-0.96-0.76-1.98-1.01-2.89 2.94 0.09 5.91 0.04 8.84 0.09-0.83 3.23 1.09 6.77 4.09 8.09 2.86 1.37 6.55 0.47 8.48-2.04 1.61-1.97 2.05-4.83 1.05-7.19 2.59-0.38 5.18-0.78 7.75-1.3zm179.4 0.31c0.01 0.08 0.01 0.15 0.02 0.23 0.7 12.09 2.01 24.13 3.35 36.16-1.84 1.71-2.77 4.25-2.63 6.74 0.03 1.32 0.4 2.7 0.76 3.9-1.42 0.03-2.85 0.2-4.22 0.6-1.64-13.6-3.15-27.24-4.28-40.87-0.09-1.13-0.17-2.26-0.22-3.4 2.75 0.14 5.75-0.9 7.22-3.36zm-191.86 1.61c0.35 0.06 0.59 0.36 0.72 0.74 0.88 1.72-0.33 4.13-2.32 4.23-1.89 0.13-3.75-1.84-3.28-3.73 0.15-0.5 0.5-1 1.09-0.94 1.13-0.17 2.27-0.26 3.41-0.28 0.14-0.03 0.27-0.04 0.38-0.02zm-22.32 0.2c0.01-0.01 0.01 0 0.01 0.02 3.65 11.32 8.79 22.17 15.45 32.04 10.66 15.92 25.2 29.19 41.95 38.49 9.64 5.38 19.99 9.46 30.68 12.24-15.12-3.56-29.63-9.79-42.34-18.79-12.76-8.98-23.58-20.7-31.86-33.94-4.75-7.55-8.68-15.62-11.94-23.91-0.15-0.48-0.49-0.9-0.7-1.31-0.09-1.67-0.97-3.23-1.33-4.78 0.02-0.01 0.06-0.05 0.08-0.06zm321.82 1.46c3.19 0.02 6.4 0.03 9.55 0.35-0.07 0.52-0.15 1.03-0.22 1.55-13.17-1.33-26.52 0.17-39.31 3.44-13.14 3.41-25.86 8.75-37.17 16.32 0.63-0.83 1.11-1.81 1.83-2.56 8.17-5.28 16.92-9.61 26.15-12.68 10.68-3.57 21.93-5.55 33.22-6.31 1.99-0.09 3.96-0.11 5.95-0.11zm-194.46 0.05c0.42-0.03 0.17 0.43 0.06 0.79-1.92 6.19-5.72 11.81-10.9 15.73-1.05 0.8-2.14 1.53-3.26 2.22-0.15-0.52-0.31-1.04-0.46-1.56 3.65-2.26 6.92-5.19 9.28-8.79 1.73-2.56 2.98-5.41 3.92-8.35h1.13c0.09-0.02 0.17-0.04 0.23-0.04zm72.41 0.04c0.51 0.01 1.03 0 1.55 0 1.07 15.84 2.89 31.6 4.8 47.35-0.53 0.56-1.01 1.16-1.43 1.81-1.69-15.07-3.56-30.1-4.68-45.2-0.08-1.31-0.23-2.7-0.24-3.96zm-5.71 0l0.01 0.06c0.38 6.01 0.92 12.01 1.45 18-21.35 14.52-42.69 29.08-64.1 43.52-0.35 0.38-0.78 0.33-1.21 0.11-1.03-0.32-2.12-0.49-3.2-0.49 1.67-3.8 1.51-8.45-0.8-11.96-1.3-2.03-3.27-3.59-5.49-4.53-1.93-6.78-3.9-13.55-5.82-20.34 7.63-3.94 13.39-10.95 16.72-18.78 0.77-1.8 1.4-3.65 1.91-5.53 20.18-0.02 40.35-0.04 60.53-0.06zm-46.69 2.63c-3.02 0.02-5.69 2.82-5.54 5.84 0.01 2.63 2.04 5.11 4.65 5.53 1.89 0.39 3.91-0.36 5.21-1.76 2.06-2 2.03-5.6 0.07-7.66-1.1-1.23-2.73-1.98-4.39-1.95zm19.41 0.05c-2.41-0.03-4.7 1.64-5.38 3.95-0.9 2.54 0.41 5.53 2.75 6.78 2.24 1.27 5.35 0.73 6.98-1.29 1.46-1.67 1.89-4.21 0.85-6.21-0.91-1.99-3.02-3.27-5.2-3.23zm19.28 0.01c-2.37 0-4.64 1.62-5.33 3.9-0.92 2.53 0.37 5.52 2.7 6.79 2.2 1.28 5.27 0.8 6.93-1.16 1.48-1.62 1.98-4.11 1.04-6.13-0.87-2.11-3.07-3.46-5.34-3.4zm-91.61 3.42l0.43 1.47c0.29 1 0.57 2 0.86 3-0.64-0.16-1.29-0.3-1.94-0.41 0.53-1.28 0.76-2.68 0.65-4.06zm53.12 0.77c1.38-0.05 1.99 2.06 0.79 2.74-0.97 0.68-2.45-0.18-2.33-1.36 0.04-0.78 0.76-1.42 1.54-1.38zm19.31 0.02c0.94-0.03 1.66 0.93 1.39 1.82-0.18 1.15-1.81 1.55-2.52 0.64-0.9-0.92-0.16-2.55 1.13-2.46zm19.32 0c0.94-0.03 1.66 0.93 1.39 1.82-0.18 1.18-1.87 1.55-2.56 0.59-0.85-0.92-0.08-2.51 1.17-2.41zm-154.04 5.72c-3.24-0.01-6.21 2.51-6.86 5.66-0.69 2.99 0.83 6.29 3.52 7.74 2.11 1.22 4.86 1.29 6.96 0.02 2.75-1.55 4.34-5 3.47-8.08-0.73-2.9-3.44-5.14-6.43-5.32-0.22-0.01-0.44-0.02-0.66-0.02zm0.2 4.23c1.88-0.05 3.44 2.03 2.76 3.81-0.47 1.53-2.26 2.48-3.77 1.89-1.62-0.52-2.52-2.57-1.65-4.07 0.48-1 1.55-1.67 2.66-1.63zm269.44 0.41c-2.74-0.01-5.39 2.08-5.78 4.84-0.44 2.47 1.02 5.09 3.34 6.06 2.64 1.26 6.11 0.26 7.64-2.25 1.42-2.18 0.98-5.31-0.98-7.03-1.13-1.05-2.67-1.65-4.22-1.62zm-154.32 1.8c-2.52 0.01-4.94 1.83-5.5 4.32-0.65 2.49 0.6 5.3 2.9 6.47 2.9 1.66 7.03 0 8.05-3.17 0.97-2.63-0.36-5.8-2.87-7.02-0.79-0.41-1.69-0.62-2.58-0.6zm19.29 0c-2.51 0.03-4.91 1.84-5.47 4.32-0.65 2.49 0.6 5.3 2.9 6.47 2.79 1.61 6.72 0.12 7.91-2.83 1.1-2.45 0.12-5.54-2.11-6.99-0.95-0.64-2.09-0.99-3.23-0.97zm-165.63 1.19c8.38 16.79 20.18 31.95 34.85 43.7 14.39 11.6 31.43 19.79 49.38 24.12 8.8 2.15 17.82 3.39 26.87 3.82-2.73 1.92-3.97 5.26-4.47 8.44-0.11 0.65-0.18 1.3-0.25 1.95-4.16 0.39-8.3 0.53-12.49 0.56-5.07 0.05-10.18 0.19-15.25-0.16-26.9-1.43-53.72-8.5-77.4-21.52-0.42-0.34-1.32-0.39-1.15-1.09-0.17-7.06-0.13-14.13-0.17-21.19-0.03-12.87-0.05-25.78 0.08-38.63zm300.79 1.25c1.01-0.04 2.09 1.01 1.58 2.02-0.61 1.19-2.53 1.29-3.16 0.06-0.66-1.06 0.52-2.16 1.58-2.08zm-135.03 1.79c1.18 0.03 1.94 1.66 1.03 2.5-0.84 1.05-2.67 0.19-2.6-1.08 0.07-0.77 0.81-1.43 1.57-1.42zm-19.32 0.01c1.19 0.02 1.94 1.65 1.03 2.49-0.83 1.05-2.7 0.2-2.57-1.09 0.01-0.79 0.76-1.44 1.54-1.4zm48.62 1.22v0.02c0.21 0.59-0.21 0.88-0.68 1.13-18.94 12.91-37.9 25.79-56.86 38.68-0.75 0.5-1.49 1-2.26 1.47-0.51-0.38-0.26-0.64 0.25-0.89 19.83-13.49 39.68-26.97 59.55-40.41zm-143.89 0.07c-6.25 0-12.18 4.42-14.04 10.38-1.83 5.6 0.05 12.14 4.5 15.98 3.89 3.45 9.67 4.68 14.58 2.88 5.5-1.89 9.76-7.12 10.2-12.96 0.41-5.05-1.88-10.25-5.98-13.25-2.65-1.98-5.95-3.07-9.26-3.03zm226.05 4.49c-4.84-0.01-9.59 2.38-12.49 6.25-2.82 3.61-3.72 8.61-2.32 12.98 1.44 4.81 5.48 8.66 10.27 10.08 4.26 1.37 9.07 0.83 12.9-1.47 4.4-2.54 7.57-7.34 7.66-12.49 0.13-4.73-2.24-9.4-6.08-12.16-2.86-2.1-6.4-3.22-9.94-3.19zm-55.42 1.02c-0.01 0.2 0.23 0.56 0.06 0.64-0.01-0.16-0.11-0.93-0.06-0.64zm-170.05 0.66c4.31 0.01 8.13 3.72 8.48 7.98 0.4 3.8-1.93 7.72-5.52 9.08-2.96 1.24-6.55 0.66-8.97-1.45-2.58-2.14-3.73-5.81-2.83-9.04 0.96-3.93 4.85-6.69 8.84-6.57zm144.06 0.84l0.01 0.09 0.01 0.07c0.34 2.67 0.62 5.35 0.95 8.04-19.54 13.28-39.07 26.58-58.62 39.84-0.53-0.32-1.1-0.59-1.68-0.84 1.24-2.34 1.79-5.12 1.26-7.74 19.33-13.2 38.69-26.35 58.07-39.46zm110.96 1.14c-2.74-0.02-5.39 2.06-5.79 4.82-0.47 2.68 1.31 5.47 3.89 6.28 2.38 0.87 5.25 0.03 6.75-2.02 1.46-1.83 1.58-4.58 0.23-6.51-1.09-1.67-3.1-2.61-5.08-2.57zm-29.24 2.52c3.83-0.06 7.68 2.29 9.04 5.93 1.32 3.38-0.02 7.42-2.83 9.62-3.65 2.97-9.43 2.84-12.89-0.38-2.45-2.15-3.6-5.76-2.5-8.88 1.04-3.29 4.13-5.69 7.51-6.17 0.55-0.08 1.11-0.13 1.67-0.12zm-131.19 0.26c-2.42-0.03-4.72 1.66-5.39 3.98-0.9 2.51 0.37 5.45 2.66 6.73 2.09 1.27 4.94 0.81 6.66-0.88 1.66-1.49 2.31-3.99 1.48-6.08-0.76-2.26-3.03-3.8-5.41-3.75zm160.62 1.47c1.08-0.09 2.09 1.2 1.41 2.17-0.71 1.15-2.88 0.97-3.18-0.43-0.27-0.93 0.59-1.76 1.49-1.74 0.09-0.01 0.18-0.01 0.28 0zm-160.57 2.74c1.1-0.01 1.96 1.38 1.22 2.29-0.49 0.87-1.86 0.95-2.38 0.07-0.76-0.93-0.05-2.42 1.16-2.36zm103.45 1.68c-2.44 0.01-4.92 1.56-5.62 3.96-0.86 2.63 0.49 5.76 3.01 6.9 2.75 1.34 6.48 0.22 7.92-2.5 1.22-2.05 0.76-4.83-0.91-6.49-1.13-1.2-2.76-1.89-4.4-1.87zm0.05 4.23c1.07-0.08 2.11 1.09 1.56 2.11-0.67 1.37-3.27 1.01-3.29-0.61 0.04-0.86 0.88-1.55 1.73-1.5zm-52.34 0.57c0.17 0.52-0.13 0.79-0.57 1.01-17.23 11.76-34.49 23.51-51.76 35.21-1.11 0.75-2.23 1.5-3.36 2.22-0.19-0.33-0.11-0.58 0.26-0.74 5.25-3.7 10.62-7.23 15.91-10.87 13.17-8.95 26.33-17.94 39.52-26.83zm130.5 2.13v6.17 8.04c-4.48 5.02-9.58 9.42-15.09 13.3-11.52 8.11-24.43 14.21-37.64 19.13-15.92 5.89-32.36 10.03-49.09 12.89 5.65-6.22 11.29-12.46 17-18.63 0.74-0.7 1.39-1.63 2.34-2.09 4.7-0.95 9.32-2.26 13.9-3.67 15.97-5.02 31.32-11.95 45.86-20.24 7.86-4.5 15.48-9.44 22.72-14.9zm-253.64 2.87c-3.11 0-6.15 2.19-6.91 5.25-0.86 3.06 0.55 6.6 3.34 8.15 2.75 1.68 6.55 1.04 8.72-1.29 1.83-1.85 2.53-4.75 1.61-7.2-0.97-2.82-3.74-4.95-6.76-4.91zm124 1.97c0.07 0.48 0.13 0.95 0.19 1.43 0.31 2.36 0.61 4.73 0.93 7.09-4.75 1.34-8.42 5.76-8.85 10.68-0.22 2.26 0.27 4.59 1.45 6.54-0.6 0.41-1.19 0.89-1.55 1.53-3.79 1.41-7.59 2.85-11.17 4.76-4.05-1.28-8.39-1.17-12.55-0.58-5.84 0.67-11.69 1.29-17.55 1.9 16.36-11.14 32.72-22.26 49.1-33.35zm-123.98 2.29c1.66-0.06 3.02 1.53 2.88 3.14-0.01 1.73-1.86 3.09-3.52 2.63-1.66-0.3-2.77-2.19-2.16-3.77 0.38-1.19 1.54-2.06 2.8-2zm182.56 1.4c-2.42 0-4.87 1.5-5.62 3.87-0.87 2.45 0.22 5.37 2.46 6.68 2.28 1.51 5.5 1.01 7.42-0.85 1.63-1.52 2.2-4.05 1.28-6.09-0.89-2.19-3.18-3.68-5.54-3.61zm-161.14 2.98c-3.44-0.03-6.6 2.8-6.99 6.22-0.44 3.02 1.3 6.19 4.08 7.44 2.56 1.29 5.85 0.75 7.89-1.25 2.44-2.21 2.98-6.16 1.24-8.95-1.28-2.14-3.73-3.48-6.22-3.46zm161.17 1.24c1.07-0.03 2.2 1.24 1.49 2.24-0.82 1.23-3.15 0.83-3.27-0.72-0.01-0.89 0.96-1.53 1.78-1.52zm-161.02 3.06c1.62-0.07 3.01 1.43 2.88 3.03-0.03 1.49-1.37 2.84-2.88 2.74-1.75 0.24-3.24-1.58-2.93-3.25 0.15-1.46 1.44-2.63 2.93-2.52zm119.15 16.86c0.3 0.03 0.34 0.21-0.04 0.6-2.09 3.3-4.33 6.53-6.26 9.93-0.8 1.32 0.54 3.06 2.01 2.88 1.04-0.01 1.57-0.99 2.07-1.75 2.5-3.72 4.9-7.51 7.34-11.27 0.44 0.04 0.87 0.08 1.3 0.14-2.38 3.46-4.96 6.81-7.25 10.35-0.69 0.89-0.4 2.27 0.58 2.83 0.96 0.63 2.4 0.34 2.95-0.7 2.82-3.88 5.58-7.8 8.38-11.7 0.72 0.15 1.44 0.31 2.17 0.48-3.18 3.47-6.47 6.85-9.55 10.41-0.61 0.69-1.21 1.69-0.7 2.6 0.48 1.57 2.48 1.51 3.39 0.37 2.72-2.54 5.13-5.37 7.69-8.07 1.25-1.35 2.5-2.7 3.76-4.05 0.32 0.23 1.55 0.24 1.12 0.66-4.11 4.41-8.35 8.72-12.42 13.18-0.7 0.65-0.92 1.74-0.4 2.57 0.66 1.2 2.55 1.46 3.39 0.3 4.67-4.85 9.27-9.76 13.91-14.63 0.41 0.18 0.82 0.35 1.23 0.5-2.4 2.82-4.99 5.46-7.45 8.23-3.37 3.69-6.74 7.37-10.1 11.06-2.4-4.26-6.58-7.38-11.26-8.76-6.24-1.87-12.96-1.19-19.15 0.55-1.03 0.29-2.05 0.62-3.06 0.97 0.1-0.51 0.09-1.14 0.15-1.58 0.65 0.29 1.45 0.3 2.12 0.07 1.09-0.57 1.07-1.97 1.31-3.01 0.54-3.44 0.99-6.9 1.58-10.32 0.34 0 1.22-0.57 1.22-0.18-0.51 3.02-1.12 6.02-1.53 9.05-0.04 1.47 1.72 2.55 3 1.81 1.17-0.59 1.17-2.07 1.44-3.18 0.58-3 1.06-6.01 1.7-8.97 0.72-0.15 1.44-0.28 2.17-0.41-1.06 2.94-2.28 5.83-3.06 8.86-0.27 0.94-0.17 2.23 0.89 2.62 0.92 0.37 2.11 0.11 2.58-0.82 1.06-2.01 1.69-4.21 2.52-6.32 0.6-1.66 1.21-3.32 1.82-4.97 0.75-0.06 1.49-0.12 2.24-0.17-1.66 3.21-3.5 6.34-5.05 9.62-0.42 0.81-0.47 2 0.41 2.53 0.7 0.48 1.7 0.83 2.42 0.2 1.06-0.98 1.59-2.38 2.32-3.59 1.6-2.96 3.19-5.92 4.78-8.88 0.31-0.01 0.63-0.02 0.94-0.02 0.15-0.02 0.28-0.03 0.38-0.02zm93.43 2.76l0.01 0.01c0.78 2.09 1.63 4.14 2.24 6.29 0.47 2.4-1.04 4.61-2.6 6.28-3.21 3.33-7.25 5.73-11.22 7.99-4.38 2.44-8.9 4.62-13.48 6.66-1.86-3.3-3.74-6.58-5.58-9.9 1.77-1.51 3.46-3.11 5.11-4.76 8.8-3.54 17.38-7.68 25.52-12.57zm-119.19 1.61c-0.03 0.22-0.05 0.43-0.08 0.64-0.34 2.39-0.72 4.78-1.05 7.17-0.31-0.88-0.73-1.72-1.24-2.5 0.19-1.55 0.35-3.08 0.59-4.62 0.59-0.24 1.19-0.47 1.78-0.69zm-17.51 3.09c3.18 0.01 6.61 0.67 9.35 2.55 2.2 1.48 3.9 4.01 3.65 6.74-0.25 2.88-2.42 5.16-4.79 6.58-1.72 1.09-3.67 1.71-5.57 2.37-0.96 0.33-1.64 1.36-1.38 2.37 3.6 21.88 7.33 43.74 10.96 65.61-1.42 0.02-2.86 0.02-4.25-0.01-3.77-23.3-7.6-46.62-11.4-69.9-0.31-2.37-0.82-4.77-0.52-7.18 0.18-1.45 1.68-2.04 2.86-2.53 1.83-0.73 4.26-0.82 5.67 0.77 0.75 0.71 0.96 2.07 0.03 2.73-0.75 0.64-1.82 0.19-2.32-0.53-0.81-0.89-2.35-1.42-3.34-0.51-0.95 0.89-0.56 2.38 0.16 3.28 1.19 1.77 3.48 2.67 5.56 2.19 2.73-0.54 5.04-3.13 4.84-5.98-0.24-3.16-2.89-5.82-5.93-6.45-3.12-0.68-6.44 0.25-9.03 2.03-1.86 1.29-2.72 3.57-2.79 5.76-0.16 3.97 0.84 7.85 1.39 11.75 3.53 21.52 7.05 43.05 10.55 64.58-1.77 0.02-3.57 0.01-5.36 0.01-3.85-23.88-7.72-47.76-11.53-71.65-0.24-2.22-0.28-4.64 0.85-6.64 0.41-0.9 1.54-0.85 2.11-1.57 0.89-0.87 0.76-2.56-0.4-3.14-1.09-0.55-2.37-0.13-3.42 0.33-1.98 0.97-2.89 3.19-3.16 5.26-0.52 4.11 0.16 8.25 0.79 12.3 3.49 21.69 6.98 43.38 10.47 65.06-1.84 0.02-3.67 0.04-5.51 0.03-3.78-23.27-7.51-46.56-11.27-69.85-0.26-2.3-0.52-4.76 0.43-6.94 0.34-0.84 1.13-1.28 1.89-1.68 1.02-0.6 1.57-2.12 0.73-3.1-0.95-1.07-2.62-0.82-3.76-0.22-2.11 1.18-3.03 3.65-3.45 5.91-0.59 3.12-0.18 6.3 0.4 9.39 3.61 22.16 7.15 44.34 10.74 66.51-1.86 0-3.74 0.02-5.57-0.03-3.68-23.07-7.44-46.13-11.11-69.2-0.25-2.27-0.45-4.72 0.56-6.85 0.42-1.02 1.66-1.09 2.29-1.91 0.82-0.81 0.87-2.36-0.18-3.01-1.24-0.73-2.85-0.26-3.94 0.54-2.04 1.6-2.79 4.29-3.07 6.76-0.42 3.66 0.57 7.26 1.07 10.86 3.37 20.95 6.75 41.89 10.12 62.83-1.85 0.02-3.69 0.01-5.54 0.01-3.39-21.18-6.84-42.38-10.22-63.55-0.38-2.75-0.95-5.52-0.97-8.27 0.13-1.49 0.34-3.22 1.58-4.22 0.89-0.36 1.86-0.93 2.08-1.96 0.34-1.18-0.72-2.38-1.91-2.37-2.17 0.02-4.04 1.64-4.88 3.57-0.97 2.15-1.08 4.58-1.06 6.91 0.46 4.26 1.25 8.49 1.89 12.73 3.07 19.05 6.15 38.09 9.2 57.14-1.83 0.04-3.67 0.02-5.51 0.02-3.64-22.54-7.29-45.09-10.88-67.64-0.25-2.21-0.4-4.62 0.74-6.62 0.56-1.15 2.27-1.11 2.66-2.4 0.41-1.12-0.23-2.57-1.49-2.72-1.65-0.2-3.2 0.84-4.25 2.04-1.53 1.89-1.91 4.41-2.04 6.77-0.15 3.16 0.7 6.25 1.11 9.36 3.29 20.38 6.58 40.77 9.83 61.17-1.91 0.08-3.8 0.1-5.71 0.02-1.73-9.44-3.2-18.91-4.68-28.39-1.09-7.11-2.07-14.26-3.34-21.35-1.13-6.98-2.56-13.95-2.36-21.01 0.14-2.62 0.4-5.46 2.03-7.63 1.01-1.38 2.76-1.92 4.37-2.03 12.91-1.54 25.84-2.78 38.77-4.17 4.81-0.48 9.62-1.07 14.43-1.57 0.57-0.04 1.15-0.06 1.73-0.06zm-160.01 2.51c0.13 0.06 0.26 0.11 0.38 0.17 2.81 1.2 5.62 2.38 8.47 3.47v7.16c-0.92-2.29-3.68-3.58-6.04-2.83-1.12 0.33-2.14 1.02-2.81 1.99v-9.96zm302.16 4.89c0.07 0.13 0.15 0.26 0.22 0.39 2.95 5.19 5.92 10.41 8.7 15.66 0.36 1.6-1.02 3.33-2.69 3.17-0.89-0.01-1.8-0.46-2.13-1.34-2.64-4.5-5.23-9.06-7.78-13.61 1.35-1.31 2.69-2.66 3.68-4.27zm-40.99 4.22l-0.01 0.05c0.04 1.27 0.89 2.32 1.42 3.42 2.24 4.03 4.62 7.98 6.76 12.07 0.53 1 0.34 2.28-0.18 3.25-1.04 1.94-3.86 2.69-5.63 1.29-1.2-1.09-2.04-2.46-3.04-3.73-3.15-4.24-6.11-8.67-8.68-13.26 3.13-0.98 6.26-2 9.36-3.09zm-69.78 0.17c4.61-0.02 9.46 1.26 12.84 4.54 1.4 1.33 2.49 2.96 3.32 4.69-1.41 2.52-3.1 5.18-2.95 8.19 0.06 2.07 1.46 3.91 3.29 4.8 0.81 0.48 1.81 0.64 2.6 1.08-0.16 0.83-0.57 1.58-0.9 2.34-2.85-0.01-5.71-0.46-8.51-1.08-0.86-0.17-1.66 0.8-1.28 1.6-3.08-1.96-5.85-4.26-8.65-6.56-1.86-1.45-4.25-2.67-6.66-2.07-2.43 0.65-4.33 2.66-5.36 4.9-1.4 3.07-1.04 7.07 1.44 9.48 0.66 0.61 1.4 1.23 2.29 1.48 1.02 0.21 1.77-1.1 1.13-1.89-0.75-0.89-1.6-1.78-1.79-2.98-0.46-1.9 0.58-4.07 2.47-4.71 0.69-0.39 1.25 0.43 1.71 0.82 1.98 2.16 3.84 4.46 6.07 6.39 2.9 2.59 6.32 4.63 10.07 5.72-1.64 0.03-3 1.26-3.59 2.73-1.17 2.31-0.27 5.26 1.71 6.83 1.41 1.23 3.65 1.62 5.24 0.49 0.98-0.54 1.47-1.93 0.76-2.88-0.62-0.91-1.83-1.1-2.85-0.89-0.74 0.12-1.47-0.61-1.17-1.35 0.15-0.29 0.24-0.98 0.72-0.7 1.98 0.65 3.94 1.71 6.09 1.53 1.1-0.07 2.14-0.5 3.09-1.02 1.88 0.33 3.77 0.86 5.41 1.86-3.19 3.35-6.67 6.5-9.27 10.37-2.65 3.78-4.17 8.24-4.87 12.78-0.44 2.63-0.65 5.34-0.89 7.95-8.79-0.02-17.58 0.06-26.37-0.06-3.64-21.49-7.24-43-10.79-64.51 2.68-0.95 5.27-2.29 7.29-4.33 0.68-0.58 1.19-1.4 1.97-1.83 5.15-2.11 10.74-3.72 16.39-3.71zm103.76 2.62c0.53 0.93 1.05 1.85 1.57 2.77 3.95 7.01 7.94 13.99 11.84 21.03 0.69 1.7-0.91 3.75-2.73 3.5-0.93-0.04-1.75-0.63-2.12-1.47-4.13-7-8.08-14.13-11.96-21.26-0.29-0.55-0.58-1.1-0.87-1.65 1.44-0.96 2.87-1.91 4.27-2.92zm-290.89 0.11c1.39 0.09 0.72 2.28-0.5 1.59-0.7-0.45-0.41-1.7 0.5-1.59zm4.59 2.88v12.56c-0.71-1.71-2.43-2.92-4.29-2.94-1.75-0.13-3.59 0.63-4.56 2.13v-10.98c1.32 2.03 4.2 2.92 6.38 1.78 1.09-0.53 1.98-1.45 2.47-2.55zm278.27 2.18l0.25 0.44c5.02 8.82 10.01 17.68 14.88 26.6 0.47 1.47-0.8 3.29-2.39 3.26-1.07 0.05-2.17-0.53-2.57-1.56-5.14-8.64-10.24-17.29-15.33-25.96 1.72-0.93 3.47-1.85 5.16-2.78zm-257.25 1.48c7.6 0.02 14.85 3.43 20.71 8.15 7.68 6.26 13.47 14.98 15.73 24.66 0.65 2.87 0.98 5.81 0.86 8.75-0.2 5.21-1.68 10.45-4 15.2-4.08 8.28-10.72 15.52-18.87 19.96-4.38 2.37-9.32 3.95-14.37 4.03-1.35 0.01-2.71-0.13-4.04-0.38 0.45-0.34 0.87-0.7 1.28-1.08 4.2 0.75 8.49-0.3 12.41-1.78 10.49-4.07 19.32-12.51 23.4-23.05 3.42-8.67 3.44-18.58 0.17-27.29-2.66-7.24-7.45-13.66-13.58-18.34-4.89-3.74-10.57-6.66-16.71-7.55-1.92-0.27-3.88-0.29-5.79 0.02-0.36-0.34-0.86-0.69-1.17-0.97 1.31-0.2 2.64-0.32 3.97-0.33zm247.63 3.47l0.06 0.07 0.01 0.01c2.99 4.32 5.59 8.9 8.23 13.43 1.88 3.31 3.78 6.62 5.47 10.04 0.58 1.68-0.94 3.72-2.75 3.44-1.03-0.07-1.89-0.76-2.31-1.68-3.98-6.79-7.79-13.69-11.53-20.63-0.4-0.78-0.92-1.55-1-2.46-0.35-0.53 0.24-0.6 0.62-0.79 1.07-0.48 2.14-0.96 3.2-1.43zm-246.99 1.88c0.08 0.01 0.16 0.01 0.24 0.01 7.1 0.4 13.68 4.03 18.74 8.87 6.5 6.25 10.97 14.78 11.74 23.82h-48.51v-7.65c7.76-1.63 15.52-3.22 23.27-4.85-0.44-6.98-1.69-14.19-5.48-20.2zm-26.26 4.79c0.94-0.02 1.14 1.53 0.16 1.67-0.79 0.21-1.35-0.83-0.85-1.42 0.16-0.21 0.45-0.26 0.69-0.25zm4.61 2.8v12.67c-0.85-2.03-3.11-3.33-5.28-3-1.43 0.17-2.78 0.97-3.58 2.17 0.02-3.61-0.03-7.43 0.03-10.91 1.58 2.4 5.32 3.01 7.43 0.96 0.6-0.52 1.08-1.17 1.4-1.89zm195.93 6.6l0.08 0.02c1.8 0.5 3.69 0.56 5.53 0.81 0.42 0.07 0.5 0.16 0.04 0.18-1.93 0.2-3.86-0.3-5.65-1.01zm-200.54 7.27c0.85-0.01 1.16 1.36 0.3 1.63-0.75 0.38-1.49-0.6-1.05-1.28 0.13-0.27 0.47-0.35 0.75-0.35zm202.33 1.55c0.78 0.15 1.64 0.18 2.39 0.33 0.37 0.49-0.29 0.34-0.6 0.28-0.6-0.13-1.33-0.39-1.79-0.61zm-197.72 1.28v12.63c-1.03-2.49-4.19-3.73-6.64-2.65-0.91 0.38-1.68 1.05-2.22 1.86 0.01-3.64-0.02-7.41 0.02-10.97 1.37 2.15 4.47 2.92 6.66 1.57 0.96-0.55 1.73-1.42 2.18-2.44zm187.2 11.94c-1.83 0.05-3.51 0.88-5.27 1.31-0.28 0.16-1.81 0.36-0.96 0.5 2.4 0.63 4.86 1.14 7.2 1.89-1.44-0.44-2.78 0.71-3.31 1.97-0.5 1.07-0.69 2.27-0.64 3.45-1.24-0.38-2.64-0.73-3.49-1.77-0.02-0.37 0.53-0.52 0.75-0.76 0.59-0.42 0.7-1.22 0.3-1.81-0.36-0.46-1.13-0.37-1.7-0.29-3.48 0.43-6.94 1.04-10.4 1.66 1.89 0.73 3.85 1.29 5.7 2.13 2.26 1.26 3.9 3.42 6.29 4.48 2.67 1.32 5.73 1.42 8.64 1.18 1.02-0.14 2.15-0.03 3.05-0.59 0.78-0.57 0.4-1.62-0.08-2.27-0.48-0.74-1.08-1.57-2.02-1.72 0.09-1.93-0.65-4-2.19-5.22-0.22-0.15-0.45-0.28-0.7-0.38 0.92 0.23 1.91 1.02 2.86 0.46 0.74-0.5 0.57-1.53 0.03-2.12-0.89-1.33-2.45-2.14-4.06-2.1zm-183.33 0.46h24.28 24.29c-0.01 7.54-3.31 14.78-8.04 20.54-4.88 5.89-11.56 10.59-19.13 12.26-1.18 0.27-2.4 0.4-3.61 0.46 3.15-4.97 4.46-10.85 5.15-16.63 0.2-1.69 0.31-3.39 0.44-5.09-4.08-1-8.22-1.75-12.32-2.64-3.67-0.77-7.34-1.54-11.01-2.3-0.02-2.2-0.04-4.4-0.05-6.6zm-8.54 1.41c0.8-0.02 1.19 1.1 0.55 1.56s-1.63-0.2-1.31-0.96c0.09-0.35 0.4-0.62 0.76-0.6zm246.68 2.21v4.83h0.57c2.2 0 4.13 0.5 5.8 1.5 1.64 1.02 3.19 2.71 4.66 5.05l18.19 27.91-18.06 17.53c-1.46 1.46-2.83 2.5-4.09 3.12-1.29 0.64-2.91 1.03-4.87 1.14v4.84h23.51v-4.84c-2.79 0-4.78-0.42-5.98-1.27s-1-2.05 0.61-3.61l26.15-26.19v26.28c0 0.88-0.11 1.63-0.35 2.24-0.23 0.62-0.76 1.19-1.58 1.72-0.82 0.55-2.62 0.83-5.41 0.83v4.84h24.61v-4.84c-3.1 0-5.24-0.41-6.41-1.23-0.65-0.47-0.97-1.65-0.97-3.56l-0.04-46.67c0-0.88 0.11-1.62 0.35-2.24 0.23-0.61 0.77-1.2 1.62-1.76 0.85-0.52 2.67-0.79 5.45-0.79v-4.83h-24.61v4.83c3.11 0 5.22 0.41 6.33 1.23 0.65 0.47 0.97 1.66 0.97 3.56l0.04 12.92-10.81 10.51-13.49-21.58c-2.78-4.28-1-6.49 5.36-6.64v-4.83h-27.55zm-242.01 0.67v12.63c-1.03-2.53-4.3-3.8-6.76-2.6-0.84 0.39-1.58 1.02-2.1 1.79v-10.97c1.47 2.26 4.85 2.92 7.04 1.34 0.79-0.54 1.43-1.31 1.82-2.19zm-4.67 13.8c0.8-0.02 1.19 1.1 0.55 1.56s-1.63-0.2-1.31-0.96c0.09-0.35 0.4-0.62 0.76-0.6zm4.67 2.86v7.82h-8.86v-6.96c1.39 2.19 4.56 2.87 6.75 1.52 0.93-0.55 1.68-1.39 2.11-2.38zm97.11 6.16c0.84 0.01 1.67 0.02 2.5 0.01 15.76 0.01 31.53 0.02 47.29 0.03 17.36 0.01 34.71 0.02 52.07 0.03 0.85 0.44 0.93 1.84-0.01 2.23-1.05 0.2-2.17 0.05-3.25 0.11-29.81 0.11-59.61 0.09-89.41 0.05-3.85-0.02-7.73 0.01-11.56-0.07-1.09-0.25-1.22-2-0.12-2.34 0.82-0.05 1.66-0.06 2.49-0.05zm-105.87 5.53h4.33 4.43c-0.07 0.51 0.13 1.3-0.1 1.65h-8.76c0.07-0.51-0.13-1.3 0.1-1.65zm107.54 0.84h47.87 47.87v4.89h-95.74v-4.89zm-107.54 4.79h4.33 4.43c-0.07 0.52 0.13 1.3-0.1 1.66h-8.76c0.07-0.52-0.13-1.3 0.1-1.66zm150.62 3.93c18.4 0.02 36.82-0.01 55.21 0.18 0.72 0.07 1.51-0.08 2.18 0.14 0.89 0.66 0.22 2.33-0.89 2.12-17.8 0.12-35.64 0.08-53.45 0.09-16.64-0.03-33.3 0-49.93-0.12-1.05 0.15-1.54-1.37-0.77-2 0.43-0.43 1.14-0.14 1.7-0.25 15.3-0.17 30.64-0.14 45.95-0.16zm-150.62 2.44h4.33 4.43c-0.07 0.51 0.13 1.3-0.1 1.65h-8.76c0.07-0.51-0.13-1.3 0.1-1.65zm110.88 4.79h46.62 46.69c1.82 1.69 3.63 3.37 5.44 5.05-6.19-2.82-13.11-4.32-19.92-3.51-8.3 0.92-15.93 4.87-22.7 9.59-2.2 1.54-4.32 3.18-6.42 4.86-5.97-6.44-13.66-11.43-22.24-13.56-8.82-2.26-18.25-1.41-26.77 1.65-2.38 0.84-4.7 1.84-6.95 2.97 2.08-2.35 4.16-4.7 6.25-7.05zm-115.78 0.73h8.81 8.81v1.77h-17.62v-1.77zm198.3 4.54c5.59 0.05 11.03 2 16.04 4.4 3.46 1.7 6.78 3.61 9.93 5.79 1.75 1.41 3.4 2.94 5.02 4.49-20.68 0.07-41.36 0.06-62.04 0.07 6.18-4.99 12.79-9.42 20.19-12.36 3.47-1.32 7.13-2.39 10.86-2.39zm-66.01 0c7.86-0.07 15.62 2.54 22.08 6.96 3.34 2.21 6.31 4.93 9.12 7.77-2.22 0.04-4.61 0.01-6.89 0.02-19.5-0.01-38.99 0-58.48-0.07 6.65-5.92 14.51-10.63 23.1-13.09 3.6-1.01 7.33-1.58 11.07-1.59zm-122.78 2.31c2.54 0.01 4.86 2.06 5.15 4.58 0.38 2.77-1.82 5.61-4.63 5.82-2.5 0.38-5.01-1.42-5.63-3.84-0.9-2.93 1.41-6.26 4.44-6.53 0.22-0.03 0.45-0.04 0.67-0.03z" transform="matrix(.99997 0 0 .99997 0 -.000030517)" fill="url(#e)"/>
</svg>