<svg xmlns:rdf="http://www.w3.org/1999/02/22-rdf-syntax-ns#" xmlns="http://www.w3.org/2000/svg" xmlns:cc="http://creativecommons.org/ns#" xmlns:xlink="http://www.w3.org/1999/xlink" xmlns:dc="http://purl.org/dc/elements/1.1/" height="181.53mm" width="181.53mm" version="1.1" viewBox="0 0 643.21653 643.21653">
<defs>
<linearGradient id="g" x1="130" xlink:href="#b" gradientUnits="userSpaceOnUse" x2="130" gradientTransform="matrix(4.0001 0 0 4.0001 -1794.3 -1865.7)" y1="542.36" y2="392.36"/>
<linearGradient id="b">
<stop stop-color="#cfcfd2" offset="0"/>
<stop stop-color="#f7f7f7" offset="1"/>
</linearGradient>
<linearGradient id="f" x1="55" xlink:href="#b" gradientUnits="userSpaceOnUse" x2="215" gradientTransform="matrix(4.0001 0 0 4.0001 -1794.3 -1865.7)" y1="467.36" y2="467.36"/>
<clipPath id="h" clipPathUnits="userSpaceOnUse">
<rect ry="30" height="160" width="160" stroke="#000" y="387.36" x="55" stroke-width="0.8" fill="none"/>
</clipPath>
<filter id="c" style="color-interpolation-filters:sRGB" height="3.9618" width="1.1916" y="-1.4809" x="-.095824">
<feGaussianBlur stdDeviation="6.7875"/>
</filter>
<filter id="a" style="color-interpolation-filters:sRGB" height="3.9618" width="1.1916" y="-1.4809" x="-.095824">
<feGaussianBlur stdDeviation="6.7875"/>
</filter>
<linearGradient id="d" y2="532.36" gradientUnits="userSpaceOnUse" y1="402.36" gradientTransform="matrix(4.0001 0 0 4.0001 -1794.3 -1865.7)" x2="140" x1="140">
<stop stop-color="#e0e0e0" offset="0"/>
<stop stop-color="#eaeaea" offset="1"/>
</linearGradient>
<linearGradient id="e" y2="543.9" gradientUnits="userSpaceOnUse" x2="186.95" y1="94.866" x1="185.63">
<stop stop-color="#161616" offset="0"/>
<stop stop-color="#404040" offset="1"/>
</linearGradient>
</defs>
<g transform="translate(1575.9 317.82)">
<rect ry="120" height="640.02" width="640.02" stroke="url(#f)" y="-316.22" x="-1574.3" stroke-width="3.2001" fill="url(#g)"/>
<g clip-path="url(#h)" transform="matrix(4.0001 0 0 4.0001 -1794.3 -1865.7)">
<path d="m135 542.36a90.002 13 0 0 0 -85 8.77c4.8596 1.4338 10.182 2.2285 15.772 2.2285h138.46c5.5874 0 10.906-0.79421 15.764-2.2266a90.002 13 0 0 0 -84.99 -8.77z" filter="url(#c)" fill="#666"/>
<g fill="#fff">
<path filter="url(#a)" d="m135 393.36a90.002 13 0 0 1 -85 -8.77c4.8596-1.4338 10.182-2.2285 15.772-2.2285h138.46c5.5874 0 10.906 0.79421 15.764 2.2266a90.002 13 0 0 1 -84.99 8.77z"/>
<path filter="url(#a)" d="m135 393.36a90.002 13 0 0 1 -85 -8.77c4.8596-1.4338 10.182-2.2285 15.772-2.2285h138.46c5.5874 0 10.906 0.79421 15.764 2.2266a90.002 13 0 0 1 -84.99 8.77z"/>
<path filter="url(#a)" d="m135 393.36a90.002 13 0 0 1 -85 -8.77c4.8596-1.4338 10.182-2.2285 15.772-2.2285h138.46c5.5874 0 10.906 0.79421 15.764 2.2266a90.002 13 0 0 1 -84.99 8.77z"/>
</g>
<path d="m135 542.36a90.002 13 0 0 0 -85 8.77c4.8596 1.4338 10.182 2.2285 15.772 2.2285h138.46c5.5874 0 10.906-0.79421 15.764-2.2266a90.002 13 0 0 0 -84.99 -8.77z" filter="url(#c)" fill="#666"/>
</g>
<rect ry="120" height="640.02" width="640.02" stroke="#000" y="-316.22" x="-1574.3" stroke-width="2.8001" fill="none"/>
<rect ry="160" height="520.01" width="520.01" y="-256.22" x="-1514.3" fill="url(#d)"/>
<path d="m208.34 95.314c-10.28 0-18.6 8.326-18.6 18.596 0 5.35 2.26 10.17 5.87 13.56-1.51-0.39-3.09-0.6-4.73-0.6-10.27 0-18.6 8.32-18.6 18.59 0 10.28 8.33 18.6 18.6 18.6 5.97 0 11.28-1.94 14.68-6.3-0.85 11.39-1.75 21.2-1.75 21.2h11.14s-1.31-10.81-2.42-23.35c3.36 4.83 8.95 7.55 15.27 7.55 10.28 0 18.6-8.55 18.6-18.82 0.01-10.27-8.32-18.81-18.59-18.81l-0.01-0.01c-1.99 0-3.9 0.32-5.69 0.89 3-3.3 4.83-7.68 4.83-12.5 0-10.27-8.33-18.596-18.6-18.596zm223.89 0c-10.28 0-18.61 8.326-18.61 18.596 0 5.35 2.27 10.17 5.88 13.56-1.51-0.39-3.09-0.6-4.73-0.6-10.27 0-18.6 8.32-18.6 18.59 0 10.28 8.33 18.6 18.6 18.6 5.97 0 11.28-1.94 14.68-6.3-0.85 11.39-1.75 21.2-1.75 21.2h11.14s-1.32-10.81-2.42-23.35c3.36 4.83 8.95 7.55 15.27 7.55 10.27 0 18.6-8.55 18.6-18.82s-8.32-18.81-18.59-18.81l-0.01-0.01c-1.99 0-3.9 0.32-5.69 0.89 3-3.3 4.83-7.68 4.83-12.5 0-10.27-8.33-18.596-18.6-18.596zm-228.62 36.596c0.12 0.03 0.24 0.06 0.36 0.08-0.02 0.06-0.06 0.12-0.08 0.18-0.09-0.09-0.19-0.18-0.28-0.26zm223.88 0c0.13 0.03 0.25 0.06 0.37 0.08l-0.09 0.18c-0.09-0.09-0.18-0.18-0.28-0.26zm-219.15 76.89c-10.28 0-18.6 8.32-18.6 18.6 0 5.34 2.26 10.16 5.87 13.56-1.51-0.4-3.09-0.61-4.73-0.61-10.27 0-18.6 8.32-18.6 18.6 0 10.27 8.33 18.59 18.6 18.59 5.97 0 11.28-2.18 14.68-6.54-0.85 11.39-1.75 20.95-1.75 20.95h11.14s-1.31-10.56-2.42-23.1c3.36 4.83 8.95 7.67 15.27 7.67 10.28 0 18.6-8.49 18.6-18.76s-8.32-18.76-18.59-18.76h-0.01c-1.99 0-3.9 0.32-5.69 0.9 3-3.31 4.83-7.69 4.83-12.5 0-10.28-8.33-18.6-18.6-18.6zm223.89 0c-10.28 0-18.61 8.32-18.61 18.6 0 5.34 2.27 10.16 5.88 13.56-1.51-0.4-3.09-0.61-4.73-0.61-10.27 0-18.6 8.32-18.6 18.6 0 10.27 8.33 18.59 18.6 18.59 5.97 0 11.28-2.18 14.68-6.54-0.85 11.39-1.75 20.95-1.75 20.95h11.14s-1.32-10.56-2.42-23.1c3.36 4.83 8.95 7.67 15.27 7.67 10.27 0 18.6-8.49 18.6-18.76s-8.32-18.76-18.59-18.76h-0.01c-1.99 0-3.9 0.32-5.69 0.9 3-3.31 4.83-7.69 4.83-12.5 0-10.28-8.33-18.6-18.6-18.6zm-228.62 36.58c0.12 0.04 0.24 0.06 0.36 0.09-0.02 0.06-0.06 0.12-0.08 0.17-0.09-0.08-0.19-0.17-0.28-0.26zm223.88 0c0.13 0.04 0.25 0.06 0.37 0.09-0.03 0.06-0.06 0.12-0.09 0.17-0.09-0.08-0.18-0.17-0.28-0.26zm-108.28 38.07c-10.27 0-18.6 8.32-18.6 18.6 0 5.35 2.26 10.16 5.87 13.56-1.51-0.4-3.09-0.61-4.72-0.61-10.28 0-18.6 8.32-18.6 18.6 0 10.27 8.32 18.6 18.6 18.6 5.96 0 11.27-1.96 14.67-6.33-0.85 11.39-1.75 21.17-1.75 21.17h11.15s-1.32-10.78-2.43-23.32c3.36 4.82 8.95 7.56 15.28 7.56 10.27 0 18.6-8.54 18.6-18.81 0.01-10.27-8.32-18.8-18.59-18.8l-0.01-0.02c-1.99 0-3.9 0.32-5.7 0.9 3-3.31 4.83-7.69 4.83-12.5 0-10.27-8.33-18.6-18.6-18.6zm-4.73 36.58c0.12 0.04 0.24 0.06 0.37 0.09-0.03 0.06-0.06 0.12-0.09 0.17-0.09-0.08-0.18-0.17-0.28-0.26zm-110.02 17.79s0.9 9.57 1.75 20.97c-3.4-4.38-8.71-6.55-14.68-6.55-10.27 0-18.6 8.33-18.6 18.6s8.33 18.6 18.6 18.6c1.63 0 3.22-0.21 4.73-0.61-3.61 3.39-5.88 8.21-5.88 13.56 0 10.27 8.33 18.6 18.61 18.6 10.27 0 18.59-8.33 18.59-18.6 0-4.81-1.83-9.2-4.82-12.5 1.79 0.58 3.71 0.89 5.69 0.89l0.01-0.01c10.27 0 18.59-8.48 18.59-18.75s-8.33-18.76-18.6-18.76c-6.33 0-11.91 2.85-15.27 7.67 1.1-12.54 2.42-23.11 2.42-23.11h-11.14zm223.88 0s0.9 9.57 1.75 20.97c-3.4-4.38-8.71-6.55-14.68-6.55-10.27 0-18.6 8.33-18.6 18.6s8.33 18.6 18.6 18.6c1.64 0 3.22-0.21 4.73-0.61-3.61 3.39-5.87 8.21-5.87 13.56 0 10.27 8.32 18.6 18.6 18.6 10.27 0 18.6-8.33 18.6-18.6 0-4.81-1.83-9.2-4.83-12.5 1.8 0.58 3.71 0.89 5.7 0.89l-0.01-0.01c10.27 0 18.6-8.48 18.6-18.75s-8.32-18.76-18.59-18.76c-6.33 0-11.92 2.85-15.28 7.67 1.11-12.54 2.42-23.11 2.42-23.11h-11.14zm-223.81 46.32c0.03 0.06 0.06 0.12 0.09 0.17v0.01c-0.12 0.03-0.25 0.06-0.36 0.08 0.09-0.08 0.18-0.17 0.27-0.26zm223.89 0c0.03 0.06 0.05 0.12 0.08 0.17l0.01 0.01c-0.13 0.03-0.25 0.06-0.37 0.08 0.09-0.08 0.19-0.17 0.28-0.26zm-223.96 76.25s0.9 9.51 1.75 20.91c-3.4-4.37-8.71-6.59-14.68-6.59-10.27 0-18.6 8.32-18.6 18.6 0 10.27 8.33 18.6 18.6 18.6 1.63 0 3.22-0.22 4.73-0.61-3.61 3.39-5.88 8.21-5.88 13.56 0 10.27 8.33 18.6 18.61 18.6 10.27 0 18.59-8.33 18.59-18.6 0-4.81-1.83-9.2-4.82-12.5 1.79 0.57 3.71 0.89 5.69 0.89l0.01-0.02c10.27 0 18.6-8.48 18.59-18.73 0-10.27-8.33-18.74-18.6-18.74-6.33 0-11.91 2.86-15.27 7.69 1.1-12.55 2.42-23.06 2.42-23.06h-11.14zm223.88 0s0.9 9.51 1.75 20.91c-3.4-4.37-8.71-6.59-14.68-6.59-10.27 0-18.6 8.32-18.6 18.6 0 10.27 8.33 18.6 18.6 18.6 1.64 0 3.22-0.22 4.73-0.61-3.61 3.39-5.87 8.21-5.87 13.56 0 10.27 8.32 18.6 18.6 18.6 10.27 0 18.6-8.33 18.6-18.6 0-4.81-1.83-9.2-4.83-12.5 1.8 0.57 3.71 0.89 5.7 0.89l-0.01-0.02c10.27 0 18.6-8.48 18.6-18.73 0-10.27-8.32-18.74-18.59-18.74-6.33 0-11.92 2.86-15.28 7.69 1.11-12.55 2.42-23.06 2.42-23.06h-11.14zm-223.81 46.21l0.09 0.18c-0.12 0.03-0.25 0.06-0.36 0.09l0.27-0.27zm223.89 0c0.03 0.06 0.05 0.12 0.08 0.18h0.01c-0.13 0.03-0.25 0.06-0.37 0.09 0.09-0.09 0.19-0.18 0.28-0.27z" fill-rule="evenodd" transform="translate(-1575.9 -317.82)" clip-rule="evenodd" fill="url(#e)"/>
</g>
</svg>