<svg xmlns:rdf="http://www.w3.org/1999/02/22-rdf-syntax-ns#" xmlns="http://www.w3.org/2000/svg" xmlns:cc="http://creativecommons.org/ns#" xmlns:xlink="http://www.w3.org/1999/xlink" xmlns:dc="http://purl.org/dc/elements/1.1/" height="181.53mm" width="181.53mm" version="1.1" viewBox="0 0 643.21648 643.21647">
<defs>
<linearGradient id="d" y2="532.36" gradientUnits="userSpaceOnUse" y1="402.36" gradientTransform="matrix(4.0001 0 0 4.0001 -162.87 -1340)" x2="140" x1="140">
<stop stop-color="#e0e0e0" offset="0"/>
<stop stop-color="#eaeaea" offset="1"/>
</linearGradient>
<clipPath id="h" clipPathUnits="userSpaceOnUse">
<rect ry="30" height="160" width="160" stroke="#000" y="387.36" x="55" stroke-width="0.8" fill="none"/>
</clipPath>
<filter id="c" style="color-interpolation-filters:sRGB" height="3.9618" width="1.1916" y="-1.4809" x="-.095824">
<feGaussianBlur stdDeviation="6.7875"/>
</filter>
<filter id="a" style="color-interpolation-filters:sRGB" height="3.9618" width="1.1916" y="-1.4809" x="-.095824">
<feGaussianBlur stdDeviation="6.7875"/>
</filter>
<linearGradient id="g" x1="130" xlink:href="#b" gradientUnits="userSpaceOnUse" x2="130" gradientTransform="matrix(4.0001 0 0 4.0001 -162.87 -1340)" y1="542.36" y2="392.36"/>
<linearGradient id="b">
<stop stop-color="#cfcfd2" offset="0"/>
<stop stop-color="#f7f7f7" offset="1"/>
</linearGradient>
<linearGradient id="f" x1="55" xlink:href="#b" gradientUnits="userSpaceOnUse" x2="215" gradientTransform="matrix(4.0001 0 0 4.0001 -162.87 -1340)" y1="467.36" y2="467.36"/>
<linearGradient id="e" y2="769.04" gradientUnits="userSpaceOnUse" x2="211.86" y1="289.66" x1="210.7">
<stop stop-color="#0004dc" offset="0"/>
<stop stop-color="#474bff" offset="1"/>
</linearGradient>
</defs>
<g transform="translate(-55.535 -207.9)">
<rect ry="120" height="640.02" width="640.02" stroke="url(#f)" y="209.5" x="57.135" stroke-width="3.2001" fill="url(#g)"/>
<g clip-path="url(#h)" transform="matrix(4.0001 0 0 4.0001 -162.87 -1340)">
<path d="m135 542.36a90.002 13 0 0 0 -85 8.77c4.8596 1.4338 10.182 2.2285 15.772 2.2285h138.46c5.5874 0 10.906-0.79421 15.764-2.2266a90.002 13 0 0 0 -84.99 -8.77z" filter="url(#c)" fill="#666"/>
<g fill="#fff">
<path filter="url(#a)" d="m135 393.36a90.002 13 0 0 1 -85 -8.77c4.8596-1.4338 10.182-2.2285 15.772-2.2285h138.46c5.5874 0 10.906 0.79421 15.764 2.2266a90.002 13 0 0 1 -84.99 8.77z"/>
<path filter="url(#a)" d="m135 393.36a90.002 13 0 0 1 -85 -8.77c4.8596-1.4338 10.182-2.2285 15.772-2.2285h138.46c5.5874 0 10.906 0.79421 15.764 2.2266a90.002 13 0 0 1 -84.99 8.77z"/>
<path filter="url(#a)" d="m135 393.36a90.002 13 0 0 1 -85 -8.77c4.8596-1.4338 10.182-2.2285 15.772-2.2285h138.46c5.5874 0 10.906 0.79421 15.764 2.2266a90.002 13 0 0 1 -84.99 8.77z"/>
</g>
<path d="m135 542.36a90.002 13 0 0 0 -85 8.77c4.8596 1.4338 10.182 2.2285 15.772 2.2285h138.46c5.5874 0 10.906-0.79421 15.764-2.2266a90.002 13 0 0 0 -84.99 -8.77z" filter="url(#c)" fill="#666"/>
</g>
<rect ry="120" height="640.02" width="640.02" stroke="#000" y="209.5" x="57.135" stroke-width="2.8001" fill="none"/>
<rect ry="160" height="520.01" width="520.01" y="269.5" x="117.14" fill="url(#d)"/>
<path fill="url(#e)" d="m248.37 283.8c-8.7891 0-15.982 2.7246-21.578 8.1738-6.2695 6.123-9.4043 14.604-9.4043 25.443 0 10.84 2.8711 19.234 8.6133 25.182 5.7715 5.918 13.258 8.877 22.457 8.877 2.2852 0 4.4824-0.20508 6.5918-0.61524 1.5234 4.6289 3.1777 8.0273 4.9648 10.195 2.5195 3.0762 6.0644 4.6133 10.635 4.6133 2.666 0 4.8789-0.76172 6.6367-2.2852 1.7871-1.4941 2.9727-3.3398 3.5586-5.5371 0.26368-0.9375 0.39649-1.8887 0.39649-2.8555 0-0.96679-0.13281-1.8613-0.39649-2.6816h-4.3066c0 1.8457-0.46875 3.4727-1.4062 4.8789-0.9375 1.4356-2.2852 2.1523-4.043 2.1523-0.9375 0-1.7578-0.30664-2.4609-0.92187-1.7285-1.5234-3.2812-5.0684-4.6582-10.635 2.373-1.2891 4.5117-2.9004 6.416-4.834 6.0938-6.0645 9.1406-14.605 9.1406-25.621s-3.1348-19.496-9.4043-25.443c-5.7129-5.3906-12.963-8.0859-21.752-8.0859zm84.938 3.5957c-0.9777-0.014-1.1818 1.1025-1.5566 1.791-1.2629 2.7656-2.4995 5.548-3.6504 8.3594-0.994 2.113-2.0724 4.1835-3.1094 6.2754 0.3879 0.2647 1.1701 0.27079 0.90429 0.89649 0.049 0.9877 1.2218 1.1928 1.8789 1.7051 0.2856 0.3031 1.3764 0.45367 0.83789 0.91407-2.1448 2.7838-4.2117 5.9849-4.3301 9.6172-0.046 1.1686 0.21834 2.3253 0.58594 3.4219-0.1439 1.4963-0.27543 3.0287 0.13477 4.5 0.7375 3.195 2.8055 5.9373 3.3047 9.1973 0.2766 2.5014-0.2831 4.9856-0.66211 7.4336-0.57769 3.3095-1.698 6.7507-3.2852 9.707-2.7727 5.3076-6.6704 9.9034-9.8106 14.98-0.9237 1.4862-1.096 3.5198-0.18554 5.0508 1.1603 1.7626 3.2658 2.5062 5.1191 3.2969 1.1006 0.51229 2.3781 0.84695 3.2305 1.752 0.051 0.7431-0.52816 1.3882-0.85546 2.0215-0.9299 1.5905-2.1762 3.1879-2.2324 5.1074-0.017 1.6829 1.3283 2.8695 2.3359 4.041 0.2533 0.3893 0.84263 0.86507 0.39453 1.2969-1.2124 1.8864-1.5572 4.5626-0.13086 6.4336 0.4827 0.6415 1.1467 1.1402 1.8867 1.4473-0.1648 1.5256-0.31873 3.0519-0.45703 4.5801-1.905 0.4668-3.8407 1.1143-5.3477 2.4141-2.1513 0.60341-4.3579 1.0094-6.5117 1.6152-12.198 3.2494-24.177 7.2614-36.117 11.344-7.3826 2.5417-14.733 5.1748-22.07 7.8438-3.3776-2.2019-7.8114-2.641-11.545-1.1094-1.4073 0.5559-2.7167 1.3499-3.8809 2.3145 0-5.0882 0.01-10.175 0.01-15.264 1.1556 1.708 2.0597 3.5654 3.0625 5.3633 1.4745-3.1448 3.4833-6.2612 3.5762-9.8457 0.044-1.4838-0.31806-2.9932-1.1309-4.2441 1.9472-1.3007 3.6342-3.2783 3.8926-5.6836 0.3366-3.0295-0.91415-5.9455-2.127-8.6484-0.9316-2.0924-2.178-4.1299-2.4766-6.4375-0.19701-2.8815 1.1558-5.9149 3.7246-7.3613 1.9266-1.1985 4.218-1.4604 6.4258-1.6738 0.5111-0.055 0.93964-0.33172 1.0566-0.85352 0.2344-1.0019-0.8082-1.6103-1.4336-2.1992-2.3483-2.0536-5.2702-3.8561-8.502-3.7266-1.6044 0.055-3.1581 0.56842-4.5918 1.2656 0.055-1.7351-0.14821-3.5044-0.91211-5.084-0.2651-0.9225-1.484-1.3341-2.2129-0.67969-1.2079 1.1656-2.0845 2.6284-3.1875 3.8906-0.2619 0.121-0.54348 1.0717-0.80078 0.64453-1.3777-1.7164-3.3961-2.8173-5.4648-3.4707-0.9923-0.2431-1.8223 0.86474-1.4473 1.7734 0.3728 1.1117 0.88242 2.1721 1.2949 3.2695-1.7717-0.5341-3.6408-0.98097-5.502-0.79687-0.9562 0.04-1.7801 1.0773-1.3203 1.9922 0.8542 1.3087 1.9499 2.4742 2.6113 3.9102 0.8105 1.6932 1.5214 3.6658 0.97265 5.543-0.528 0.9992-1.3251 1.8439-1.8457 2.8574-2.8285 4.9115-3.6746 11.146-1.5195 16.471 1.1974 2.9813 3.5885 5.5562 6.6758 6.5879-1.4012 2.4965-1.5975 5.526-1.1094 8.3027 0.2393 1.1511 0.5953 2.34 1.3125 3.2773 0.4064 0.45891 1.067 0.39332 1.5234 0.041 0.6996-0.744 1.01-1.7603 1.502-2.6406 0 3.9321 0.0104 7.865-0.0176 11.797-2.4201-1.0786-4.9221-2.2929-7.625-2.3379-1.5025-0.034-2.9288 0.72378-3.8457 1.8965-2.3973 2.6163-3.2746 6.4816-2.2676 9.8809 0.063 0.3209 0.2529 0.6769 0.2832 0.9668-1.9132 1.2336-2.6591 3.6082-2.8906 5.7637-0.2287 2.2162 0.14521 4.5374 1.1289 6.5156-2.486 1.9885-3.616 5.2685-3.668 8.375-0.01 1.4466 0.24896 2.9118 0.88086 4.2207-1.317 2.3218-2.9491 4.723-2.9414 7.498 0.013 1.7225 0.90508 3.2916 1.9844 4.5762-1.3799 1.9907-2.7853 3.9629-4.1797 5.9434 0.062 1.192-0.10821 2.362 0.0547 3.5352 0.2114 1.0091 1.6097 1.2418 2.2207 0.45703 1.4855-1.8078 2.7124-3.8157 4.0996-5.6992 0.3475-0.3655 0.63283-1.1564 1.0195-1.252 4.6481 3.6518 10.111 6.1177 15.709 7.9238 0.022 3.6707 0.0435 7.3409 0.0644 11.012l3.7871 0.0508c-4.2474 6.21-8.4111 12.493-12.98 18.482-0.7548 0.9874-1.5587 1.9478-2.5801 2.6699-2.818 2.4348-4.8089 5.9077-5.2148 9.6328h-6.1797c0.029 1.4778-0.057 2.9816 0.041 4.4434 2.7154 5.9802 6.7536 11.221 10.846 16.311 8.6458 10.544 18.086 20.401 27.557 30.199 13.187 13.614 26.621 26.985 39.623 40.775 4.5109 4.87 9.0093 9.7731 13.01 15.078 3.7828 5.1459 6.8496 10.734 9.8906 16.344 5.6634 10.738 10.455 21.912 15.338 33.031 3.1351 7.1107 6.0994 14.308 9.666 21.219 2.7738 5.2573 6.1355 10.18 9.5957 15.004 15.517 21.242 36.706 38.575 61.213 48.361 3.0835 1.1973 6.1869 2.3789 9.3789 3.2539 0.4999 0.1494 0.96814-0.1413 1.4648 0 1.034-0.01 1.5177-1.0657 1.7344-1.9238 0.6478-2.1767 1.2124-4.3934 1.8574-6.5605 1.0613-0.7306 1.4302-2.0668 2.0527-3.1328 0.5804-1.321 1.5069-2.5938 1.5371-4.084 0.029-0.4913-0.30015-0.9267-0.43555-1.3418 0.2023-1.0632-0.88208-1.6152-1.6426-2.0547-0.7071-0.1665-0.2052-0.54948 0.0586-0.89648 2.1666-2.7963 4.135-6.0817 4.1133-9.7324 0.033-1.115-0.32789-2.1804-0.55469-3.252 0.4509-2.2524-0.06-4.5586-0.91797-6.6504-1.0422-2.6587-2.6387-5.2386-2.5918-8.1894 0.03-2.7594 0.65802-5.5591 1.2324-8.2852 0.8237-3.814 2.5109-7.4179 4.6035-10.668 2.3005-3.7486 5.0905-7.1724 7.375-10.93 0.8959-1.5678 1.8978-3.4559 1.25-5.3008-0.7073-1.8304-2.6636-2.6684-4.3301-3.4141-1.4855-0.6786-3.1036-1.084-4.373-2.0976-0.3493-0.3917 0.12824-0.93313 0.27344-1.3281 0.9793-1.8572 2.5082-3.5707 2.6894-5.7441 0.1101-1.7481-1.2356-3.0613-2.3125-4.25-0.2202-0.3518-0.88008-0.80871-0.42188-1.2285 1.2275-1.7858 1.622-4.3376 0.33399-6.1992-0.5068-0.753-1.2409-1.3406-2.0625-1.7188 0.2638-1.9752 0.41867-3.9654 0.48047-5.957 1.4767 0.1494 2.9818-0.2952 4.2207-1.0625 1.0528 0.091 2.0751-0.34657 3.1055-0.50977 9.2281-2.1741 18.265-5.0695 27.281-7.9824 12.14-3.9693 24.18-8.2354 36.176-12.619 3.3575 1.938 7.5986 2.2581 11.18 0.74609 1.4292-0.5815 2.7528-1.4109 3.9219-2.416 0.046 5.2342 0.00068 10.469 0.0137 15.703-1.2822-1.7873-2.2004-3.7966-3.2656-5.7129-1.4615 3.178-3.4851 6.3153-3.5801 9.9238-0.066 1.4736 0.3722 2.9883 1.0957 4.2207-1.9403 1.5403-3.7094 3.6199-3.959 6.1797-0.2622 2.8872 1.0375 5.6073 2.2168 8.1582 0.9651 2.0922 2.2076 4.1741 2.4785 6.5195 0.1753 2.8879-1.229 5.9099-3.8164 7.3262-2.7045 1.6074-5.946 1.4825-8.959 1.9043-0.031 0.2366 0.81648 0.7513 1.1133 1.0918 2.4279 2.1388 4.9138 4.6074 8.2168 5.2441 2.3226 0.4609 4.6968-0.19028 6.8106-1.1426-0.08 1.6826 0.0837 3.4063 0.81054 4.9473 0.3473 0.8611 0.69372 1.7229 1.041 2.584 1.7021-2.1579 3.3613-4.3507 5.1035-6.4766 1.5316 2.152 4.0614 3.1973 6.457 4.0684 0.5966 0.2316 1.1925 0.46361 1.7891 0.69531-0.8166-2.0094-1.6837-4.027-2.459-6.0312 2.158 0.764 4.5835 0.98593 6.7637 0.17383 0.5725-0.1527 1.416-0.2175 0.60937-0.8125-1.6838-1.979-3.2565-4.1317-4.0215-6.6484-0.3157-1.1558-0.72665-2.4957-0.15625-3.6289 2.292-2.6895 3.4409-6.1592 4.0742-9.5859 0.5959-3.6201 0.5876-7.5304-1.0586-10.889-1.2465-2.5531-3.6629-4.3693-6.3223-5.2559 1.4465-2.1292 1.6683-4.8527 1.1504-7.3203-0.4358-2.2713-1.2946-4.4304-1.9707-6.6348-0.7217 1.4829-1.4423 2.9662-2.1641 4.4492 0-3.4778-0.0594-6.9892-0.0234-10.447 2.4115 1.0961 4.9803 2.1546 7.6758 2.0938 1.3222 0 2.4613-0.78758 3.3086-1.7422 2.6405-2.8895 3.3968-7.3123 1.9844-10.947 1.9115-1.1856 2.6546-3.536 2.9121-5.6562 0.2595-2.274-0.0784-4.6738-1.1133-6.7031 1.4821-1.2696 2.3954-3.067 3.1328-4.8418 0.9596-2.3961 0.86111-5.1619-0.23829-7.4941-0.1768-0.541 0.49603-1.0319 0.66993-1.5527 1.2365-2.1818 2.5176-4.6546 2.0469-7.2422-0.2443-1.3216-0.9723-2.4998-1.8457-3.5 1.8814-2.664 3.9175-5.2225 5.6816-7.9668 0.5217-0.7578 0.68188-1.9174-0.10352-2.5625-0.6055-0.4583-1.3071-1.073-2.1016-0.94336-0.9287 0.5516-1.3931 1.6062-2.084 2.4023-1.524 2.0395-3.0075 4.1595-4.5195 6.1738-4.5722-3.5947-9.9077-6.1231-15.428-7.8906v-11.406c-1.3513-0.017-2.7033-0.0347-4.0547-0.0527 5.8784-8.6523 11.826-17.238 18.219-25.52 0.5685-0.86 1.5352-1.582 1.6582-2.6641 0.015-0.4031-0.18743-0.80061-0.51563-1.0332 0.9457-1.8234 1.4746-3.8456 1.6562-5.8867h6.7344c-0.4752-2.4949-1.269-4.9312-2.4902-7.1641-2.8363-5.2612-6.7255-9.8546-10.615-14.357-6.4824-7.3689-13.438-14.402-20.326-21.322 2.4938 1.0915 5.5695 0.5744 7.5684-1.2754 2.2583-1.943 3.1272-5.3096 2.043-8.0898-1.025-2.8938-4.0667-4.8294-7.1094-4.6914-3.3059 0.049-6.3596 2.6352-6.9316 5.8945-0.2689 1.4173-0.0938 2.9112 0.47265 4.2363-12.969-12.855-26.263-25.381-39.176-38.285-5.7555-6.0147-11.766-11.899-16.57-18.711-2.9809-4.2551-5.5916-8.8613-8.1055-13.443-5.6497-10.53-10.4-21.536-15.221-32.488-3.356-7.6052-6.5072-15.311-10.291-22.719-2.9935-5.7091-6.6065-11.073-10.414-16.266-12.876-17.303-29.477-31.922-48.588-41.982-6.7478-3.5427-13.82-6.4778-21.105-8.7148-0.419-0.1758-0.88106-0.0306-1.2891-0.10156-0.2385-0.081-0.48659-0.17536-0.74219-0.16016h-0.004zm80.104 0.0586c-0.10973-0.001-0.21982 0.0142-0.32422 0.0352v-0.002c-0.9 0.2948-1.3035 1.2783-1.7383 2.043-0.4218 0.738 0.0628 1.5845 0.76953 1.918 5.7702 3.201 10.593 7.8254 14.521 13.121 6.172 8.3417 10.243 18.22 12.898 28.23 3.0718 11.669 4.3091 23.82 4.1992 35.881-0.019 4.0983-0.28136 8.2975-0.57226 12.428-0.1029 1.1178 0.54647 2.1073 1.3594 2.8086 4.2942 4.4167 9.5415 7.8424 15.135 10.396 9.2389 4.2823 19.193 6.6221 28.893 9.5859 12.199 3.663 24.391 7.3851 36.301 11.908 4.3787 1.7331 8.8136 3.4477 12.814 5.9648 1.1993 0.73 2.1642 1.7555 3.1426 2.7461 0.8808-0.6968 2.2149-1.2708 2.3027-2.5606 0.083-1.5048-1.2478-2.5586-2.3418-3.3594-3.3911-2.2906-7.2157-3.8254-10.977-5.3906-11.14-4.4276-22.585-8.0288-34.037-11.547-8.2014-2.5294-16.499-4.8012-24.682-7.3398-7.1092-2.344-14.035-5.6472-19.998-10.223-1.2993-1.0104-2.5393-2.1014-3.6719-3.2969 0.8619-9.4838 0.60464-19.041-0.22656-28.518-0.4289-4.6552-1.0356-9.2995-1.9473-13.885 9.8633-3.5406 20.068-5.98 30.092-9.0039 1.0841-0.4311 2.3864-0.45395 3.2969-1.248 1.0561-0.9258 0.81768-3.059-0.64062-3.4355-1.472-0.3213-2.991 0.0324-4.4336 0.0234-2.5386 0.1005-5.0811 0.15157-7.6094 0.16797 4.5051-3.9887 7.6434-9.3093 9.8418-14.859 2.0542-5.3652 3.3399-11.168 2.7598-16.934-0.2082-1.6123-0.48723-3.2604-1.1777-4.7422-0.4726-0.8286-1.5629-0.79164-2.2969-0.36524-0.817 0.239-1.6752 0.90132-1.5176 1.8535 0.3078 1.3413 0.76605 2.6591 0.84765 4.0469 0.3949 4.5319-0.57321 9.0113-2.0703 13.262-1.9608 5.3436-4.8324 10.48-9.0156 14.402-1.2846 1.152-2.7162 2.2553-4.3086 2.8848-3.8433-0.5222-7.6124-1.595-10.869-3.7031-1.9662-1.2214-3.4158-3.3315-3.4961-5.6875-0.1739-3.6868 1.7011-7.1182 3.9121-9.9356 3.8367-4.7886 9.2235-8.1898 15.025-10.086 1.0107-0.2874 2.2506-0.88921 2.2852-2.0996 0.017-1.3037-1.3607-2.0211-2.5039-2.0996-1.3766-0.09-2.7176 0.2247-4.1074 0.1543-3.124 0.01-6.3504-0.75177-8.832-2.7305-0.6867-0.5669-1.6831-0.81296-2.4824-0.32226-1.0201 0.4208-1.4648 1.7472-0.87695 2.6875 0.9465 1.5341 2.6757 2.3363 4.2598 3.0566 0.9503 0.4016 1.9309 0.72977 2.9316 0.98047-5.8139 3.461-10.781 8.7028-13.037 15.162-1.1674 3.3077-1.2483 7.1707 0.56446 10.268 2.0369 3.5594 5.8245 5.6677 9.6055 6.9258 3.2879 1.0879 6.7315 1.6365 10.176 1.918-5.7657 1.6599-11.57 3.2297-17.211 5.2852-2.9232-13.248-8.5076-26.19-17.723-36.295-3.7461-4.0797-8.0578-7.6925-12.891-10.41-0.0993-0.048-0.20863-0.0652-0.31836-0.0664zm-164.95 2.0586c5.6543 0 10.342 2.2402 14.062 6.7226 3.7207 4.4824 5.5801 11.559 5.5801 21.227s-2.168 17.08-6.5039 22.236c-0.58594-1.4941-1.2598-2.9004-2.0215-4.2187-2.5781-4.5117-6.3125-6.7676-11.205-6.7676-3.3984 0-6.1523 1.2598-8.2617 3.7793-2.1094 2.4902-3.3984 5.2871-3.8672 8.3926-4.9512-4.9512-7.4277-12.846-7.4277-23.686 0-9.1992 1.8613-16.113 5.582-20.742 3.7207-4.6289 8.4082-6.9434 14.062-6.9434zm86.74 2.5137c0.072 0.022 0.14314 0.0444 0.21484 0.0664 7.8655 2.5926 15.488 5.8733 22.697 9.9785 18.22 10.336 33.896 24.978 45.906 42.113 3.6884 5.291 7.1323 10.81 9.7988 16.672 4.3047 9.2993 8.2275 18.772 12.441 28.127 5.1789 11.584 10.533 23.157 17.439 33.834 5.6247 8.4897 12.761 15.824 19.867 23.066 12.181 12.248 24.798 24.06 37.088 36.191 8.5754 8.4839 17.172 16.993 25.113 26.072 3.5681 4.1579 7.1124 8.4641 9.8652 13.258 0.2589 0.4655 0.51251 0.93325 0.75781 1.4062-0.4127-0.01-0.85975 0.0216-1.252-0.0254-0.8373-3.9555-3.283-7.5839-6.8008-9.6289-5.417-3.2724-12.87-2.7685-17.701 1.3613-2.2079 1.8484-3.7969 4.3791-4.6445 7.1211-4.3332-0.1474-8.6654-0.37972-13.002-0.38672-7.1951-9.9912-14.754-19.726-21.932-29.723-6.0366-8.2993-11.897-16.737-17.697-25.209-8.011-11.639-16.284-23.144-23.121-35.512-2.8809-5.2723-5.5416-10.729-7.582-16.385-4.8651-13.084-9.2434-26.374-14.912-39.148-3.2015-7.2548-7.1826-14.14-11.596-20.721-12.571-19-28.126-36.261-46.881-49.326-5.0562-3.5196-10.348-6.7009-15.834-9.5039 0.5637-1.2476 1.1443-2.4685 1.7656-3.6992zm45.605 1.9492c-3.3964 0.01-6.591 2.6669-7.1094 6.043-0.5648 3.0345 1.0083 6.326 3.7676 7.7344 2.3495 1.3207 5.4092 1.1236 7.5938-0.44336 2.5997-1.7256 3.8151-5.2226 2.8242-8.1836-0.9419-3.0015-3.9197-5.2024-7.0762-5.1504zm0.16992 4.2852c1.682-0.065 3.0937 1.5052 2.9863 3.1543-0.01 1.6246-1.4774 3.0242-3.0977 2.9727-1.5391 0.1061-2.8885-1.3433-2.998-2.8281-0.21511-1.6 1.032-3.2499 2.6894-3.2871 0.1396-0.011 0.27992-0.0147 0.41992-0.0117zm-49.135 1.3809 0.0859 0.043 0.0859 0.043c19.038 9.8107 35.304 24.363 48.744 40.896 5.1879 6.4054 10.001 13.168 14.416 20.078 5.0086 7.8375 8.9412 16.312 12.352 24.936 4.274 10.66 7.9106 21.582 11.986 32.328 4.2093 10.884 10.269 20.928 16.674 30.641 6.3921 9.6899 13.122 19.15 19.664 28.738 12.031 17.339 24.66 34.253 37.271 51.172-7.2169 11.35-14.642 22.566-21.729 34.002-11.776 18.944-23.144 38.183-32.932 58.242-4.299 8.8209-8.2187 17.83-11.617 27.037-0.2056 0.4461-0.30719 1.09-0.92969 1.1113-0.6345 0.2481-1.5448 0.0206-1.6191-0.76562-0.2035-0.7402-0.58713-1.5558-0.14063-2.2793 5.4608-15.082 12.588-29.494 20.234-43.559 10.752-19.722 22.862-38.675 35.148-57.484 3.217-4.9799 6.541-9.892 9.6855-14.918 0.4574-0.6178 0.39205-1.4759-0.16015-2.0137-4.9226-6.4873-9.8303-12.956-14.596-19.561-9.0632-12.46-17.746-25.178-26.455-37.887-7.2578-10.555-14.71-20.977-21.223-32.014-3.1431-5.4128-6.0586-10.994-8.5254-16.766-3.1522-7.743-5.7785-15.675-8.6973-23.51-4.3039-11.609-8.6764-23.308-15.197-33.893-4.4193-7.1494-9.2831-14.024-14.477-20.631-10.951-13.885-23.87-26.363-38.873-35.811-3.3505-2.1263-6.8118-4.0732-10.326-5.9141 0.3422-0.7744 0.72513-1.5305 1.1484-2.2637zm-0.875 11.607c0.0154-0.00044 0.0313 0.0191 0.0449 0.0742 3.5547 6.148 9.6983 10.549 16.396 12.703 1.8176 0.6053 3.7078 0.94475 5.5918 1.248 0.9644 0.661 1.7398 1.5627 2.6113 2.3379-1.5543 0.068-3.153 0.08-4.7031-0.22461-6.4453-1.0417-12.525-4.4013-16.713-9.3984-1.5414-1.9005-2.8499-4.093-3.3535-6.502 0.0292-0.0435 0.0789-0.23697 0.125-0.23828zm6.0508 1.2012c0.1414 0.1005 0.28232 0.20028 0.42382 0.30078 2.6578 1.8991 5.2853 3.8607 7.8457 5.8691-3.1113-1.5098-5.9705-3.5779-8.2695-6.1699zm-8.3555 4.9453c0.0133-0.008 0.0317 0.001 0.0586 0.0332l0.0254 0.043c3.6453 6.2234 9.869 10.672 16.652 12.914 4.5311 1.4895 9.4289 1.9648 14.135 1.0957 0.5895 0.6403 1.1807 1.2811 1.7676 1.9238-2.5516 0.6693-5.1905 1.0951-7.832 1.0898-6.7421-0.2693-13.282-2.9888-18.494-7.2676-2.6847-2.2796-5.2119-5.0706-6.1367-8.5527-0.0621-0.28411-0.26899-1.2213-0.17578-1.2793zm2.6523 11.979c0.056 0.051 0.11177 0.10319 0.16797 0.15429 5.5955 4.9739 12.836 8.003 20.264 8.7734 4.2099 0.4106 8.5661 0.041 12.506-1.5723 6.0962 7.1563 11.125 15.231 14.096 24.178 2.8234 8.4755 3.6856 17.92 1.1094 26.598-2.0275 7.0185-6.4442 13.303-12.355 17.594-4.9982 3.6537-10.909 6.063-16.953 7.1855-3.824 0.656-7.6913 1.1304-11.572 1.2305-2.7864-0.011-5.8711-0.25239-8.0586-2.1797-2.0943-1.9397-2.5126-4.963-2.6016-7.6758-0.062-2.7118 0.23325-5.4373 0.62305-8.1055 2.7344-0.7381 5.502-1.9367 7.4082-4.1016 0.3621-0.3581 0.48598-0.98211 1.0762-1.0078 1.3442-0.4959 2.6968-1.0432 3.9063-1.8164 0.46589-0.3819 0.62769-1.0863 0.24609-1.5801-0.1969-0.5772-0.99903-0.5212-1.5156-0.4375-1.1792 0.2187-2.3623 0.42698-3.5625 0.48438-2.0589-1.5871-4.0112-3.3175-6.1211-4.8359-1.3434-0.8913-2.8586-1.534-4.4492-1.8144 0.9707-1.6057 1.9672-3.5705 1.3047-5.4746-0.7224-1.9429-2.7273-2.9478-4.4863-3.7852-1.4032-0.7009-2.9738-1.0782-4.2812-1.9551-0.1774-0.2637 0.17366-0.63534 0.22656-0.89454 1.5073-2.7233 3.4766-5.1563 5.2109-7.7344 2.9747-4.2675 5.8431-8.747 7.209-13.822 0.866-3.2283 1.5731-6.5176 1.8633-9.8516 0.2244-2.5763-0.25927-5.1765-1.2598-7.5527zm87.297 5.2891c-3.1008-0.013-6.119 2.1148-6.9707 5.1289-0.8035 2.5251-0.0623 5.4212 1.8106 7.2852 1.9949 2.1376 5.3406 2.8254 8.0098 1.627 3.2123-1.3483 5.2158-5.15 4.2988-8.5488-0.7777-3.0667-3.7004-5.4695-6.8887-5.4902h-0.25976v-0.002zm-171.78 0.11328c3.3106 0 5.6699 3.3828 7.0762 10.15-4.541 1.4356-8.8926 1.1582-13.053-0.83398 0.11719-2.9004 0.68945-5.1719 1.7148-6.8125 1.0254-1.6699 2.4453-2.5039 4.2617-2.5039zm93.588 2.2422c-2.2414-0.013-4.6326 1.012-5.6738 3.0938-0.7256 1.5026-0.87725 3.2032-1.3476 4.791-0.3952 0.9989 0.45209-0.0668 0.80469-0.31054 1.0509-0.8469 1.9417-1.9159 3.1074-2.6055 2.1558-0.9245 4.6142-0.52127 6.8066 0.0488 2.8935 0.8203 5.6503 2.3222 7.6543 4.5957 0.64101 0.6228 1.8405 0.2346 1.9492-0.6582 0.049-0.9876-0.82199-1.6908-1.3086-2.4688-2.6617-3.4839-6.7047-6.0898-11.131-6.4629-0.2871-0.02-0.57353-0.0284-0.86133-0.0234zm78.301 1.8652c2.0261-0.068 3.5434 2.2459 2.8164 4.0996-0.5947 1.9193-3.2335 2.7456-4.7852 1.4356-1.7539-1.2965-1.4609-4.4585 0.61719-5.2656 0.4241-0.1841 0.88926-0.27653 1.3516-0.26953zm-42.994 6.3398 0.0605 0.0742 0.0352 0.043c5.1358 6.5075 9.9425 13.268 14.414 20.264 0.9027 1.4943 1.9206 2.9936 2.5898 4.582-2.3632 2.5803-3.2597 6.3637-2.5625 9.7637 0.3002 1.4431 1.0696 2.849 2.2207 3.7402-1.7784 2.8043-1.6938 6.5754 0.0391 9.3809 0.965 1.6237 2.3967 2.9518 4.0586 3.8418-3.233 4.0665-3.2557 10.449 0.23438 14.369 0.3335 0.3746 0.69713 0.72226 1.0859 1.0391-7.0161 12.516-13.996 25.053-21.027 37.561-12.476-10.571-24.819-21.3-37.219-31.961 9.6886-0.4577 19.55-2.6076 27.824-7.8594 6.2428-3.9233 11.277-9.7514 14.141-16.555 3.8136-9.0556 4.4773-19.316 2.2754-28.863-1.5587-6.8891-4.4781-13.418-8.1699-19.42zm-27.592 1.3789c-0.0989-0.005-0.19863 0.005-0.29688 0.0312-1.011 0.186-0.92244 1.4602-1.6523 1.9902-0.3532 0.2894-0.79973 0.83593-1.2695 0.70703-2.9284-1.701-6.4639-2.2798-9.8027-1.8106-0.9069 0.1418-1.7876 0.41345-2.6797 0.62305 0.7464 1.2342 1.1271 2.8821 2.4824 3.625 0.2207 0.1955 0.77026 0.0514 0.63086 0.4707 0.058 1.7912 0.66099 3.7011 2.0586 4.8945 1.0725 0.9157 2.8141 0.75985 3.6934-0.34765 1.0484-1.1761 1.2635-2.9065 1.2871-4.3574 1.1229 0.466 2.2871 1.2276 2.7285 2.4062-0.9256 0.9886-1.8517 1.9782-2.7773 2.9668 2.2055-0.4979 4.4054-1.04 6.6602-1.2637 1.2769-0.2316 2.6189-0.27345 3.834-0.75195 0.8177-0.4259 0.77761-1.7264-0.0879-2.0684-0.2414-0.1619-0.71835-0.16382-0.84375-0.32032 0.8263-1.6399 1.029-3.7145 0.18945-5.3867-0.5193-0.91399-2.0471-0.56719-2.1367 0.47461-0.015 0.6318-0.45276 1.1449-0.85156 1.5957 0.1809-1.0285 0.26837-2.2265-0.36523-3.1191-0.21683-0.2046-0.50424-0.34587-0.80078-0.35938zm-112.9 22.18c-0.015 0.3693-0.2123 0.68115-0.4668 0.93555-0.2624-0.4223 0.2645-0.65435 0.4668-0.93555zm9.3867 0.60937c0.3794 0.01 0.95102 0.0234 0.32812 0.26172-3.2015 1.7783-5.52 5.0605-6.0234 8.6992-0.398 2.2877-0.0439 4.6535 0.87695 6.7754 1.1299 2.9404 2.9413 5.6303 3.6133 8.7363 0.4212 1.8456-0.90738 3.4877-2.3633 4.4375-1.9851 1.3239-4.6883 2.024-6.9199 0.90625-2.1294-1.1612-2.9355-3.702-3.1992-5.9648-0.4048-3.879 0.39038-7.691 1.584-11.383 1.3078-3.8352 3.3086-7.6166 6.4805-10.266 1.5784-1.2915 3.5394-2.2657 5.623-2.2031zm-17.469 2.0664c0.48 0.2578 0.93412 0.81042 0.57422 1.3574-0.1492 0.3382-0.21776-0.52294-0.34766-0.71484-0.071-0.2146-0.15756-0.44348-0.22656-0.64258zm167.91 2.791c0.1123 0.2259 0.22364 0.44998 0.33594 0.67578 0.9462 1.9518 1.9756 4.02 2.7578 5.9512-1.236-0.083-2.6626-0.23295-3.4336-1.3438-1.1295-1.585-0.65306-3.7545 0.33984-5.2832zm-165.21 2.8516-0.0332 0.0723c-2.2734 5.1419-3.6098 10.834-3.0566 16.473 0.2101 1.9189 0.67302 3.8351 1.5742 5.5527-2.2045-0.74669-4.0617-2.5596-4.5625-4.873-0.6484-2.7613-0.22112-5.6496 0.42188-8.3711 0.7218-2.9396 2.407-5.568 4.5918-7.6387 0.3711-0.3897 0.72825-0.79464 1.0644-1.2148zm169.21 6.0059c0.12813-0.086 0.12785 0.11488 0.26953 0.41015 1.4924 3.5335 2.8827 7.1086 4.2363 10.697-1.9572-0.064-3.9965-0.37539-5.6582-1.4922-1.7665-1.0919-2.9933-3.2814-2.375-5.3652 0.4596-1.7853 1.9488-2.993 3.3457-4.0625 0.0811-0.0996 0.13893-0.15883 0.18164-0.1875zm-73.916 1.541 0.0742 0.0215c1.4942 0.4667 2.8025 1.3758 4.0176 2.3398-1.0779-0.192-2.2919-0.30747-3.1543-1.043-0.2597-0.4743-0.5978-0.89966-0.9375-1.3184zm1.2188 5.7012c0.094 0.017 0.1858 0.0338 0.2793 0.0508v0.002c0.9451 0.1739 1.8976 0.31682 2.8535 0.41602-1.2391 0.5029-2.5477 0.87599-3.8867 0.96679 0.1761-0.5122 0.4199-1.0071 0.7539-1.4355zm119.27 5.2695c-3.3446-0.032-6.4536 2.569-7.0703 5.8457-0.6621 3.1053 0.96528 6.5192 3.8047 7.9473 2.3694 1.2859 5.4437 1.0829 7.5996-0.55079 2.4701-1.7314 3.6893-5.0621 2.7988-7.9609-0.8472-3.1304-3.9109-5.3374-7.1328-5.2812zm-41.42 0.33007 0.0351 0.0899 0.0312 0.082-0.002 0.002c3.2545 8.6322 6.1876 17.416 9.5684 26.016 2.4309 5.9948 5.4431 11.738 8.6465 17.352 8.0196 13.81 17.527 26.669 26.477 39.871 11.182 16.426 22.64 32.675 34.719 48.457 0.2907 0.449 0.79787 0.8411 0.95117 1.3457-0.9218 1.6703-2.0987 3.1924-3.0957 4.8203-14.359 21.94-28.675 43.953-41.299 66.953-6.6466 12.121-12.705 24.591-17.822 37.428-0.3789 0.8748-0.76863 1.8269-1.2402 2.6914-1.4307-1.0154-3.0063-1.8012-4.5762-2.5742-0.2432-0.7925-0.2463-1.8147 0.5664-2.2852 1.1859-0.8669 2.6424-1.213 3.9512-1.8379 0.6403-0.5374 0.44371-1.4702-0.0918-2.0039-1.3038-1.4827-2.4867-3.2343-2.6035-5.2676-0.3281-2.9595 0.44253-6.1472 2.6113-8.2812 1.6065-1.687 3.7821-2.6325 5.9414-3.3906 0.7018-0.2106 1.2414-0.95377 0.95312-1.668-0.727-1.0326-2.0607-1.4803-2.6797-2.623-1.519-2.4609-1.038-5.6518 0.24219-8.1074 1.2097-2.3529 3.5462-4.3936 6.3184-4.3418 1.0365-0.05 2.049-0.30602 3.0742-0.44922-1.6857-2.5414-3.4757-5.1416-4.0664-8.1934-0.7323-3.2055 0.0728-6.7779 2.3809-9.1719 2.9538-3.1617 7.4191-4.3501 11.572-4.6543 0.9401 0.015 1.7682-0.99462 1.3047-1.8867-0.6018-0.9976-1.6133-1.6887-2.1914-2.7148-1.764-2.5517-1.9719-6.0907-0.37891-8.7754 1.9146-3.4189 5.927-5.1989 9.6973-5.3027 1.3556-0.072 2.7108-0.14344 4.0664-0.21484-2.305-2.2443-5.0907-4.2099-6.4043-7.2559-1.3051-2.748-0.99523-6.2159 0.98437-8.5684 2.5095-3.1091 6.7633-4.2084 10.613-3.8945 1.7865 0.074 3.503 0.68174 5.2774 0.81054 0.4414-0.1766 1.3328-0.10261 1.0566-0.79101 0.089-0.7114-0.35187-1.2656-0.88867-1.6699-2.4686-2.108-5.1646-4.2552-6.4141-7.3555-0.9223-2.1477-0.5137-4.657 0.7168-6.5938 1.4403-2.4453 3.6853-4.172 5.7793-6.0781 0.5469-0.4578 0.4448-1.238 0.6289-1.8672-0.766-0.135-1.5579-0.32396-2.2988 0.0195-2.8553 0.8569-5.7224 1.9822-8.7656 1.6484-2.6586-0.348-4.8254-2.4268-5.875-4.8144-1.3245-3.1175-0.49744-6.71 1.0684-9.5742 0.662-1.334 1.6504-2.4663 2.4199-3.7285 0.4006-0.5639 0.28578-1.0026-0.32422-1.3203-0.68-0.4842-1.6064-0.26454-2.3984-0.37304-3.3005-0.073-6.7733-0.81856-9.3047-3.0684-3.1816-2.7414-4.7355-7.1756-4.2246-11.312 0.2017-1.6722 0.95021-3.2548 2.1328-4.457 0.6535-0.6061 0.63965-1.8372-0.24805-2.2148-0.9857-0.3368-2.0607 0.043-3.0449 0-1.9917 0.037-4.2995-0.14113-5.707-1.7363-1.2747-1.6325-0.85812-3.8728-0.26562-5.6894 0.5106-1.6758 1.4891-3.1462 2.166-4.748 0.1797-0.5837-0.0551-1.36-0.70898-1.4863-0.7084-0.1817-1.4789 0.15032-2.209 0.20312-3.2287 0.5339-6.9179 0.30002-9.4824-1.959-2.2341-1.9364-2.7368-5.2005-2.0078-7.9531 0.6054-2.5937 2.0968-4.8492 3.666-6.9551 0.5849-0.6947 0.31342-1.9426-0.64648-2.1094-1.0351-0.1227-1.955 0.56073-2.9297 0.79883-2.4967 0.858-5.4837 1.0029-7.7051-0.63477-2.5169-1.7929-4.1711-5.0545-3.3613-8.1504 0.6336-2.8742 2.9156-4.8874 4.7266-7.0469-2.6892-0.4119-5.6303-0.33794-7.9707-1.9316-1.9822-1.2395-3.0656-3.678-2.6875-5.9805 0.3715-2.8132 2.2467-5.1079 4.2012-7.0352 0.4964-0.5246 0.99383-1.0479 1.4902-1.5723-2.5303-0.2875-5.2993-0.19796-7.4668-1.7559-2.1264-1.3836-3.1286-4.1763-2.4063-6.6016 0.6507-2.486 2.6142-4.3478 4.7285-5.668 0.3615-0.2723 0.7692-0.51298 1.0293-0.89258zm41.602 3.8984c1.918-0.022 3.4527 2.0401 2.8711 3.8691-0.4408 1.9474-3.0166 3.0102-4.6465 1.7969-1.5055-1.0049-1.9085-3.387-0.5625-4.6953 0.5924-0.6419 1.4667-0.99921 2.3379-0.97071zm-206.07 3.7168c0.6943 0.2508 0.76951 1.2066 0.85351 1.8359 0.01 0.323 0.0376 0.86859-0.0664 1.0586-0.7275-0.91-1.5968-1.7341-2.3418-2.6016 0.524-0.063 1.0371-0.20687 1.5547-0.29297zm-5.6465 0.83398h0.0488c0.1122 0.8319 0.0149 1.8714 0.0469 2.7832 0 6.3057 0.0103 12.61-0.0137 18.916-0.1901-0.5941-0.028-1.3899-0.082-2.0625v-19.637zm89.617 1.1719c0.01 0.08 0.0174 0.16013 0.0254 0.24023 0.083 0.678 0.24287 1.3793-0.11133 2.0176-6.9039 19.073-16.246 37.199-26.229 54.871-11.482 20.241-23.951 39.865-36.621 59.373-0.7881 1.3273-1.7662 2.5563-2.4102 3.9609 0 0.8955 0.82222 1.5463 1.2656 2.2734 12.873 16.779 25.054 34.076 36.947 51.559 7.7516 11.348 15.794 22.52 22.963 34.207 3.5899 5.9015 6.854 12.019 9.6484 18.291 2.9305 6.9264 5.2883 14.075 7.8906 21.137 3.6007 9.7978 7.1514 19.65 11.807 29.01 3.9386 7.8744 8.9222 15.166 14.047 22.305 10.715 14.752 23.375 28.255 38.336 38.768 5.0882 3.6015 10.446 6.8121 15.963 9.7109-0.3694 0.7593-0.75582 1.5101-1.1367 2.2637-14.11-7.2173-26.773-17.197-37.787-28.488-9.7378-9.9724-18.243-21.116-25.725-32.867-4.8154-7.5487-8.5975-15.681-11.889-23.963-4.2872-10.658-7.9595-21.574-12.016-32.346-2.4762-6.6644-5.7938-12.977-9.3203-19.137-6.2516-10.701-13.428-20.82-20.451-31.02-6.3275-9.1874-12.646-18.381-19.184-27.422-8.2708-11.497-16.649-22.917-25.078-34.299 15.388-23.366 30.26-47.094 43.898-71.529 6.8334-12.343 13.44-24.841 18.973-37.83 1.3329-3.101 2.5007-6.2686 3.668-9.4336 0.3371-1.1007 1.5552-1.3769 2.5254-1.6523zm-7.4961 2.9336-0.0332 0.0899-0.0195 0.0488h0.002c-3.8085 10.018-8.5263 19.586-13.441 29.104-10.466 20.047-22.027 39.463-34.021 58.629-5.5284 8.8417-11.224 17.575-16.924 26.307-0.4474 0.714-0.90576 1.423-1.3145 2.1602-1.9841-0.047-4.1227-0.0441-6.0078-0.17578 14.681-20.708 28.468-42.041 41.619-63.75 8.2149-13.653 16.247-27.432 23.475-41.639 1.7211-3.4094 3.3811-6.8528 4.9043-10.355 0.5934-0.1412 1.1733-0.28017 1.7617-0.41797zm-10.115 2.707c-0.064 0.1356-0.12896 0.27065-0.19336 0.40625-7.0182 14.55-15.122 28.572-23.385 42.453-11.76 19.614-24.101 38.896-37.08 57.721-1.4619 2.1161-2.9359 4.2247-4.416 6.3281-2.3382-3.9257-6.5934-6.5745-11.119-7.082 10.358-14.502 20.049-29.467 29.527-44.555 9.4169-15.095 18.632-30.327 27.143-45.955 0.69491-1.2818 1.3778-2.5692 2.0645-3.8555 5.7797-1.9171 11.62-3.7545 17.459-5.4609zm20.152 1.7402 0.043 0.0547h-0.002c0.4792 0.5636 0.99016 1.1028 1.3145 1.7734 0.7902 0.8859 2.0838 0.94427 3.0898 1.4805 0.3883 0.1494 0.83656 0.39068 0.75976 0.89258 0.2371 0.9011-0.39945 1.7003-1.1602 2.0977-1.4788 0.8935-3.1247 1.3672-4.7168 1.998 1.6331 1.9854 3.621 3.9706 3.9414 6.6562 0.6193 3.2866-0.68144 6.7879-3.2109 8.9531-1.5104 1.3901-3.4189 2.213-5.334 2.877-0.9297 0.3045-1.2332 1.6173-0.4629 2.2559 0.9871 0.7779 2.0624 1.5421 2.584 2.7363 1.3809 2.9255 0.39522 6.4799-1.6133 8.8652-1.4746 1.7972-3.7145 2.9261-6.0449 2.9863-0.6963 0.016-1.4773 0.32425-1.5957 1.0938 0.014 0.8423 0.73624 1.5114 1.1152 2.2402 2.154 3.474 3.1019 7.9824 1.5078 11.865-1.1858 2.9116-3.9008 4.9048-6.8144 5.875-2.2444 0.8068-4.619 1.1221-6.9727 1.4121-0.9736 0.1847-1.2869 1.495-0.59961 2.1641 1.3786 1.4011 2.6451 3.0611 2.9414 5.0586 0.5269 3.2831-1.1886 6.4254-3.1973 8.8906-2.2811 2.8647-5.6191 5.0967-9.3613 5.2695-1.4751 0.069-2.9506 0.13077-4.4258 0.19727 2.6447 2.7513 5.7529 5.2341 7.418 8.7578 1.2412 2.4791 1.6395 5.6732-0.0137 8.0644-1.8333 2.6497-5.1771 3.6461-8.2441 3.8809-1.7176 0.1201-3.4401 0.0328-5.1602 0.0508-0.08 1.0296-0.53564 2.062-0.33594 3.0957 0.38291 1.1713 1.7949 1.2157 2.7559 1.6406 2.1972 0.8334 4.5403 1.8089 5.9629 3.7734 0.98039 1.335 0.58027 3.1505-0.29883 4.4238-1.7053 2.5958-4.3388 4.3571-6.8379 6.1074-0.7512 0.571-0.65462 1.6733-0.0742 2.3281 0.3704 0.4507 0.62716 1.1137 1.0684 1.4297 2.7964-0.202 5.5148 0.85891 7.8496 2.3164 1.7766 1.1365 3.5566 2.9034 3.4883 5.166-0.1626 2.7479-2.1795 4.8412-3.6465 7-0.7873 0.6907 0.29618 0.47236 0.80078 0.53516 3.3252 0.1241 6.8193 0.14086 9.8594 1.7266 3.919 1.9538 6.1973 6.3015 6.459 10.564 0.1503 2.3499-0.44762 4.855-2.1406 6.5723-0.7731 0.9152-1.5472 1.829-2.3203 2.7441 3.1654-0.2093 6.4834-0.98085 9.5703 0.12305 1.455 0.4743 2.5311 1.8639 2.5234 3.4102 0.058 2.8423-1.3549 5.4301-2.668 7.8613-0.4643 0.8899 0.38793 1.987 1.3613 1.8106 2.3319-0.4092 4.7486-0.72658 7.0879-0.17578 2.6971 0.531 5.2169 2.4588 5.9043 5.2012 0.9044 3.4484-0.51044 7.0126-2.4316 9.8477-0.51 0.8679-1.3584 1.5797-1.5898 2.5859-0.1486 0.9776 0.98703 1.6478 1.832 1.248 2.0039-0.8007 4.1374-1.4917 6.3262-1.2441 3.145 0.2197 6.1053 2.5064 6.8008 5.6328 0.762 3.0658-0.64912 6.2244-2.7363 8.4395-0.63381 0.5808-0.8816 1.7181-0.0918 2.2832 0.9027 0.5733 2.0521 0.30746 3.0469 0.60156 2.4733 0.4437 4.8932 2.1147 5.5274 4.6504 0.7687 2.9326-0.63605 5.9599-2.5606 8.1289-0.5492 0.7203-1.5429 1.3518-1.4375 2.3652 0.083 0.8882 1.0981 1.027 1.8242 1.0664 2.4945 0.088 5.1112 1.3498 6.1543 3.7246 1.2752 2.737 0.22494 6.0573-1.8809 8.0723-0.9111 1.0196-2.2078 1.557-3.2051 2.4629-0.2653 0.55029-0.33958 0.19281-0.48828-0.27149-4.9493-13.124-9.0911-26.637-15.803-39.016-5.4426-10.082-12.013-19.492-18.479-28.932-9.6852-13.932-19.124-28.037-29.039-41.809-5.5157-7.713-11.187-15.329-16.93-22.863 7.7867-12.021 15.563-24.051 23.041-36.268 11.395-18.618 22.371-37.54 31.656-57.312 2.994-6.3992 5.7937-12.893 8.3086-19.496zm-46.846 6.8086c-0.1012 0.1831-0.20153 0.36778-0.30273 0.55078-12.174 21.909-25.447 43.189-39.164 64.152-0.5881 0.8943-1.1734 1.7908-1.7637 2.6836 0.013-1.6186-0.0336-3.2725 0.0234-4.8691 1.7191-1.2558 2.6641-3.2738 3.4258-5.2031 0.5527-1.599 1.0614-3.3485 0.65625-5.041 2.0909-2.1979 3.8175-4.9817 4.043-8.0703 0.026-0.5627-0.0157-1.1306-0.16211-1.6758 1.9632-1.8761 3.1137-4.6307 2.7949-7.3555-0.093-0.926-0.33525-1.8356-0.68945-2.6953 2.5453-2.3335 3.667-5.8898 3.5254-9.2812 0-0.7424 0.10703-1.5097-0.35937-2.1465-1.2103-2.5994-3.3204-4.6384-5.418-6.5352-0.3141-0.2302-0.62564-0.46322-0.18164-0.76172 2.3208-2.8564 6.053-4.2266 9.6289-4.377 1.1022-0.084 2.2044-0.16815 3.3066-0.25195-0.4743-0.4348-0.94952-0.86804-1.4238-1.3027 7.3341-2.666 14.69-5.2618 22.061-7.8203zm55.83 0.13477c0.1275 0.1168 0.25521 0.23271 0.38281 0.34961 16.162 14.896 32.804 29.281 50.027 42.938 1.5874 1.2565 3.1878 2.4961 4.7773 3.75-0.8078 0.8533-1.5954 1.7252-2.3711 2.6074-12.31-9.5948-24.263-19.642-36.059-29.871-6.4338-5.6026-12.817-11.256-19.031-17.09 0.9736-0.6746 1.7995-1.5906 2.2734-2.6836zm63.188 1.0586 0.0117 0.0957v0.0137h-0.004c0.1007 1.6336 0.56183 3.255 1.4199 4.6543-5.458 10.066-11.104 19.996-17.01 29.809-0.9428-0.7177-1.8631-1.4657-2.7461-2.2559 6.3744-10.619 12.485-21.396 18.328-32.316zm-175.78 4.8867c2.2347 0.2516 4.2733 1.3222 6.2793 2.2715 5.23 2.6916 10.208 5.9176 14.686 9.7383 1.3366 1.2214 2.7601 2.4431 3.6543 4.041 0.8533 2.18 0.10699 4.6847-1.1953 6.5274-0.189 0.31529-0.40563 0.58052-0.67383 0.14062-4.3693-3.6036-9.1847-6.6259-14.057-9.4961-3.0784-1.7368-6.1656-3.5309-9.5215-4.6816-0.713-0.1099-0.87729-0.96961-1.1172-1.5371-0.5149-1.6402-0.65241-3.5367 0.30469-5.0508 0.3915-0.6792 0.76753-1.4381 1.3652-1.9414 0.091-0.012 0.18379-0.0137 0.27539-0.0117zm24.389 0.82422c0.4096 0.01 1.0729 0.0113 0.3711 0.25781-2.0075 1.0689-3.7333 2.6072-5.168 4.3613-0.7389-0.5432-1.4865-1.0728-2.2441-1.5898 1.8123-1.8996 4.3948-3.0977 7.041-3.0293zm155.85 2.3144 0.0625 0.043c0.83151 0.552 1.7269 1.0098 2.6602 1.3633-1.9953 3.7233-1.8534 8.4892 0.42774 12.055 0.943 1.5066 2.2318 2.7943 3.7363 3.7402-5.4842 5.8812-10.965 11.763-16.451 17.643-2.3975-1.8506-4.7996-3.7336-7.1602-5.6094 1.6757-2.8697 3.4385-5.7056 5.0996-8.5938 3.9848-6.8182 7.8457-13.707 11.625-20.641zm-68.969 0.2207c0.1173 0.1051 0.23426 0.21111 0.35156 0.31641 14.049 12.78 28.426 25.204 43.238 37.094 2.5258 2.0115 5.0555 4.0205 7.6035 6.0039-8.3842 8.9439-16.731 17.924-25.006 26.969-0.56331 0.4771-1.3658 0.59591-2.0176 0.94531-7.3383 3.1749-13.393 9.1537-16.695 16.432-3.7919 8.1784-4.1037 17.912-0.70898 26.277 1.6712 4.1864 4.2149 8.0161 7.4434 11.164 0.9528 0.958 1.9293 1.8965 2.9844 2.7422-8.6858 9.4491-17.486 18.793-26.229 28.189-1.2909 1.3626-2.5357 2.7326-3.8867 4.0312-0.5455 0.1532-0.57372-0.32733-0.60742-0.73633 0.617-2.3974 0.89996-5.0464-0.14844-7.3711-0.5255-1.2343-1.421-2.2624-2.4023-3.1582-0.7205-3.0284-1.4327-6.0586-2.166-9.084 5.4099-2.3252 10.713-5.4497 14.293-10.24 3.7949-5.002 5.3978-11.271 6.1836-17.402 1.091-8.9112 0.82544-17.918 0.45704-26.867-0.75241-16.003-2.2525-31.957-3.5723-47.92-0.7944-9.321-1.603-18.646-2.3789-27.965 0.064-0.3815 0.49399-0.69807 0.67969-1.0723 1.6284-2.4585 2.5861-5.3899 2.584-8.3477zm144.55 6.1192c-2.6385-0.01-5.2093 1.5552-6.3398 3.9512-1.4554 2.8506-0.87995 6.668 1.5976 8.7715 2.1956 1.952 5.5812 2.4355 8.1973 1.0645 2.74-1.3503 4.4582-4.5315 3.9531-7.5645-0.4001-2.9761-2.8071-5.5725-5.7832-6.0879-0.5345-0.1028-1.0809-0.14606-1.625-0.13476zm-259.34 2.7148c0.0432-0.007 0.0924-0.005 0.14844 0.008 1.9364 0.2482 3.6709 1.2542 5.4043 2.0898 5.9822 3.1579 11.714 6.7765 17.107 10.859 1.4302 1.0207 2.7832 2.4217 2.9707 4.2539 0.1756 1.3166-0.28266 2.6889-1.1934 3.6523-2.6577-1.8172-5.7812-2.7698-8.5938-4.3066-4.6257-2.5262-9.4038-4.7885-13.873-7.5918-1.0427-0.5762-2.0156-1.3641-2.4551-2.5098-0.8158-1.9392-1.0084-4.3811 0.19336-6.2031 0.0814-0.12922 0.16152-0.23112 0.29102-0.25195zm259.48 1.4688c1.6095-0.029 3.0791 1.3383 3.0859 2.9609 0.1309 1.8152-1.6284 3.4874-3.4453 3.1602-1.7104-0.097-3.0344-1.8678-2.627-3.5352 0.2503-1.4196 1.4817-2.6607 2.9863-2.5859zm-152.08 2.4648c0.016-0.0164 0.0488 0.0184 0.0488 0.15235-0.0641-0.0685-0.0649-0.13598-0.0488-0.15235zm87.654 5.9863c0.629 0.07 1.2551 0.17461 1.8887 0.19531-1.5754 3.9297-1.4994 8.6636 0.85547 12.273 1.3381 2.0918 3.3951 3.6974 5.7285 4.5352-11.525 12.418-23.075 24.809-34.666 37.166-4.8237-2.78-10.386-4.1179-15.918-4.4004-1.5882-0.065-3.1831-0.0256-4.7617 0.16797 14.024-15.134 28.162-30.192 42.334-45.195 1.5081-1.5843 3.0082-3.1816 4.5391-4.7422zm-196.47 2.041c1.5728 0.7464 2.9752 1.8091 4.5273 2.6016 3.8419 2.1025 7.7199 4.1418 11.605 6.1621 2.4895 1.3507 5.3057 2.1399 7.5293 3.9453 0.6541 0.5009 1.0384 1.3762 0.69531 2.1719-0.5512 1.4621-1.5311 2.7254-2.5547 3.8887-2.3015-1.168-4.9066-1.5066-7.2852-2.4805-4.4503-1.6625-8.8055-3.6284-12.947-5.9922-1.3185-0.8388-2.9603-1.578-3.4707-3.1894-0.8506-2.4502 0.0298-5.3713 1.9004-7.1074zm109.74 0.84765c0.036 0.4107 0.0728 0.82163 0.10937 1.2324 1.2458 14.75 2.5315 29.507 3.6426 44.26 0.8155 11.573 1.6163 23.153 1.4277 34.766-0.1676 6.1628-0.51297 12.483-2.3926 18.432-1.1646 3.6752-3.1587 7.0877-6.1016 9.6348-2.7831 2.4464-6.1197 4.1476-9.4824 5.6465-0.315-1.3498-0.64302-2.6969-0.94922-4.0488 4.1185-2.1023 8.422-4.384 11.141-8.2656 2.4427-3.5225 3.4224-7.8039 4.0586-11.979 1.0668-7.8107 0.94639-15.725 0.70899-23.586-0.7294-19.23-2.8641-38.368-4.9746-57.484-0.1028-0.8777-0.20789-1.7733-0.36719-2.6328 1.4947-1.7163 2.5908-3.7762 3.1797-5.9746zm-7.082 8.9102c0.0816 0.005 0.12238 0.0913 0.0859 0.3457 0.096 0.9134 0.22049 1.9504 0.30469 2.7812-0.2686-0.9786-0.59862-1.9418-0.97851-2.8828 0.20143-0.0362 0.45189-0.25221 0.58789-0.24414zm-105.21 2.832c0.1401 0.094 0.27972 0.1889 0.41992 0.2832 4.6827 3.0677 9.7972 5.4395 15.045 7.3652 2.1207 0.827 4.3708 1.2526 6.4941 2.0644 0.5438 0.2192 1.3154 0.5844 1.1016 1.3086-0.3268 1.5688-0.93968 3.0987-1.7969 4.4531-0.4255 0.7677-1.3173 1.0236-2.1406 0.87695-3.0715-0.3693-5.9511-1.6323-8.7422-2.9043-3.617-1.761-7.2545-3.793-10.244-6.5918-0.9386-0.9386-2.1334-2.1094-1.7188-3.5723 0.3059-1.1862 0.95933-2.2415 1.582-3.2832zm212.42 3.3301v0.01l0.006-0.002c0.1241 0.7651-0.34697 1.4884-0.39258 2.252-0.4334 2.8298 0.0519 5.9978 1.998 8.1992 0.2746 0.3927 0.80455 0.58412 1.0274 0.97852 0.8901 3.1182 1.5943 6.2844 2.3398 9.4394-5.4142 2.2714-10.695 5.4-14.248 10.188-3.8588 5.1175-5.4507 11.52-6.2305 17.777-1.0725 9.0757-0.77805 18.241-0.37695 27.35 0.7629 15.475 2.194 30.908 3.4727 46.346 0.7173 8.7195 1.5525 17.445 2.207 26.154 0.01 0.6666 0.14373 1.3863-0.01 2.0254-1.6191 1.8399-2.591 4.1935-3.0723 6.5801-0.1946 1.0134-0.28642 2.0483-0.25782 3.0801-15.296-13.923-30.988-27.422-47.209-40.26-1.2287-0.9682-2.4599-1.933-3.6953-2.8926 6.5076-6.9816 13.014-13.962 19.521-20.943 5.1556-1.9542 9.8952-5.0738 13.535-9.2344 6.7665-7.605 9.7077-18.378 7.8691-28.377-1.3204-7.529-5.4445-14.525-11.428-19.289-0.3412-0.2758-0.68696-0.54484-1.0391-0.80664 12.004-12.848 23.965-25.738 35.982-38.574zm-106.12 3.1934 0.0781 0.72265c1.8201 17.118 3.4951 34.269 4.0859 51.465 0.154 6.3622 0.22944 12.769-0.87696 19.086-0.767 4.3464-2.4022 8.7349-5.666 11.832-1.8537 1.8061-4.0818 3.1749-6.3867 4.3262-0.3213-1.3666-0.69182-2.7228-0.94922-4.1035 3.2991-1.3931 5.8869-4.1532 7.3965-7.3672 2.3118-4.8843 2.9421-10.347 3.291-15.68 0.5205-9.8619-0.19552-19.737-1.041-29.561-0.7176-7.8915-1.5905-15.775-2.5879-23.633 1.5831-2.0204 2.4854-4.5341 2.6562-7.0879zm190.17 5.252c1.964-0.041 3.5279 2.1547 2.8047 3.9961-0.4867 1.7848-2.7292 2.7316-4.3398 1.8203-1.9886-0.9566-2.1923-4.1374-0.30078-5.2969 0.5408-0.3535 1.1907-0.53303 1.8359-0.51953zm-196.65 5.3945c0.014 0.1081 0.029 0.21602 0.043 0.32422 1.3053 10.798 2.4604 21.618 3.0742 32.498 0.3551 7.1165 0.56818 14.302-0.32032 21.369-0.5744 4.0714-1.464 8.3153-4.0371 11.637-0.8332 1.0474-1.8581 1.944-3.0195 2.6113-0.3762-1.53-0.73096-3.0644-1.1016-4.5957 2.3438-2.0987 3.2521-5.261 3.8965-8.2324 1.235-6.3127 1.2336-12.787 1.0918-19.193-0.3287-11.045-1.546-22.04-2.959-32.992-0.076-0.5451-0.15369-1.0915-0.24219-1.6348 1.2467-0.4773 2.4445-1.0799 3.5742-1.791zm-80.873 3.4258 0.084 0.0117v5.4219c-0.2255-0.3505-0.0307-1.1199-0.0957-1.6309 0-1.2669-0.009-2.5357 0.0117-3.8027zm199.45 7.8008 0.01 0.0195h-0.006c0.3374 1.326 0.63779 2.6612 0.96289 3.9902-2.9617 1.6399-6.3664 3.1348-8.8125 5.6836-3.4645 3.5526-5.0518 8.4587-5.957 13.229-1.3991 7.7588-1.3796 15.686-1.1973 23.541 0.4726 15.003 1.9556 29.951 3.5234 44.873 0.5639 5.2802 1.1604 10.557 1.7695 15.832-1.4019 1.5731-2.4745 3.4364-3.123 5.4414-1.4357-17.082-3.0017-34.144-4.1953-51.242-0.6497-10.208-1.2869-20.454-0.86718-30.668 0.2388-4.8177 0.69227-9.597 2.0801-14.289 1.2657-4.3819 3.6916-8.4916 7.2715-11.371 2.5599-2.1183 5.5217-3.684 8.541-5.0391zm-125.07 1.0312c0.04 0.3463 0.0793 0.69267 0.11914 1.0391 1.0802 9.6055 1.8794 19.256 1.8438 28.908-0.055 4.5181-0.21051 9.0471-1.1328 13.426-0.2306 1.0273-0.51085 2.0498-0.93555 3.0156-0.6605-2.7694-1.321-5.539-1.9805-8.3086 0.9812-3.9254 0.86135-8.0162 0.75195-12.029-0.2714-6.6818-1.0863-13.332-2.0781-19.938-0.041-0.3752 0.48179-0.66813 0.65039-1.0195 1.1599-1.5522 2.1206-3.2625 2.7617-5.0938zm130.51 2.6367 0.0137 0.0176c1.0294 1.173 2.2554 2.1618 3.5801 2.9824 2.9287 12.822 5.8936 25.655 8.8008 38.469-0.7303 0.5704-1.3922 1.2238-2.0195 1.9043-3.4866-14.451-6.93-28.911-10.375-43.373zm-3.5371 4.6152c0.15342-0.0158 0.11492 0.26408 0.20312 0.51758 0.2622 1.1899 0.6147 2.4175 0.8125 3.5879-2.8834 1.3326-5.2756 3.6266-6.793 6.4102-2.5247 4.606-3.2985 9.9156-3.7422 15.08-0.6817 9.3455-0.0865 18.726 0.65234 28.049 0.7178 8.6133 1.695 17.202 2.752 25.779-1.3841 1.8859-2.3263 4.0929-2.6973 6.4043-1.6183-15.399-3.2145-30.815-3.8516-46.268-0.24521-7.3328-0.37053-14.685 0.64257-21.988 0.6739-4.4278 1.7648-9.0482 4.7363-12.541 1.8896-2.2463 4.5591-3.4754 7.0566-4.9043 0.10595-0.0832 0.17738-0.12169 0.22852-0.12695zm12.229 0.34375 0.0937 0.0215 0.0215 0.01v-0.006c0.2972 0.084 0.70052 0.11093 0.94922 0.20703-0.2366 0.4744-0.45255 0.95787-0.65625 1.4473-0.1359-0.5599-0.27221-1.1199-0.40821-1.6797zm-146.57 2.0117 0.0156 0.0957 0.01 0.0781c0.4721 3.5849 0.79359 7.1877 1.0879 10.791-0.7912-3.3598-1.632-6.7555-2.4629-10.078 0.4619-0.2775 0.91051-0.57422 1.3496-0.88672zm70.367 0.40234c6.4811-0.045 13.086 1.8889 18.135 6.041 6.6472 5.3715 10.264 13.91 10.43 22.363 0.2122 7.9325-2.6503 16.081-8.4316 21.629-4.6153 4.4862-10.891 7.0618-17.258 7.6562-2.3988 0.1526-4.8816 0.28052-7.3008-0.17968-6.4095-0.9683-12.587-3.9918-16.898-8.8926-9.4644-10.613-9.6395-28.086-0.5918-39.004 3.998-4.8914 9.8685-8.0948 16.076-9.123 1.9267-0.33629 3.8847-0.48963 5.8398-0.49023zm66.031 5.5977c0.023 0.092 0.0483 0.18524 0.0723 0.27734 0.3336 1.431 0.75355 2.8951 0.99805 4.3086-1.9574 1.591-2.7779 4.1134-3.4121 6.4648-1.3441 5.5479-1.5081 11.3-1.5371 16.982 0.056 11.329 1.2062 22.621 2.6191 33.852 0.1778 1.345 0.36131 2.6899 0.53711 4.0352-1.2498 0.463-2.45 1.059-3.5957 1.7383-1.5283-12.849-2.96-25.767-3.2695-38.699-0.09-4.9656-0.0191-9.8997 0.6211-14.805 0.5782-4.0121 1.4392-8.2762 3.9688-11.594 0.8071-1.0539 1.8482-1.9054 2.998-2.5605zm-66.346 3.6738c-5.3297-0.016-10.605 2.334-14.139 6.3281-3.796 4.1759-5.8628 9.979-5.127 15.617 0.7193 6.2068 4.7028 11.847 10.186 14.791 4.1001 2.1995 8.9858 3.2607 13.576 2.1797 8.6744-1.9871 15.507-10.338 15.467-19.281-0.028-5.5781-2.4586-11.148-6.7324-14.775-3.6339-3.1452-8.4282-4.889-13.23-4.8594zm-142.66 3.8555c5.2372 0.049 9.972 4.4706 10.447 9.6738 0.5152 4.4447-2.035 9.0391-6.0976 10.926-2.9196 1.4717-6.5186 1.4881-9.418-0.043-3.9124-1.9471-6.5681-6.3576-6.0332-10.758 0.3545-3.8682 2.9434-7.4185 6.5352-8.9082 1.4359-0.618 3.003-0.92803 4.5664-0.89063zm291.9 0.01c4.8521-0.084 9.4675 3.5212 10.549 8.2539 1.1481 4.595-1.1028 9.7887-5.2812 12.041-3.3462 1.9017-7.7256 1.8616-10.955-0.27734-3.7901-2.3713-5.9632-7.1954-4.8691-11.586 0.9155-4.0117 4.2467-7.371 8.2988-8.1875 0.7412-0.1604 1.4995-0.24204 2.2578-0.24414zm-80.545 2.2559c0.042 0.1728 0.083 0.34663 0.125 0.51953 0.6988 2.9377 1.4011 5.8732 2.1016 8.8106-0.921 4.5171-0.7193 9.166-0.5039 13.742 0.3132 5.4531 0.96516 10.881 1.7559 16.283-1.5509 1.3256-2.8875 2.9219-3.7988 4.7539-1.0667-9.8757-1.8366-19.805-1.6543-29.725 0.14-4.3739 0.31987-8.847 1.5137-13.098 0.1323-0.4364 0.28204-0.86751 0.46094-1.2871zm-68.404 0.0332c4.7679-0.075 9.3897 2.6716 11.732 6.8027 2.7037 4.5904 2.1506 10.721-1.0762 14.908-2.7111 3.6816-7.4385 5.6509-11.963 5.168-5.3635-0.4817-10.092-4.5468-11.602-9.6797-1.4378-4.5343-0.0613-9.7243 3.2441-13.102 2.4959-2.5991 6.0651-4.0939 9.6641-4.0977zm80.709 0.51367c1.1634 0.7677 2.45 1.3582 3.8066 1.6875 0.3326 1.5119 0.7572 3.0202 1.0332 4.5352-0.5424 2.9157 0.19137 5.9642 1.7637 8.4512 0.1067 0.2626 0.65265 0.71266 0.0566 0.63086-1.026 0.095-2.0361 0.31051-3.0156 0.62891 0.2189-0.9314-0.32721-1.8446-0.44531-2.7598-1.0556-4.386-2.1576-8.8256-3.1992-13.174zm-152.94 1.4277c0.035 0.1434 0.0701 0.28639 0.10547 0.42969 3.3117 13.681 6.5599 27.389 9.8301 41.086-1.0165-1.2422-2.2673-2.2651-3.5879-3.166-2.7613-11.957-5.489-23.923-8.2324-35.885 0.7351-0.7326 1.3693-1.5642 1.8848-2.4648zm-6.4336 5.2012c0.02 0.074 0.0405 0.1469 0.0605 0.2207 0.1883 0.7018 0.37228 1.4061 0.55468 2.1094-0.5986-0.7154-1.2977-1.3433-2.0488-1.8945 0.4829-0.1287 0.9603-0.27485 1.4336-0.43555zm203.33 0.92578h0.0586v0.002c3.0685 0.1048 6.1822 0.20001 9.207 0.34961-0.013 1.3906 0.1183 2.7918 0.5 4.1328-0.5569 0.1303-1.3645-0.19601-1.6289 0.46679-12.586 17.518-24.339 35.621-35.693 53.957-9.6182 15.632-18.985 31.432-27.549 47.67-2.5444 4.833-4.9663 9.7344-7.2129 14.711-0.7506 0.264-1.547 0.37648-2.3164 0.57618 5.4846-14.638 12.452-28.706 19.891-42.463 12.306-22.646 26.05-44.464 40.111-66.055 2.2619-3.5016 4.4977-7.0199 6.7383-10.535-0.7021-0.9374-1.4028-1.8756-2.1055-2.8125zm-284.41 2.8398c0.5307 0.011 1.0916-0.0154 1.6016 0.0176 0.5646 4.0242 2.8213 7.8227 6.2578 10.039 5.6236 3.7419 13.727 3.2806 18.775-1.2559 2.4119-2.127 3.9927-5.1043 4.6133-8.2441 2.9226 0.043 5.8241 0.10283 8.7441 0.20703 14.356 19.408 28.616 38.882 42.221 58.822 7.4447 10.837 15.132 21.535 21.766 32.873 2.8709 4.9958 5.5742 10.131 7.7988 15.41 2.9856 7.4267 5.5329 15.022 8.3008 22.537 3.3475 9.1832 6.8643 18.332 11.246 27.08 4.4604 8.8518 10.061 17.069 15.934 25.033 11.768 15.711 25.819 29.867 42.189 40.781 4.1375 2.7524 8.4344 5.2857 12.852 7.5469-0.4284 1.4635-0.79196 3.027-1.2559 4.4356-7.9389-2.6223-15.606-6.0132-22.881-10.17-18.634-10.648-34.587-25.627-46.627-43.357-3.6348-5.3935-6.9953-10.998-9.6074-16.965-6.2225-13.859-11.992-27.938-18.676-41.594-3.2822-6.5434-6.6863-13.049-10.709-19.174-5.7744-8.7089-13.056-16.261-20.207-23.83-15.614-16.34-31.741-32.187-47.213-48.664-6.9174-7.4555-13.73-14.989-19.812-23.16-1.9379-2.6575-3.8436-5.3961-5.3106-8.3691zm83.379 5.1758c0.1759 0.7031 0.35124 1.4063 0.52734 2.1094 0.9242 3.7074 1.8399 7.4152 2.7461 11.127-1.0851-1.7545-2.7346-3.0384-4.418-4.1797-0.4-1.5252-0.71767-3.1246-1.1055-4.6719 1.0199-1.2972 1.881-2.7627 2.25-4.3848zm213.68 1.9961 0.0605 0.0703c3.0359 3.4033 7.5261 5.6787 12.141 5.541-10.49 14.464-20.279 29.421-29.842 44.51-10.166 16.151-20.072 32.479-29.221 49.232-0.7568 1.393-1.4992 2.7931-2.2852 4.1699-5.7656 1.9859-11.611 3.7686-17.451 5.4961 3.332-6.7628 6.7261-13.477 10.422-20.053 10.815-19.445 22.463-38.411 34.557-57.088 6.9995-10.771 14.168-21.43 21.619-31.879zm-62.752 7.6856c0.0114-0.0225 0.0442 0.0879 0.11329 0.42968 0.031 0.1279 0.0627 0.25482 0.0937 0.38282-0.06 0.9402-0.11341 0.75872-0.15821-0.0508-0.0275-0.319-0.0679-0.72422-0.0488-0.76172zm0.85352 8.1484 0.0332 0.0898 0.01 0.0234c0.3536 0.9074 0.80578 1.7755 1.3301 2.5957-0.3273 0.1128-0.65146 0.23203-0.97266 0.36133-0.1326-1.0238-0.26919-2.0463-0.40039-3.0703zm-147.08 1.2988 0.5332 2.2227c0.035 0.349 0.45154 1.0742-0.19726 0.74609-0.3474-0.083-0.73556-0.14045-1.0645-0.21875 0.3712-0.8762 0.62652-1.8031 0.72852-2.75zm54.918 6.8945c0.077 0.044 0.15337 0.0893 0.23047 0.13282 6.1396 3.4663 13.374 5.0416 20.391 4.1953-12.612 13.504-25.176 27.051-37.82 40.523-0.9707 1.0183-1.9352 2.0437-2.9394 3.0293-0.8771-0.2851-1.855-0.2632-2.7324-0.3164 1.6218-3.8754 1.5519-8.5722-0.7539-12.164-1.2378-1.9693-3.0949-3.5266-5.2246-4.4531 9.6181-10.313 19.224-20.641 28.85-30.947zm159.75 7.2305c0.1032 0.9115 0.0159 2.025 0.0449 3.0137h0.002c0 0.9386 0.00023 1.8778-0.01 2.8164-0.1895-0.4364-0.0184-1.184-0.0684-1.7402 0.011-1.3638 0.0213-2.726 0.0312-4.0898zm-3.9121 1.1387c0.003 0.0162 0.001 0.0549-0.006 0.125h0.002c0.01 1.7332 0 3.4661 0 5.1992-1.8403 1.0353-2.8774 3.0173-3.6875 4.8887-0.6871 1.774-1.2521 3.7276-0.86133 5.6367-2.1481 2.1828-3.9176 5.0118-4.0586 8.1445-0.011 0.5226 0.0378 1.0482 0.16992 1.5547-2.6718 2.4862-3.6402 6.6732-2.1289 10.027-2.0511 1.9675-3.1483 4.7674-3.5234 7.5449-0.2486 1.7727 0.0517 3.6379 1.0469 5.1465 1.3231 2.1407 3.1322 3.934 5.0488 5.5449-1.8522 2.1573-4.451 3.6704-7.2793 4.0664-1.0459 0.2501-2.2026 0.0104-3.1816 0.50195-0.5203 0.33-0.71873 1.0619-0.42773 1.6055-7.5613 2.7714-15.152 5.4361-22.77 8.0508 4.4104-8.1433 9.199-16.124 13.951-24.102 8.846-14.808 18.128-29.352 27.586-43.775 0.057-0.0607 0.10907-0.2087 0.11914-0.16016zm-273.97 3.1094c-3.4886-0.01-6.6415 2.8854-7.0684 6.3242-0.4704 3.1321 1.347 6.4476 4.2754 7.6816 2.6429 1.2093 5.9686 0.63196 8.0254-1.4316 2.4217-2.2582 2.9464-6.2112 1.2129-9.0274-1.3193-2.2207-3.8696-3.6011-6.4453-3.5469zm0.19336 4.2422c1.9172-0.051 3.5117 1.9659 2.9531 3.8184-0.4167 1.9563-2.9776 3.0291-4.623 1.8457-1.4322-0.8911-1.9335-2.9945-0.89063-4.3711 0.5598-0.8335 1.5642-1.314 2.5606-1.293zm276.97 1.5254c1.8828 0.1778 3.6614 0.9088 5.4434 1.5 4.7289 1.7739 9.3473 4.0784 13.184 7.4062 0.9443 0.9317 2.1458 1.8541 2.3867 3.2363 0.01 1.5623-0.94731 2.9046-1.666 4.2246-4.588-3.062-9.6182-5.4169-14.764-7.377-2.2733-0.9033-4.6619-1.4514-6.9707-2.2441-0.5502-0.2424-1.5111-0.50743-1.2949-1.3027 0.3154-1.5375 0.83107-3.0706 1.668-4.4062 0.426-0.6922 1.1937-1.1195 2.0137-1.0371zm-153.46 9.4688 0.0762 0.0566 0.004 0.002c6.7968 5.2263 13.386 10.703 19.992 16.16 10.336 8.6053 20.423 17.523 30.418 26.51 1.3291 1.2315 2.7697 2.4637 3.9961 3.7109-0.926 0.7145-1.8336 1.5808-2.209 2.7188-17.654-16.203-35.798-31.89-54.717-46.604 0.7973-0.863 1.6034-1.7069 2.4394-2.5547zm148.41 0.75 0.0859 0.043 0.0156 0.01v-0.002c2.6108 1.1502 5.4776 1.5916 8.084 2.6934 4.5921 1.7976 9.15 3.814 13.266 6.4922 0.972 0.6611 2.0367 1.3893 2.3359 2.6035 0.8568 2.4321-0.12605 5.2667-2.002 6.9199-1.5888-0.8021-3.0228-1.8862-4.6133-2.6934-3.9148-2.1269-7.8549-4.209-11.809-6.2617-2.379-1.2045-4.9308-2.047-7.1465-3.5605-0.6437-0.3666-0.91772-1.1183-0.69922-1.8184 0.3636-1.6809 1.377-3.1412 2.4824-4.4258zm-153.71 4.9336 0.0547 0.041c2.3855 1.8257 4.7398 3.6911 7.0566 5.6035-5.7611 9.514-11.251 19.19-16.586 28.949-0.9649-0.7092-2.0245-1.2903-3.1406-1.7246 2.2558-4.0967 1.6528-9.4529-1.2383-13.084-0.6985-0.8947-1.5228-1.6924-2.4414-2.3594 5.4046-5.8305 10.846-11.652 16.295-17.426zm72.635 2.0566h0.002c0.156 0.3992 0.32332 0.79474 0.50782 1.1816-0.5779 0.4316-0.33776-0.54319-0.47266-0.86719-0.012-0.097-0.0311-0.24075-0.0371-0.31445zm77.08 2.875 0.0801 0.0547 0.0254 0.0195v-0.002c2.9566 1.9202 6.3821 2.9392 9.4219 4.7109 4.2829 2.3545 8.733 4.423 12.859 7.0527 1.3359 0.8574 2.6545 1.9979 2.9844 3.6289 0.415 1.7063 0.23366 3.6108-0.61914 5.1562-0.211 0.4032-0.76007 0.0473-1.1094 0.0273-3.3168-0.993-6.3498-2.727-9.3418-4.4004-4.3302-2.5286-8.5252-5.2488-12.469-8.3438-1.4937-1.3049-3.1498-2.9247-3.1738-5.0449 0.026-1.0902 0.6276-2.0736 1.3418-2.8594zm-139.3 3.4043 0.0801 0.0547 0.002 0.002c0.9291 0.6639 1.8392 1.3564 2.7148 2.0898-4.9269 8.2689-9.7502 16.6-14.363 25.049-1.4622 2.666-2.9097 5.3394-4.3457 8.0195 0.1026-1.863-0.27404-3.7376-1.0605-5.4277 5.4271-10.045 11.098-20.004 16.973-29.787zm6.0352 5.502c0.3182 0.2733 0.63678 0.54701 0.95508 0.82031 12.099 10.41 24.183 20.836 36.273 31.256-8.478 0.5076-17.098 1.976-24.676 5.9941-4.9241 2.5526-9.3833 6.0757-12.721 10.529-5.8815 7.7086-8.4614 17.593-8.123 27.205 0.2799 9.231 3.1851 18.256 7.7363 26.25 0.2854 0.5084 0.57585 1.0121 0.87305 1.5137-6.1757-7.6803-11.928-15.735-16.707-24.34 2.4745-2.8215 3.6618-6.9674 2.4258-10.59-0.3701-1.1314-1.159-2.1514-2.0117-2.8926 1.8418-2.7803 1.6793-6.5714-0.043-9.3672-0.9496-1.6462-2.4591-2.984-4.0547-3.9062 2.9874-3.7636 3.2692-9.4816 0.46485-13.424-0.3955-0.5671-0.85476-1.0883-1.3516-1.5684 6.972-12.502 13.971-24.988 20.959-37.48zm-101.96 0.0586c-3.3398 0.017-6.4587 2.6335-6.9902 5.9434-0.62 3.2541 1.1655 6.8596 4.2695 8.1289 2.9211 1.2728 6.6214 0.3804 8.5742-2.1582 2.2095-2.6908 2.1386-6.9838-0.27148-9.5274-1.4086-1.5433-3.4936-2.4322-5.582-2.3867zm233.1 1.0762c0.069 0.057 0.13784 0.11467 0.20704 0.17187 5.1751 4.179 10.794 7.7879 16.602 11.02 2.4285 1.297 4.8806 2.615 7.5312 3.4024 0.9639 1.8369 1.5522 4.1071 0.60937 6.0742-0.3765 0.8477-0.95904 1.5819-1.5898 2.2539-1.9851-0.043-3.7696-0.9124-5.5527-1.6875-5.0939-2.4307-9.9321-5.561-14.359-9.1055-1.7919-1.5051-3.591-2.9972-4.9043-4.9805-0.8658-1.5062-0.45842-3.3662 0.10938-4.9062 0.3245-0.81281 0.76235-1.5878 1.3476-2.2422zm-232.84 3.1738c1.7087 0.019 3.1805 1.6332 2.9766 3.3438-0.072 1.9254-2.239 3.359-4.0391 2.6602-1.7994-0.5546-2.6414-2.8722-1.6797-4.4707 0.5399-0.9679 1.6344-1.5818 2.7422-1.5332zm236.16 14.287c0.7154 0.5006 1.4219 1.0139 2.1406 1.5098-1.3132 1.2702-3.014 2.168-4.8086 2.5098-0.8149 0.1209-1.6459 0.11177-2.4629 0.0137 1.9706-0.9649 3.6877-2.413 5.1309-4.0312v-0.002zm8.5215 5.4668 0.084 0.0469 0.0117 0.01c-0.018 6.9446 0.0442 13.956-0.0488 20.859-0.1064-1.0011-0.0159-2.1916-0.0469-3.2656v-17.65zm-306.16 2.6621c-0.9558 0.081-1.2539 1.1391-1.1797 1.9492v2.1621c4.2243 3.3111 9.2535 5.3446 14.199 7.3106 10.7 4.0886 21.682 7.3789 32.648 10.664 7.7567 2.3313 15.576 4.451 23.312 6.8476 7.2932 2.4387 14.44 5.794 20.498 10.621 1.1036 0.8917 2.1548 1.8487 3.1387 2.8711-0.9901 11.44-0.65538 22.984 0.76172 34.373 0.334 2.7284 0.81154 5.4387 1.2734 8.1406-5.1779 1.8477-10.536 3.3365-15.838 4.8828-5.1936 1.5188-10.461 2.8207-15.607 4.5137-1.0131 0.3609-2.3439 0.8473-2.457 2.0957-0.1693 1.0494 0.58847 2.1262 1.6719 2.2148 1.6927 0.1805 3.39-0.17023 5.0859-0.16993 2.2105-0.094 4.4498-0.16055 6.6894-0.15625-5.305 4.7325-8.9534 11.122-11.061 17.865-1.6243 5.3776-2.3593 11.214-0.95703 16.725 0.3927 1.2797 0.7291 2.6504 1.5625 3.7246 0.7194 0.8388 1.9415 0.56129 2.752 0.0254 0.4309-0.31 1.2126-0.50942 1.4297-0.88672-1.0699-1.9282-1.8606-4.0267-2.0742-6.2344-0.5337-4.8378 0.47151-9.7223 2.1035-14.238 1.9806-5.2814 4.9189-10.361 9.2363-14.072 1.1549-0.9751 2.4241-1.8169 3.7969-2.4531 4.019 0.6503 8.1855 1.6553 11.516 4.1387 1.8866 1.3667 3.0327 3.6658 2.916 6.0039-0.1389 3.8161-2.2293 7.251-4.6543 10.074-3.8589 4.4116-9.0351 7.5724-14.607 9.3223-1.0114 0.3152-2.02 1.2314-1.7539 2.3887 0.1249 0.9603 0.94525 1.7703 1.9394 1.7402 2.037 0.01 4.0739-0.30853 6.1113-0.082 3.1123 0.2487 6.408 1.2512 8.4258 3.7812 0.8226 0.9544 2.5022 1.1416 3.3086 0.0664 0.8245-0.9378 0.47531-2.3486-0.30079-3.1953-1.6825-1.8836-4.0456-2.9917-6.3711-3.8672-0.5755-0.2048-1.1604-0.38481-1.752-0.53711 5.3097-3.217 9.9764-7.8179 12.463-13.576 1.5176-3.5352 2.0457-7.7597 0.33398-11.326-1.6767-3.478-5.1296-5.7035-8.6387-7.0273-3.6757-1.3836-7.5879-2.0066-11.484-2.3574 5.7392-1.644 11.5-3.2446 17.125-5.252 2.9166 13.056 8.2972 25.832 17.174 35.979 3.9885 4.545 8.6729 8.5157 13.934 11.512 1.0269 0.6099 2.2386 0.66646 3.4004 0.60156 0.588 0.098 0.58278-0.7753 0.89648-1.125 0.4126-0.6384 0.55138-1.6865-0.26562-2.0586-3.9472-2.1129-7.6336-4.6452-10.932-7.7188-5.4097-4.989-9.7202-11.174-12.971-17.771-5.1954-10.569-7.929-22.168-9.3359-33.781-0.9651-8.2121-1.3418-16.439-1.0391-24.686 0.096-2.8268 0.18897-5.7265 0.50977-8.5625-0.2124-1.2068-1.2684-2.0152-2.0742-2.8496-6.2584-5.6885-13.756-9.9554-21.746-12.693-8.1616-2.8035-16.518-4.9731-24.779-7.4512-11.232-3.3389-22.48-6.6834-33.43-10.848-4.1172-1.6373-8.3006-3.2619-11.996-5.7461-0.861-0.5-1.4404-1.3842-2.3418-1.8086-0.1822-0.058-0.37395-0.0865-0.56445-0.0625h-0.002zm201.37 9.8125h0.006c2.8946-0.038 6.0011 0.37266 8.3027 2.2852 1.629 1.3567 1.9609 3.5973 2.4375 5.5332 0.01 2.7752 0.0622 5.5101-0.36718 8.2383-0.076 0.6069-0.15202 1.2135-0.22852 1.8203-2.7885 0.7684-5.6941 1.9335-7.5469 4.2617-0.2736 0.3404-0.41418 0.81997-0.92188 0.85157-1.3331 0.4853-2.6799 1.0196-3.8633 1.8086-0.5907 0.4636-0.54627 1.4023-0.01 1.8555 0.9646 0.511 2.0236-0.10727 3.0274-0.13477 0.5951-0.041 1.2466-0.23547 1.8086-0.13867 2.1495 1.6803 4.1914 3.5064 6.4258 5.0742 1.2555 0.7428 2.637 1.2769 4.0703 1.5527-0.96269 1.5982-1.9799 3.5415-1.3301 5.4414 0.7161 1.9417 2.7231 2.9352 4.4707 3.7832 1.4157 0.7207 3.0204 1.102 4.3066 2.0527 0.2351 0.2933-0.20308 0.71636-0.27148 1.0059-1.5765 2.6769-3.5313 5.1087-5.2422 7.6992-2.9723 4.3641-5.9685 8.8839-7.2539 14.076-0.8338 3.471-1.6434 6.99-1.752 10.572-0.053 2.1168 0.35032 4.2373 1.1699 6.1895-5.8092-5.2781-13.507-8.3642-21.32-8.8438-3.9512-0.2265-7.9736 0.28811-11.662 1.7578-4.8538-5.827-9.1824-12.159-12.199-19.143-3.5854-8.1962-5.294-17.327-3.8848-26.256 0.93189-5.8184 2.9555-11.578 6.6152-16.258 5.5209-7.1819 13.847-12.133 22.701-13.795 2.8992-0.4909 5.8963-0.85764 8.8301-1.1152 1.2091-0.098 2.4493-0.17038 3.6816-0.17578zm-107.28 3.248c-2.5792-0.016-5.1112 1.488-6.2168 3.8379-1.5741 3.0919-0.80973 7.3191 2.0801 9.3711 2.3721 1.7183 5.7235 1.7908 8.2734 0.42578 2.4724-1.3506 3.6201-4.3749 3.2227-7.084-0.3299-2.8994-2.4098-5.6352-5.3125-6.3223-0.6671-0.1711-1.3589-0.24271-2.0469-0.22851zm205.65 3.1289 0.0449 0.0547c0.7482 0.8767 1.5207 1.7357 2.3613 2.5254-0.6105 0.06-1.2422 0.28898-1.8223 0.33008-0.5434-0.8555-0.62408-1.9203-0.58398-2.9102zm-205.27 1.0781c1.8307 0.01 3.2855 1.9281 2.832 3.6934-0.2275 1.3357-1.4106 2.4203-2.7812 2.4453-1.2236 0.2033-2.4113-0.69514-2.9922-1.7148-0.8268-1.4631-0.0407-3.384 1.4336-4.0664 0.4641-0.2373 0.98551-0.36852 1.5078-0.35742zm209.04 5.6074c2.1666-0.062 4.3642 1.2581 5.0645 3.3574 1.4912 4.5044 0.89718 9.4364-0.54102 13.875-1.4547 4.2811-3.775 8.4483-7.3828 11.275-1.6266 1.1892-3.6477 2.3229-5.7305 1.875 2.8921-1.3921 5.3136-3.9509 6.0762-7.1211 0.9729-3.8794-0.1604-7.9295-1.8164-11.455-0.964-2.1091-2.1078-4.1453-2.3867-6.4863-0.1773-1.7083 1.2076-2.9895 2.4609-3.9141 1.2379-0.8734 2.7337-1.4058 4.2558-1.4062zm8.4043 0.56836 0.0898 0.0332 0.0391 0.0137c2.1367 0.7384 3.9206 2.5077 4.4297 4.7441 0.6298 2.4712 0.3045 5.0024-0.1543 7.4453-0.5553 3.0206-2.0749 5.8104-4.2051 8.0098-0.5925 0.6205-1.1892 1.2385-1.7246 1.9102 2.3554-5.1032 3.6068-10.808 3.0938-16.434-0.2036-1.9738-0.65386-3.9501-1.5684-5.7227zm-175.84 4.9121 0.0234 0.0117c1.1262 0.3966 2.3748 0.21501 3.5137 0.59961 2.1913 0.5411 4.3712 2.1817 4.6445 4.5586 0.2738 2.2613-1.2731 4.2471-3.0176 5.4902-0.4604 0.4716-0.86924 0.74139-0.99414-0.0996-1.4619-3.4991-2.8289-7.0126-4.1699-10.561zm78.373 3.1523c-0.1793 0.5127-0.47225 1.0633-0.87696 1.3984-0.96929-0.2003-2.0231-0.37281-3.0391-0.47851 1.2407-0.4833 2.632-0.87793 3.916-0.91993zm-3.4297 4.8145c0.0307-0.002 0.0825 0.006 0.16016 0.0254 0.9037 0.1991 1.9527 0.21166 2.6934 0.81836 0.2889 0.4647 0.59531 0.92155 0.94531 1.3438-1.1434-0.245-2.2222-0.74097-3.082-1.543-0.11996-0.15024-0.93189-0.6311-0.7168-0.64453zm-69.553 5.4414 0.0508 0.01 0.002-0.002c1.1767 0.2073 2.6513 0.0502 3.4121 1.1758 1.0925 1.6429 0.55794 3.8334-0.34766 5.4355-1.1078-2.1738-2.1378-4.3847-3.1172-6.6191zm171.14 7.8711c0.1317 0.5112 0.37164 1.1315 0.49024 1.5586-0.5576-0.3354-0.86794-0.96259-0.49024-1.5586zm-7.127 3.3398c0.0732-0.035 0.12563 0.0238 0.12305 0.27539-0.2419 0.1882-0.72746 0.93665-0.50586 0.21485 0.0804-0.11388 0.26087-0.43192 0.38281-0.49024zm-31.762 6.3106c-2.666 0-4.8789 0.76171-6.6367 2.2852-1.7871 1.4941-2.9727 3.3398-3.5586 5.5371-0.26368 0.9375-0.39649 1.8887-0.39649 2.8555s0.13281 1.8613 0.39649 2.6816h4.3066c0-1.8457 0.46875-3.4727 1.4062-4.8789 0.9375-1.4356 2.2852-2.1524 4.043-2.1524 0.9375 0 1.7578 0.30664 2.4609 0.92188 1.7285 1.5234 3.2812 5.0684 4.6582 10.635-2.373 1.2891-4.5117 2.9004-6.416 4.834-6.0938 6.0644-9.1406 14.605-9.1406 25.621s3.1348 19.496 9.4043 25.443c5.7129 5.3906 12.963 8.0859 21.752 8.0859 8.7891 0 15.982-2.7246 21.578-8.1738 6.2695-6.123 9.4043-14.604 9.4043-25.443 0-10.84-2.8711-19.234-8.6133-25.182-5.7715-5.918-13.258-8.877-22.457-8.877-2.2852 0-4.4824 0.20508-6.5918 0.61523-1.5234-4.6289-3.1777-8.0273-4.9648-10.195-2.5195-3.0762-6.0645-4.6133-10.635-4.6133zm-73.025 6.209c-1.5584 0.01-2.6122 1.4942-2.9375 2.8828-0.1937 0.7251-0.27089 1.4774-0.27539 2.2266-1.0692-0.4817-2.3047-0.93024-2.9902-1.9277 0.6452-0.4754 0.84314-1.5186 0.14844-2.0449-0.8562-0.5688-1.9234-0.08-2.8594-0.043-1.6342 0.2653-3.3106 0.37285-4.9024 0.84375-0.8792 0.3177-1.0217 1.6467-0.17773 2.0859 0.3739 0.2664 0.85502 0.13102 1.2617 0.29492-1.0236 1.811-0.81741 4.0036-0.28711 5.9336 0.4344 0.98451-0.38327 0.34012-0.88867 0.10352-0.4581-0.1865-1.2362-0.72701-1.4941-0.69141 0.5801 1.3627 0.91277 2.8565 1.8887 4.0098 2.6447 3.7011 6.7594 6.5873 11.373 6.9922 2.3158 0.2182 4.9693-0.37264 6.3848-2.3691 1.0193-1.4323 1.0049-3.279 1.459-4.918 0.3694-0.9713-0.5234 0.0937-0.875 0.28515-1.3582 0.9869-2.5657 2.3953-4.3223 2.6309-3.1544 0.5028-6.3196-0.68096-9.0215-2.2266-1.1226-0.6579-2.1833-1.4197-3.1699-2.2676 0.5602-1.3758 0.71532-2.9696 1.6992-4.1367-0.1619 1.0028-0.27665 2.2028 0.40625 3.041 0.6954 0.7281 1.9168 0.20256 2.123-0.71094 0.2121-0.8545 1.0069-1.6642 1.9492-1.3945 1.1543 0.3345 2.1937 1.001 3.3809 1.2578 2.43 0.6513 5.0283 0.66306 7.4785 0.12696 0.8924-0.2635 1.1458-1.3975 0.64649-2.1191-0.4242-0.9513-1.1606-1.9242-2.252-2.0566 0.096-1.7493-0.41759-3.5637-1.6504-4.8457-0.5454-0.5664-1.294-0.97479-2.0957-0.96289zm-79.479 8.4883c-3.4997 0.01-6.6757 2.9156-7.0547 6.3828-0.4328 3.1798 1.4531 6.5354 4.4609 7.7109 2.8004 1.1823 6.2848 0.37623 8.252-1.9512 2.3584-2.6004 2.4157-6.9275 0.0918-9.5664-1.4081-1.6568-3.5755-2.6237-5.748-2.5762h-0.002zm0.26758 4.2324c1.9182 0.028 3.4069 2.1108 2.8516 3.9394-0.2728 1.2573-1.4355 2.1821-2.7148 2.2148-1.2001 0.183-2.3899-0.66081-2.9746-1.6621-0.8172-1.4627-0.12582-3.4263 1.3633-4.1387 0.4525-0.2372 0.96281-0.36561 1.4746-0.35351zm174.01 0.91992c2.7489-0.0938 5.4234 0.48144 8.0234 1.7266-0.11719 2.9004-0.68945 5.1719-1.7148 6.8125-1.0254 1.6699-2.4453 2.5039-4.2617 2.5039-3.3106 0-5.6699-3.3828-7.0762-10.15 1.7029-0.53833 3.38-0.83628 5.0293-0.89258zm12.637 4.9355c4.9512 4.9512 7.4277 12.846 7.4277 23.686 0 9.1992-1.8613 16.113-5.582 20.742-3.7207 4.6289-8.4082 6.9434-14.062 6.9434-5.6543 0-10.342-2.2402-14.062-6.7227-3.7207-4.4824-5.5801-11.559-5.5801-21.227s2.168-17.08 6.5039-22.236c0.58594 1.4941 1.2598 2.9004 2.0215 4.2188 2.5781 4.5117 6.3125 6.7676 11.205 6.7676 3.3984 0 6.1523-1.2598 8.2617-3.7793 2.1094-2.4902 3.3984-5.2871 3.8672-8.3926zm-122.5 4.9141c7.8574 0.033 15.725 3.228 21.221 8.875 1.794 1.928 3.4714 4.0839 4.3379 6.5996 0.1529 0.4954 0.25279 1.0088 0.27539 1.5273-2.988-5.3661-8.0606-9.3171-13.59-11.826-5.4215-2.4239-11.582-3.5604-17.457-2.3398-0.5885-0.6137-1.1934-1.2247-1.7734-1.8379 2.2614-0.68 4.6271-0.99414 6.9863-0.99804zm-0.17773 6.5527c5.975 0.017 11.881 2.3403 16.584 6.0273 3.294 2.6166 6.1294 6.0829 7.1758 10.229-0.1951 0.2741-0.33142-0.42144-0.51562-0.58984-2.2932-3.6527-5.7036-6.4617-9.3027-8.7637-3.5339-2.1737-7.4351-3.9965-11.613-4.3828-0.4907-0.074-1.0704 0.12144-1.3965-0.38086-0.7684-0.6756-1.5007-1.3913-2.2461-2.0918 0.43721-0.031 0.87626-0.0439 1.3145-0.0469zm8.7988 8.877 0.0586 0.0274c3.4798 1.5986 6.6847 3.8831 9.1367 6.8418-3.1375-2.1636-6.2141-4.4601-9.1953-6.8691zm-35.256 10.209c-3.3971 0.01-6.4937 2.7278-7.041 6.0605-0.5778 3.0346 0.99993 6.3405 3.7695 7.7363 2.5105 1.3612 5.7911 1.0324 7.9844-0.79883 2.2605-1.7518 3.316-4.901 2.4785-7.6465-0.7701-2.9409-3.5494-5.1734-6.5781-5.3359-0.2041-0.014-0.40878-0.0196-0.61328-0.0156zm0.23242 4.252c1.7511-0.05 3.1414 1.6639 2.9688 3.3555-0.055 1.8973-2.1726 3.2417-3.9356 2.6523-1.7651-0.4166-2.7217-2.5862-1.916-4.1914 0.4845-1.1227 1.6561-1.8779 2.8828-1.8164z"/>
</g>
</svg>