<svg xmlns:rdf="http://www.w3.org/1999/02/22-rdf-syntax-ns#" xmlns="http://www.w3.org/2000/svg" xmlns:cc="http://creativecommons.org/ns#" xmlns:xlink="http://www.w3.org/1999/xlink" xmlns:dc="http://purl.org/dc/elements/1.1/" height="181.53mm" width="181.53mm" version="1.1" viewBox="0 0 643.21653 643.21653">
<defs>
<linearGradient id="g" x1="130" xlink:href="#b" gradientUnits="userSpaceOnUse" x2="130" gradientTransform="matrix(4.0001 0 0 4.0001 -1802.9 -1848.6)" y1="542.36" y2="392.36"/>
<linearGradient id="b">
<stop stop-color="#cfcfd2" offset="0"/>
<stop stop-color="#f7f7f7" offset="1"/>
</linearGradient>
<linearGradient id="f" x1="55" xlink:href="#b" gradientUnits="userSpaceOnUse" x2="215" gradientTransform="matrix(4.0001 0 0 4.0001 -1802.9 -1848.6)" y1="467.36" y2="467.36"/>
<clipPath id="h" clipPathUnits="userSpaceOnUse">
<rect ry="30" height="160" width="160" stroke="#000" y="387.36" x="55" stroke-width="0.8" fill="none"/>
</clipPath>
<filter id="c" style="color-interpolation-filters:sRGB" height="3.9618" width="1.1916" y="-1.4809" x="-.095824">
<feGaussianBlur stdDeviation="6.7875"/>
</filter>
<filter id="a" style="color-interpolation-filters:sRGB" height="3.9618" width="1.1916" y="-1.4809" x="-.095824">
<feGaussianBlur stdDeviation="6.7875"/>
</filter>
<linearGradient id="d" y2="532.36" gradientUnits="userSpaceOnUse" y1="402.36" gradientTransform="matrix(4.0001 0 0 4.0001 -1802.9 -1848.6)" x2="140" x1="140">
<stop stop-color="#e0e0e0" offset="0"/>
<stop stop-color="#eaeaea" offset="1"/>
</linearGradient>
<linearGradient id="e" y2="544.98" gradientUnits="userSpaceOnUse" x2="207.22" y1="97.157" x1="205.77">
<stop stop-color="#dc0000" offset="0"/>
<stop stop-color="#ff4747" offset="1"/>
</linearGradient>
</defs>
<g transform="translate(1584.5 300.67)">
<rect ry="120" height="640.02" width="640.02" stroke="url(#f)" y="-299.07" x="-1582.9" stroke-width="3.2001" fill="url(#g)"/>
<g clip-path="url(#h)" transform="matrix(4.0001 0 0 4.0001 -1802.9 -1848.6)">
<path d="m135 542.36a90.002 13 0 0 0 -85 8.77c4.8596 1.4338 10.182 2.2285 15.772 2.2285h138.46c5.5874 0 10.906-0.79421 15.764-2.2266a90.002 13 0 0 0 -84.99 -8.77z" filter="url(#c)" fill="#666"/>
<g fill="#fff">
<path filter="url(#a)" d="m135 393.36a90.002 13 0 0 1 -85 -8.77c4.8596-1.4338 10.182-2.2285 15.772-2.2285h138.46c5.5874 0 10.906 0.79421 15.764 2.2266a90.002 13 0 0 1 -84.99 8.77z"/>
<path filter="url(#a)" d="m135 393.36a90.002 13 0 0 1 -85 -8.77c4.8596-1.4338 10.182-2.2285 15.772-2.2285h138.46c5.5874 0 10.906 0.79421 15.764 2.2266a90.002 13 0 0 1 -84.99 8.77z"/>
<path filter="url(#a)" d="m135 393.36a90.002 13 0 0 1 -85 -8.77c4.8596-1.4338 10.182-2.2285 15.772-2.2285h138.46c5.5874 0 10.906 0.79421 15.764 2.2266a90.002 13 0 0 1 -84.99 8.77z"/>
</g>
<path d="m135 542.36a90.002 13 0 0 0 -85 8.77c4.8596 1.4338 10.182 2.2285 15.772 2.2285h138.46c5.5874 0 10.906-0.79421 15.764-2.2266a90.002 13 0 0 0 -84.99 -8.77z" filter="url(#c)" fill="#666"/>
</g>
<rect ry="120" height="640.02" width="640.02" stroke="#000" y="-299.07" x="-1582.9" stroke-width="2.8001" fill="none"/>
<rect ry="160" height="520.01" width="520.01" y="-239.07" x="-1522.9" fill="url(#d)"/>
<path d="m205 97.359c-13.62 19.181-42.92 47.191-42.92 47.191s28.14 22.96 42.92 46.81c14.78-22.1 42.92-46.81 42.92-46.81s-28.92-27.82-42.92-47.191zm229.93 0c-13.61 19.181-42.91 47.191-42.91 47.191s28.13 22.96 42.91 46.81c14.79-22.1 42.92-46.81 42.92-46.81s-28.91-27.82-42.92-47.191zm-115.85 55.721c-13.62 19.18-42.92 47.19-42.92 47.19s28.14 22.96 42.92 46.81c14.79-22.1 42.92-46.81 42.92-46.81s-28.91-27.82-42.92-47.19zm-114.08 63.67c-13.62 19.18-42.92 47.19-42.92 47.19s28.14 22.96 42.92 46.81c14.78-22.1 42.92-46.81 42.92-46.81s-28.92-27.82-42.92-47.19zm229.93 0c-13.61 19.18-42.91 47.19-42.91 47.19s28.13 22.96 42.91 46.81c14.79-22.1 42.92-46.81 42.92-46.81s-28.91-27.82-42.92-47.19zm-229.93 120.28c-13.62 19.18-42.92 47.19-42.92 47.19s28.14 22.96 42.92 46.81c14.78-22.1 42.92-46.81 42.92-46.81s-28.92-27.82-42.92-47.19zm229.93 0c-13.61 19.18-42.91 47.19-42.91 47.19s28.13 22.96 42.91 46.81c14.79-22.1 42.92-46.81 42.92-46.81s-28.91-27.82-42.92-47.19zm-115.85 45.98c-13.62 19.19-42.92 47.2-42.92 47.2s28.14 22.95 42.92 46.81c14.79-22.11 42.92-46.81 42.92-46.81s-28.91-27.82-42.92-47.2zm-114.08 68.98c-13.62 19.18-42.92 47.2-42.92 47.2s28.14 22.95 42.92 46.8c14.78-22.1 42.92-46.8 42.92-46.8v-0.01s-28.92-27.81-42.92-47.19zm229.93 0c-13.61 19.18-42.91 47.2-42.91 47.2s28.13 22.95 42.91 46.8c14.79-22.1 42.92-46.8 42.92-46.8v-0.01s-28.91-27.81-42.92-47.19z" transform="translate(-1584.5 -300.67)" fill="url(#e)"/>
</g>
</svg>